# Blender 3.5.0
# www.blender.org
mtllib Desk_Clock.mtl
o Desk_Clock
v 0.008513 0.201300 0.066671
v 0.005868 0.201300 0.066671
v 0.003223 0.201300 0.066671
v 0.000578 0.201300 0.066671
v -0.002067 0.201300 0.066671
v -0.004713 0.201300 0.066671
v -0.007358 0.201300 0.066671
v -0.053362 0.071411 0.049398
v -0.040321 0.068705 0.049398
v -0.019872 0.068705 0.049398
v 0.000578 0.068705 0.049398
v 0.021027 0.068705 0.049398
v 0.041476 0.068705 0.049398
v 0.054518 0.071411 0.049398
v 0.016602 0.184632 0.066671
v 0.030050 0.167964 0.066671
v 0.039311 0.151297 0.066671
v 0.038719 0.109552 0.049398
v 0.047291 0.098381 0.049398
v 0.052680 0.085371 0.049398
v 0.013091 0.184632 0.066671
v 0.019990 0.167964 0.066671
v 0.026400 0.151297 0.066671
v 0.027548 0.118124 0.049398
v 0.036853 0.093404 0.049398
v 0.041476 0.081054 0.049398
v 0.006834 0.184632 0.066671
v 0.010284 0.167964 0.066671
v 0.013489 0.151297 0.066671
v 0.014538 0.123513 0.049398
v 0.018716 0.093404 0.049398
v 0.021027 0.081054 0.049398
v 0.000578 0.184632 0.066671
v 0.000578 0.167964 0.066671
v 0.000578 0.151297 0.066671
v 0.000578 0.125351 0.049398
v 0.000578 0.093404 0.049398
v 0.000578 0.081054 0.049398
v -0.005679 0.184632 0.066671
v -0.009128 0.167964 0.066671
v -0.012333 0.151297 0.066671
v -0.013383 0.123513 0.049398
v -0.017560 0.093404 0.049398
v -0.019872 0.081054 0.049398
v -0.011936 0.184632 0.066671
v -0.018834 0.167964 0.066671
v -0.025245 0.151297 0.066671
v -0.026392 0.118124 0.049398
v -0.035698 0.093404 0.049398
v -0.040321 0.081054 0.049398
v -0.015447 0.184632 0.066671
v -0.028895 0.167964 0.066671
v -0.038156 0.151297 0.066671
v -0.037564 0.109552 0.049398
v -0.046136 0.098381 0.049398
v -0.051524 0.085371 0.049398
v -0.051524 0.057450 0.049398
v -0.040321 0.058769 0.049398
v -0.019872 0.058769 0.049398
v 0.000578 0.058769 0.049398
v 0.021027 0.058769 0.049398
v 0.041476 0.058769 0.049398
v 0.052680 0.057450 0.049398
v -0.046136 0.044440 0.049398
v -0.040321 0.049526 0.049398
v -0.019872 0.049526 0.049398
v 0.000578 0.049526 0.049398
v 0.021027 0.049526 0.049398
v 0.041476 0.049526 0.049398
v 0.047291 0.044440 0.049398
v -0.037564 0.033269 0.049398
v -0.026392 0.024697 0.049398
v -0.013383 0.019308 0.049398
v 0.000578 0.017470 0.049398
v 0.014538 0.019308 0.049398
v 0.027548 0.024697 0.049398
v 0.038719 0.033269 0.049398
v -0.082221 0.001221 0.066671
v -0.054622 0.001221 0.066671
v -0.027022 0.001221 0.066671
v 0.000578 0.001221 0.066671
v 0.028177 0.001221 0.066671
v 0.055777 0.001221 0.066671
v 0.083377 0.001221 0.066671
v -0.109821 0.017035 0.004593
v -0.109821 0.013473 0.004593
v -0.109821 0.020597 0.004593
v -0.109821 0.009912 0.004593
v 0.048638 0.130521 0.063841
v 0.047148 0.139706 0.066671
v 0.049149 0.133255 0.065256
v 0.048604 0.136617 0.066292
v 0.032569 0.131145 0.063024
v 0.031606 0.139748 0.066671
v 0.032932 0.133573 0.064848
v 0.032579 0.136722 0.066182
v 0.016577 0.131882 0.062403
v 0.016086 0.139772 0.066671
v 0.016756 0.133945 0.064537
v 0.016576 0.136832 0.066099
v 0.000578 0.132222 0.062191
v 0.000578 0.139779 0.066671
v 0.000578 0.134116 0.064431
v 0.000578 0.136882 0.066071
v -0.015421 0.131882 0.062403
v -0.014931 0.139772 0.066671
v -0.015600 0.133945 0.064537
v -0.015421 0.136832 0.066099
v -0.031414 0.131145 0.063024
v -0.030450 0.139748 0.066671
v -0.031777 0.133573 0.064848
v -0.031424 0.136722 0.066182
v -0.045992 0.139706 0.066671
v -0.047482 0.130521 0.063841
v -0.047449 0.136617 0.066292
v -0.047994 0.133255 0.065256
v 0.110977 0.017035 0.004593
v 0.110977 0.013473 0.004593
v 0.110977 0.020597 0.004593
v 0.110977 0.009912 0.004593
v 0.065675 0.136479 0.004593
v 0.069208 0.132849 0.004593
v 0.062728 0.139644 0.004593
v 0.072378 0.129725 0.004593
v -0.064520 0.136479 0.004593
v -0.068052 0.132849 0.004593
v -0.061572 0.139644 0.004593
v -0.071222 0.129725 0.004593
v -0.109821 0.001221 0.004593
v 0.110977 0.001221 0.004593
v -0.109821 0.027417 0.004593
v 0.110977 0.027417 0.004593
v -0.109821 0.042074 0.004593
v 0.110977 0.042074 0.004593
v -0.109821 0.054548 0.004593
v 0.110977 0.054548 0.004593
v 0.098497 0.101293 0.004593
v 0.084682 0.117961 0.004593
v 0.052222 0.151297 0.004593
v 0.039402 0.167964 0.004593
v 0.025604 0.184632 0.004593
v -0.024449 0.184632 0.004593
v -0.038247 0.167964 0.004593
v -0.051067 0.151297 0.004593
v -0.083527 0.117961 0.004593
v -0.097342 0.101293 0.004593
v -0.109821 0.067958 0.004593
v 0.110977 0.067958 0.004593
v -0.082221 0.009912 0.066671
v -0.072662 0.019111 0.062973
v -0.080941 0.013100 0.066175
v -0.077442 0.016467 0.064822
v -0.054622 0.009912 0.066671
v -0.046960 0.017817 0.061983
v -0.053595 0.012926 0.066043
v -0.050791 0.015820 0.064327
v -0.027022 0.009912 0.066671
v -0.022915 0.016475 0.061470
v -0.026472 0.012747 0.065974
v -0.024969 0.015149 0.064070
v 0.000578 0.009912 0.066671
v 0.000578 0.015934 0.061372
v 0.000578 0.012674 0.065961
v 0.000578 0.014878 0.064021
v 0.028177 0.009912 0.066671
v 0.024070 0.016475 0.061470
v 0.027627 0.012747 0.065974
v 0.026124 0.015149 0.064070
v 0.055777 0.009912 0.066671
v 0.048116 0.017817 0.061983
v 0.054751 0.012926 0.066043
v 0.051946 0.015820 0.064327
v 0.073817 0.019111 0.062973
v 0.083377 0.009912 0.066671
v 0.078597 0.016467 0.064822
v 0.082096 0.013100 0.066175
v 0.009836 0.201300 0.065749
v 0.010804 0.201300 0.063232
v 0.103883 0.068392 0.064501
v 0.110977 0.067958 0.059794
v 0.107430 0.068175 0.064664
v 0.110026 0.068016 0.062942
v -0.009648 0.201300 0.063232
v -0.008680 0.201300 0.065749
v -0.109821 0.067958 0.059794
v -0.102728 0.068392 0.064501
v -0.108871 0.068016 0.062942
v -0.106275 0.068175 0.064664
v -0.102543 0.084719 0.064514
v -0.106182 0.084672 0.064671
v -0.108846 0.084638 0.062944
v -0.090255 0.100890 0.064280
v -0.097342 0.101293 0.059794
v -0.093799 0.101092 0.064554
v -0.096393 0.101239 0.062912
v -0.076911 0.116751 0.064184
v -0.083527 0.117961 0.059794
v -0.080219 0.117356 0.064506
v -0.082640 0.117799 0.062899
v -0.051067 0.151297 0.059794
v -0.042058 0.151297 0.066671
v -0.049860 0.151297 0.063232
v -0.046563 0.151297 0.065749
v -0.038247 0.167964 0.059794
v -0.033748 0.167964 0.065749
v -0.037041 0.167964 0.063232
v -0.024449 0.184632 0.059794
v -0.023243 0.184632 0.063232
v -0.019948 0.184632 0.065749
v 0.025604 0.184632 0.059794
v 0.021103 0.184632 0.065749
v 0.024398 0.184632 0.063232
v 0.039402 0.167964 0.059794
v 0.034903 0.167964 0.065749
v 0.038197 0.167964 0.063232
v 0.043213 0.151297 0.066671
v 0.052222 0.151297 0.059794
v 0.047718 0.151297 0.065749
v 0.051016 0.151297 0.063232
v 0.084682 0.117961 0.059794
v 0.078066 0.116751 0.064184
v 0.083796 0.117799 0.062899
v 0.081374 0.117356 0.064506
v 0.091411 0.100890 0.064280
v 0.098497 0.101293 0.059794
v 0.094954 0.101092 0.064554
v 0.097548 0.101239 0.062912
v 0.103699 0.084719 0.064514
v 0.110002 0.084638 0.062944
v 0.107338 0.084672 0.064671
v 0.103989 0.054896 0.064600
v 0.110977 0.054548 0.059794
v 0.107483 0.054722 0.064714
v 0.110040 0.054595 0.062955
v -0.102833 0.054896 0.064600
v -0.109821 0.054548 0.059794
v -0.106327 0.054722 0.064714
v -0.108885 0.054595 0.062955
v 0.104036 0.042332 0.064788
v 0.110977 0.042074 0.059794
v 0.107506 0.042203 0.064808
v 0.110047 0.042108 0.062980
v -0.109821 0.042074 0.059794
v -0.102880 0.042332 0.064788
v -0.108891 0.042108 0.062980
v -0.106351 0.042203 0.064808
v 0.104052 0.027978 0.065015
v 0.110977 0.027417 0.059794
v 0.107514 0.027697 0.064922
v 0.110049 0.027492 0.063011
v -0.109821 0.027417 0.059794
v -0.102896 0.027978 0.065015
v -0.108893 0.027492 0.063011
v -0.106359 0.027697 0.064922
v 0.110977 0.001221 0.059794
v 0.103988 0.001221 0.066671
v 0.110040 0.001221 0.063232
v 0.107482 0.001221 0.065749
v -0.102832 0.001221 0.066671
v -0.109821 0.001221 0.059794
v -0.106327 0.001221 0.065749
v -0.108885 0.001221 0.063232
v -0.071222 0.129725 0.059794
v -0.062188 0.130028 0.065594
v -0.070012 0.129766 0.063088
v -0.066705 0.129877 0.065211
v -0.052512 0.139680 0.066671
v -0.061572 0.139644 0.059794
v -0.057042 0.139662 0.065749
v -0.060359 0.139648 0.063232
v -0.068052 0.132849 0.059794
v -0.058945 0.133033 0.066028
v -0.066832 0.132874 0.063146
v -0.063498 0.132941 0.065428
v -0.064520 0.136479 0.059794
v -0.055435 0.136553 0.066469
v -0.063303 0.136489 0.063205
v -0.059978 0.136516 0.065649
v 0.063343 0.130028 0.065594
v 0.072378 0.129725 0.059794
v 0.067860 0.129877 0.065211
v 0.071167 0.129766 0.063088
v 0.062728 0.139644 0.059794
v 0.053668 0.139680 0.066671
v 0.061514 0.139648 0.063232
v 0.058198 0.139662 0.065749
v 0.060100 0.133033 0.066028
v 0.069208 0.132849 0.059794
v 0.064654 0.132941 0.065428
v 0.067987 0.132874 0.063146
v 0.056591 0.136553 0.066469
v 0.065675 0.136479 0.059794
v 0.061133 0.136516 0.065649
v 0.064458 0.136489 0.063205
v 0.103983 0.009912 0.066671
v 0.110977 0.009912 0.059794
v 0.107480 0.009912 0.065749
v 0.110040 0.009912 0.063232
v 0.110977 0.020597 0.059794
v 0.103943 0.020315 0.065971
v 0.110034 0.020559 0.063139
v 0.107460 0.020456 0.065400
v 0.110977 0.013473 0.059794
v 0.103970 0.013383 0.066551
v 0.110038 0.013461 0.063216
v 0.107473 0.013428 0.065689
v 0.110977 0.017035 0.059794
v 0.103956 0.016912 0.066270
v 0.110036 0.017019 0.063179
v 0.107467 0.016973 0.065549
v -0.109821 0.009912 0.059794
v -0.102828 0.009912 0.066671
v -0.108884 0.009912 0.063232
v -0.106324 0.009912 0.065749
v -0.102788 0.020315 0.065971
v -0.109821 0.020597 0.059794
v -0.106304 0.020456 0.065400
v -0.108879 0.020559 0.063139
v -0.102815 0.013383 0.066551
v -0.109821 0.013473 0.059794
v -0.106318 0.013428 0.065689
v -0.108882 0.013461 0.063216
v -0.102801 0.016912 0.066270
v -0.109821 0.017035 0.059794
v -0.106311 0.016973 0.065549
v -0.108881 0.017019 0.063179
v 0.107283 0.089559 0.004593
v 0.110977 0.078462 0.004593
v 0.109130 0.086267 0.004593
v 0.110482 0.082205 0.004593
v -0.109821 0.078462 0.004593
v -0.106127 0.089559 0.004593
v -0.109326 0.082205 0.004593
v -0.107974 0.086267 0.004593
v -0.106127 0.089559 0.059794
v -0.109821 0.078462 0.059794
v -0.108847 0.084638 0.062940
v -0.107974 0.086267 0.059794
v -0.109326 0.082205 0.059794
v 0.110977 0.078462 0.059794
v 0.107283 0.089559 0.059794
v 0.110003 0.084638 0.062940
v 0.110482 0.082205 0.059794
v 0.109130 0.086267 0.059794
v -0.013566 0.197188 0.004593
v -0.004562 0.201300 0.004593
v -0.011056 0.199244 0.004593
v -0.007760 0.200749 0.004593
v 0.005717 0.201300 0.004593
v 0.014722 0.197188 0.004593
v 0.008915 0.200749 0.004593
v 0.012211 0.199244 0.004593
v 0.014722 0.197188 0.059794
v 0.005717 0.201300 0.059794
v 0.010804 0.201300 0.063229
v 0.012211 0.199244 0.059794
v 0.008915 0.200749 0.059794
v -0.004562 0.201300 0.059794
v -0.013566 0.197188 0.059794
v -0.009649 0.201300 0.063229
v -0.007760 0.200749 0.059794
v -0.011056 0.199244 0.059794
vn 0.1598 -0.0585 0.9854
vn 0.1638 -0.1179 0.9794
vn 0.1844 -0.1228 0.9752
vn 0.1496 -0.0429 0.9878
vn -0.1662 0.0019 0.9861
vn -0.1496 -0.0429 0.9878
vn -0.1598 -0.0585 0.9854
vn -0.1574 0.0001 0.9875
vn -0.0000 -0.0000 1.0000
vn -0.1514 0.0246 0.9882
vn -0.0000 0.7071 0.7071
vn 0.1243 0.0788 0.9891
vn 0.0853 0.6536 0.7520
vn -0.0853 0.6536 0.7520
vn -0.1243 0.0788 0.9891
vn 0.1574 0.0001 0.9875
vn 0.1123 -0.3752 0.9201
vn 0.1366 -0.2380 0.9616
vn 0.1241 0.0292 0.9918
vn -0.0035 0.0618 0.9981
vn -0.0000 -0.7071 0.7071
vn 0.0943 -0.6793 0.7278
vn 0.1226 -0.6235 0.7722
vn 0.1446 -0.4685 0.8715
vn -0.0965 0.0778 0.9923
vn 0.0715 -0.4810 0.8738
vn 0.0018 -0.0814 0.9967
vn 0.0036 -0.0639 0.9979
vn 0.0777 -0.7545 0.6517
vn -0.0000 -0.5238 0.8518
vn 0.0011 -0.0941 0.9956
vn -0.0000 -0.8038 0.5949
vn -0.0715 -0.4810 0.8738
vn -0.0000 -0.0989 0.9951
vn -0.0777 -0.7545 0.6517
vn -0.1123 -0.3752 0.9201
vn -0.0011 -0.0941 0.9956
vn -0.1226 -0.6235 0.7722
vn -0.1638 -0.1179 0.9794
vn -0.1366 -0.2380 0.9616
vn -0.0018 -0.0814 0.9967
vn -0.1446 -0.4685 0.8715
vn 0.0965 0.0778 0.9923
vn -0.1548 0.0259 0.9876
vn -0.1368 0.0435 0.9896
vn -0.1302 0.0444 0.9905
vn 0.0930 0.0444 0.9947
vn 0.0952 0.0774 0.9924
vn -0.0036 -0.0639 0.9979
vn -0.1432 -0.1846 0.9723
vn -0.0529 -0.2203 0.9740
vn -0.1844 -0.1228 0.9752
vn -0.0952 0.0774 0.9924
vn 0.1662 0.0019 0.9861
vn 0.1548 0.0259 0.9876
vn 0.1514 0.0246 0.9882
vn 0.1432 -0.1846 0.9723
vn 0.0529 -0.2203 0.9740
vn -0.0930 0.0444 0.9947
vn 0.1302 0.0444 0.9905
vn 0.1368 0.0435 0.9896
vn -0.0980 0.4498 0.8877
vn -0.1078 0.2248 0.9684
vn -0.0619 0.6138 0.7870
vn -0.0000 0.6610 0.7504
vn -0.0754 0.1413 0.9871
vn -0.0013 0.0977 0.9952
vn -0.0007 0.1161 0.9932
vn -0.1116 0.4761 0.8723
vn 0.0060 0.1997 0.9798
vn 0.1078 0.2248 0.9684
vn 0.0980 0.4498 0.8877
vn 0.0619 0.6138 0.7870
vn 0.0754 0.1413 0.9871
vn -0.0000 0.1228 0.9924
vn 0.0007 0.1161 0.9932
vn 0.1077 0.6999 0.7061
vn 0.0785 0.8866 0.4558
vn 0.1116 0.4761 0.8723
vn 0.0013 0.0977 0.9952
vn 0.0035 0.0618 0.9981
vn -0.0785 0.8866 0.4558
vn -0.1077 0.6999 0.7061
vn 0.0579 -0.3595 0.9313
vn -0.0266 -0.1421 0.9895
vn -0.1241 0.0292 0.9918
vn -0.0943 -0.6793 0.7278
vn -0.0000 0.9498 0.3129
vn -0.0060 0.1997 0.9798
vn 0.0221 -0.2077 0.9779
vn 0.0112 -0.2762 0.9610
vn 0.0327 -0.4908 0.8707
vn 0.0073 -0.3285 0.9445
vn 0.0225 -0.5869 0.8093
vn -0.0000 -0.3491 0.9371
vn -0.0000 -0.6248 0.7808
vn -0.0073 -0.3285 0.9445
vn -0.0225 -0.5869 0.8093
vn -0.0112 -0.2762 0.9610
vn -0.0327 -0.4908 0.8707
vn -0.0221 -0.2077 0.9779
vn -0.0579 -0.3595 0.9314
vn 0.1048 0.0975 0.9897
vn -0.0202 0.2060 0.9784
vn 0.3208 0.7567 0.5696
vn 0.4299 0.8710 0.2378
vn 0.4235 0.9056 -0.0219
vn 0.0587 0.9980 -0.0239
vn -0.0587 0.9980 -0.0239
vn -0.4235 0.9056 -0.0219
vn -0.4299 0.8710 0.2378
vn -0.3208 0.7567 0.5696
vn 0.6908 0.7131 0.1194
vn 0.7281 0.6750 0.1195
vn 0.5266 0.4905 -0.6943
vn 0.4937 0.5086 -0.7054
vn 0.7753 0.6173 0.1334
vn 0.7600 0.6366 0.1312
vn 0.5498 0.4581 -0.6984
vn 0.5558 0.4436 -0.7031
vn -0.9910 0.0006 0.1337
vn -0.9908 0.0009 0.1351
vn -0.7071 -0.0000 -0.7071
vn -0.7281 0.6750 0.1195
vn -0.6908 0.7131 0.1194
vn -0.4937 0.5086 -0.7054
vn -0.5266 0.4905 -0.6943
vn -0.8216 0.5606 0.1032
vn -0.7802 0.6136 0.1219
vn -0.5597 0.4410 -0.7016
vn -0.6046 0.3934 -0.6926
vn 0.7183 0.6844 0.1253
vn 0.7034 0.7001 0.1231
vn 0.5033 0.5001 -0.7047
vn 0.5139 0.4892 -0.7047
vn 0.9911 0.0002 0.1328
vn 0.7282 -0.6785 0.0974
vn 0.5774 -0.5774 -0.5774
vn 0.7071 -0.0000 -0.7071
vn -0.7862 0.2619 0.5597
vn -0.6596 0.5209 0.5418
vn -0.9363 0.3088 0.1672
vn -0.9905 0.0008 0.1372
vn -0.9902 0.0005 0.1395
vn -0.7753 0.6173 0.1334
vn -0.7608 0.6388 0.1146
vn -0.5415 0.4587 -0.7046
vn -0.5558 0.4436 -0.7031
vn 0.9907 0.0435 0.1288
vn 0.9893 0.0004 0.1461
vn 0.7197 0.0474 -0.6926
vn 0.0689 -0.0487 0.9964
vn 0.0266 -0.1421 0.9895
vn -0.0689 -0.0487 0.9964
vn 0.0202 0.2060 0.9784
vn -0.1048 0.0975 0.9897
vn 0.0509 0.3584 0.9322
vn -0.0689 0.1538 0.9857
vn -0.7201 0.6913 0.0589
vn -0.5056 0.5200 -0.6884
vn -0.7183 0.6844 0.1253
vn -0.7311 0.6704 0.1267
vn -0.5227 0.4790 -0.7053
vn -0.5139 0.4892 -0.7047
vn 0.9910 0.0006 0.1337
vn 0.7802 0.6136 0.1219
vn 0.5597 0.4410 -0.7016
vn 0.9905 0.0008 0.1372
vn 0.9908 0.0009 0.1351
vn 0.9896 0.0003 0.1436
vn 0.9899 0.0002 0.1416
vn 0.0689 0.1538 0.9857
vn -0.0509 0.3584 0.9322
vn -0.7282 -0.6785 0.0974
vn -0.5774 -0.5774 -0.5774
vn -0.9899 0.0002 0.1416
vn -0.7600 0.6366 0.1312
vn -0.5498 0.4581 -0.6984
vn -0.9896 0.0003 0.1436
vn -0.9911 0.0002 0.1328
vn -0.9893 0.0004 0.1461
vn -0.9907 0.0435 0.1288
vn -0.7197 0.0474 -0.6926
vn 0.7201 0.6913 0.0589
vn 0.7608 0.6388 0.1146
vn 0.5415 0.4587 -0.7046
vn 0.5056 0.5200 -0.6884
vn 0.7311 0.6704 0.1267
vn 0.5227 0.4790 -0.7053
vn 0.8216 0.5606 0.1032
vn 0.6046 0.3934 -0.6926
vn 0.9902 0.0005 0.1395
vn -0.7034 0.7001 0.1231
vn -0.5033 0.5001 -0.7047
vn -0.3744 -0.6536 0.6578
vn -0.6537 -0.6528 0.3828
vn 0.6537 -0.6528 0.3828
vn 0.3744 -0.6536 0.6578
vn 0.6895 0.5636 0.4549
vn 0.0094 0.3366 0.9416
vn 0.0299 0.5960 0.8024
vn 0.0061 0.4178 0.9085
vn 0.0214 0.7361 0.6765
vn -0.0000 0.4527 0.8917
vn -0.0000 0.7931 0.6091
vn -0.0061 0.4178 0.9085
vn -0.0214 0.7361 0.6765
vn -0.0094 0.3366 0.9416
vn -0.0299 0.5960 0.8024
vn -0.4405 0.3333 0.8336
vn -0.6895 0.5636 0.4549
vn 0.2696 0.0025 0.9630
vn 0.3062 0.1316 0.9428
vn 0.8033 0.0018 0.5956
vn 0.7862 0.2619 0.5597
vn -0.3062 0.1316 0.9428
vn -0.2696 0.0025 0.9630
vn -0.8033 0.0018 0.5956
vn 0.6596 0.5209 0.5418
vn 0.9363 0.3088 0.1672
vn -0.2248 0.1873 0.9562
vn -0.2347 0.2142 0.9482
vn -0.6222 0.5754 0.5308
vn -0.3831 0.3078 0.8709
vn -0.3787 0.3129 0.8710
vn -0.6743 0.5370 0.5069
vn -0.6625 0.5550 0.5030
vn 0.4405 0.3333 0.8336
vn 0.3831 0.3078 0.8709
vn 0.6743 0.5370 0.5069
vn 0.3787 0.3129 0.8710
vn 0.6625 0.5550 0.5030
vn 0.2248 0.1873 0.9562
vn 0.2347 0.2142 0.9482
vn 0.6222 0.5754 0.5308
vn -0.2838 0.0065 0.9589
vn -0.3055 0.0084 0.9521
vn -0.8096 0.0024 0.5870
vn -0.8166 0.0026 0.5771
vn 0.2838 0.0065 0.9589
vn 0.8096 0.0024 0.5870
vn 0.8166 0.0026 0.5771
vn 0.3055 0.0084 0.9521
vn 0.8291 0.0097 0.5591
vn 0.3528 0.0375 0.9350
vn -0.8291 0.0097 0.5591
vn -0.3528 0.0375 0.9350
vn 0.6432 0.5850 0.4940
vn 0.6329 0.5921 0.4988
vn 0.3736 0.3213 0.8702
vn 0.3584 0.2896 0.8875
vn 0.6182 0.6031 0.5042
vn 0.3305 0.2615 0.9069
vn 0.6012 0.6106 0.5155
vn 0.2794 0.2280 0.9327
vn -0.3736 0.3213 0.8702
vn -0.3584 0.2896 0.8875
vn -0.6432 0.5850 0.4940
vn -0.6329 0.5921 0.4988
vn -0.3305 0.2615 0.9069
vn -0.6182 0.6031 0.5042
vn -0.2794 0.2280 0.9327
vn -0.6012 0.6106 0.5155
vn -0.4782 0.0291 0.8778
vn -0.4912 0.0089 0.8710
vn -0.8588 0.0078 0.5123
vn -0.8620 0.0025 0.5069
vn -0.4547 0.0423 0.8896
vn -0.8531 0.0113 0.5217
vn -0.4094 0.0550 0.9107
vn -0.8421 0.0142 0.5391
vn 0.8588 0.0078 0.5123
vn 0.8620 0.0025 0.5069
vn 0.4782 0.0291 0.8778
vn 0.4912 0.0089 0.8710
vn 0.8531 0.0113 0.5217
vn 0.4547 0.0423 0.8896
vn 0.8421 0.0142 0.5391
vn 0.4094 0.0550 0.9107
vn -0.9079 0.4189 -0.0128
vn -0.9788 0.2048 0.0033
vn 0.9788 0.2048 0.0033
vn 0.9079 0.4189 -0.0128
vn -0.7087 0.1632 -0.6864
vn -0.6651 0.2941 -0.6864
vn 0.6651 0.2941 -0.6864
vn 0.7087 0.1632 -0.6864
vn 0.0618 0.7227 -0.6884
vn -0.0618 0.7227 -0.6884
vn 0.5444 0.8290 -0.1279
vn 0.2748 0.9503 -0.1460
vn -0.2748 0.9503 -0.1460
vn -0.5444 0.8290 -0.1279
vn 0.3881 0.6229 -0.6793
vn 0.2165 0.7012 -0.6793
vn -0.2165 0.7012 -0.6793
vn -0.3881 0.6229 -0.6793
vt 0.745279 0.988692
vt 0.454998 0.267034
vt 0.454998 0.261019
vt 0.744950 0.983931
vt 0.454997 0.255004
vt 0.744622 0.979171
vt 0.454996 0.248989
vt 0.744293 0.974410
vt 0.454996 0.242973
vt 0.743965 0.969649
vt 0.454995 0.236958
vt 0.743636 0.964888
vt 0.743308 0.960127
vt 0.454994 0.230943
vt 0.750719 0.126292
vt 0.756875 0.155949
vt 0.756881 0.202452
vt 0.756886 0.248955
vt 0.756891 0.295459
vt 0.756896 0.341962
vt 0.750746 0.371620
vt 0.492902 0.285425
vt 0.530807 0.316003
vt 0.568712 0.337059
vt 0.664009 0.335702
vt 0.689415 0.355193
vt 0.718999 0.367444
vt 0.492901 0.277441
vt 0.530805 0.293125
vt 0.568708 0.307698
vt 0.035648 0.514354
vt 0.644514 0.310300
vt 0.700730 0.331455
vt 0.728813 0.341965
vt 0.492900 0.263213
vt 0.530803 0.271053
vt 0.568705 0.278337
vt 0.632257 0.280717
vt 0.038901 0.543938
vt 0.700725 0.290208
vt 0.728808 0.295462
vt 0.492898 0.248984
vt 0.530800 0.248980
vt 0.568702 0.248976
vt 0.628074 0.248970
vt 0.040011 0.575686
vt 0.700721 0.248962
vt 0.728803 0.248958
vt 0.492897 0.234756
vt 0.530798 0.226908
vt 0.568699 0.219615
vt 0.632250 0.217221
vt 0.038901 0.607434
vt 0.700716 0.207715
vt 0.728798 0.202455
vt 0.492895 0.220528
vt 0.530795 0.204836
vt 0.568696 0.190254
vt 0.644500 0.187636
vt 0.035648 0.637018
vt 0.700712 0.166468
vt 0.728793 0.155952
vt 0.492894 0.212544
vt 0.530793 0.181958
vt 0.568692 0.160893
vt 0.663990 0.162229
vt 0.689392 0.142733
vt 0.718973 0.130475
vt 0.782466 0.130468
vt 0.779469 0.155946
vt 0.779474 0.202450
vt 0.779479 0.248953
vt 0.779484 0.295456
vt 0.779489 0.341959
vt 0.782492 0.367437
vt 0.812050 0.142719
vt 0.800486 0.155944
vt 0.800491 0.202447
vt 0.800496 0.248951
vt 0.800501 0.295454
vt 0.800507 0.341957
vt 0.812073 0.355179
vt 0.837455 0.162210
vt 0.035648 0.633094
vt 0.856951 0.187612
vt 0.869208 0.217195
vt 0.034531 0.617051
vt 0.873391 0.248943
vt 0.034150 0.594397
vt 0.869215 0.280691
vt 0.034531 0.566675
vt 0.035648 0.535775
vt 0.856964 0.310276
vt 0.837474 0.335683
vt 0.909950 0.060647
vt 0.881381 0.937236
vt 0.909956 0.123411
vt 0.881381 0.874473
vt 0.909963 0.186175
vt 0.881381 0.811709
vt 0.909970 0.248939
vt 0.881381 0.748945
vt 0.909977 0.311702
vt 0.881381 0.686181
vt 0.909984 0.374466
vt 0.881381 0.623418
vt 0.909991 0.437230
vt 0.881381 0.560654
vt 0.610404 0.521523
vt 0.035963 0.000000
vt 0.610802 0.516574
vt 0.027864 0.000000
vt 0.610005 0.526472
vt 0.044063 0.000000
vt 0.611200 0.511625
vt 0.019764 0.000000
vt 0.616018 0.358263
vt 0.595070 0.354877
vt 0.609770 0.359427
vt 0.602103 0.358188
vt 0.073385 0.502935
vt 0.614614 0.321722
vt 0.594971 0.319533
vt 0.078848 0.502110
vt 0.609053 0.322548
vt 0.601864 0.321747
vt 0.072468 0.539303
vt 0.594914 0.284241
vt 0.608210 0.285762
vt 0.078392 0.538896
vt 0.601610 0.285354
vt 0.072208 0.575686
vt 0.594892 0.248973
vt 0.607819 0.248972
vt 0.078262 0.575686
vt 0.601494 0.248972
vt 0.072468 0.612069
vt 0.594906 0.213705
vt 0.608202 0.212182
vt 0.078392 0.612476
vt 0.601602 0.212591
vt 0.614598 0.176220
vt 0.073385 0.648437
vt 0.594956 0.178413
vt 0.609037 0.175395
vt 0.078848 0.649262
vt 0.601848 0.176198
vt 0.595046 0.143069
vt 0.615994 0.139679
vt 0.602079 0.139757
vt 0.609746 0.138516
vt 0.461538 0.955311
vt 0.035963 0.502110
vt 0.461894 0.963273
vt 0.027864 0.502110
vt 0.461182 0.947349
vt 0.044063 0.502110
vt 0.462250 0.971234
vt 0.019764 0.502110
vt 0.458876 0.669599
vt 0.307588 0.399092
vt 0.458515 0.679173
vt 0.299332 0.407124
vt 0.459164 0.661309
vt 0.314784 0.392389
vt 0.458178 0.687464
vt 0.292228 0.414333
vt 0.602671 0.769033
vt 0.307588 0.103018
vt 0.602638 0.757631
vt 0.299332 0.094986
vt 0.602683 0.778735
vt 0.314784 0.109721
vt 0.602594 0.747584
vt 0.292228 0.087776
vt 0.745279 1.000000
vt 0.612172 0.499548
vt 0.000000 0.000000
vt 0.463119 0.990663
vt 0.745279 0.497890
vt 0.000000 0.502110
vt 0.609243 0.535948
vt 0.059572 0.000000
vt 0.460500 0.932103
vt 0.059572 0.502110
vt 0.607603 0.556315
vt 0.092903 0.000000
vt 0.459034 0.899337
vt 0.092903 0.502110
vt 0.606208 0.573649
vt 0.121271 0.000000
vt 0.457787 0.871452
vt 0.121271 0.502110
vt 0.455670 0.761804
vt 0.227573 0.473731
vt 0.456834 0.718841
vt 0.265476 0.442314
vt 0.460151 0.630922
vt 0.341284 0.368499
vt 0.461111 0.588370
vt 0.379187 0.339344
vt 0.462271 0.545415
vt 0.417091 0.307967
vt 0.602262 0.908068
vt 0.417091 0.194143
vt 0.602412 0.860073
vt 0.379187 0.162766
vt 0.602684 0.813837
vt 0.341284 0.133611
vt 0.602382 0.709091
vt 0.265476 0.059796
vt 0.602530 0.661065
vt 0.227573 0.028379
vt 0.604709 0.592282
vt 0.151766 0.000000
vt 0.456446 0.841475
vt 0.151766 0.502110
vt 0.890186 0.060650
vt 0.869350 0.082391
vt 0.882948 0.063563
vt 0.875322 0.071521
vt 0.890193 0.123413
vt 0.872320 0.140838
vt 0.005722 0.678099
vt 0.883352 0.125748
vt 0.876810 0.132126
vt 0.000000 0.687468
vt 0.890200 0.186177
vt 0.006606 0.636632
vt 0.883769 0.187429
vt 0.878348 0.190848
vt 0.000442 0.641837
vt 0.890207 0.248941
vt 0.006716 0.595004
vt 0.883941 0.248941
vt 0.878970 0.248942
vt 0.000497 0.596125
vt 0.890214 0.311704
vt 0.006606 0.551861
vt 0.883783 0.310454
vt 0.878360 0.307036
vt 0.000442 0.549656
vt 0.890221 0.374468
vt 0.005722 0.506564
vt 0.872344 0.357048
vt 0.883379 0.372135
vt 0.000000 0.502110
vt 0.876836 0.365758
vt 0.869387 0.415495
vt 0.890228 0.437232
vt 0.875361 0.426364
vt 0.882989 0.434320
vt 0.743354 0.991101
vt 0.455018 0.270042
vt 0.602209 0.497890
vt 0.737765 0.992919
vt 0.596315 0.498444
vt 0.757298 0.483880
vt 0.581346 0.838085
vt 0.757788 0.491945
vt 0.758187 0.497849
vt 0.588657 0.837370
vt 0.735225 0.956107
vt 0.455014 0.227936
vt 0.741054 0.957774
vt 0.729901 0.590624
vt 0.757246 0.014031
vt 0.737151 0.592321
vt 0.758132 0.000061
vt 0.757735 0.005966
vt 0.720119 0.014454
vt 0.720220 0.006180
vt 0.720334 0.000122
vt 0.735299 0.615463
vt 0.683353 0.042402
vt 0.727722 0.659407
vt 0.682888 0.034345
vt 0.682587 0.028446
vt 0.734918 0.660947
vt 0.647292 0.072753
vt 0.727574 0.707433
vt 0.645908 0.065231
vt 0.734744 0.708710
vt 0.644935 0.059724
vt 0.727876 0.812179
vt 0.568691 0.152019
vt 0.735824 0.814248
vt 0.568710 0.141776
vt 0.741942 0.820108
vt 0.727604 0.858415
vt 0.530811 0.170922
vt 0.741669 0.866333
vt 0.735552 0.860481
vt 0.727454 0.906410
vt 0.735401 0.908478
vt 0.492913 0.202308
vt 0.741519 0.914333
vt 0.587170 0.542025
vt 0.601567 0.539801
vt 0.492923 0.295661
vt 0.492978 0.303154
vt 0.595197 0.541316
vt 0.586010 0.584981
vt 0.530829 0.327039
vt 0.530884 0.334528
vt 0.594036 0.584272
vt 0.568713 0.345933
vt 0.585050 0.627533
vt 0.568734 0.356176
vt 0.568789 0.363675
vt 0.593077 0.626823
vt 0.581733 0.715452
vt 0.647331 0.425182
vt 0.644977 0.438211
vt 0.588957 0.715257
vt 0.645949 0.432704
vt 0.683399 0.455525
vt 0.580569 0.758414
vt 0.682935 0.463582
vt 0.587824 0.757952
vt 0.682636 0.469481
vt 0.720170 0.483464
vt 0.720389 0.497797
vt 0.587004 0.800202
vt 0.720273 0.491739
vt 0.787985 0.484116
vt 0.582686 0.868062
vt 0.788378 0.492061
vt 0.590026 0.867378
vt 0.788706 0.497878
vt 0.787933 0.013788
vt 0.731400 0.571991
vt 0.788325 0.005842
vt 0.738680 0.573646
vt 0.788652 0.000026
vt 0.816551 0.484220
vt 0.583934 0.895948
vt 0.816845 0.492112
vt 0.591330 0.895291
vt 0.817099 0.497889
vt 0.732796 0.554657
vt 0.816499 0.013678
vt 0.740133 0.556283
vt 0.817045 0.000008
vt 0.816791 0.005786
vt 0.849187 0.484252
vt 0.585399 0.928714
vt 0.849828 0.492126
vt 0.850337 0.497890
vt 0.592859 0.927965
vt 0.734435 0.534291
vt 0.849136 0.013638
vt 0.850282 0.000000
vt 0.741837 0.535968
vt 0.849775 0.005764
vt 0.866304 0.497890
vt 0.588018 0.987273
vt 0.881381 0.513784
vt 0.909996 0.484100
vt 0.873842 0.500019
vt 0.595990 0.986676
vt 0.879361 0.505837
vt 0.910017 0.492047
vt 0.602209 0.985465
vt 0.881381 0.984107
vt 0.909944 0.013777
vt 0.866304 1.000000
vt 0.737364 0.497890
vt 0.879361 0.992053
vt 0.909963 0.005830
vt 0.873842 0.997871
vt 0.910017 0.000013
vt 0.745279 0.499472
vt 0.727786 0.745926
vt 0.617074 0.106238
vt 0.735403 0.748062
vt 0.617722 0.088445
vt 0.740615 0.754105
vt 0.617425 0.095965
vt 0.595104 0.128243
vt 0.727875 0.777078
vt 0.595165 0.117941
vt 0.741942 0.785078
vt 0.735823 0.779166
vt 0.727830 0.755973
vt 0.610231 0.113614
vt 0.735582 0.758103
vt 0.610453 0.103258
vt 0.741164 0.764129
vt 0.727863 0.767375
vt 0.602220 0.121595
vt 0.735750 0.769477
vt 0.602320 0.111265
vt 0.741701 0.775426
vt 0.617105 0.391703
vt 0.583078 0.684075
vt 0.617459 0.401976
vt 0.617758 0.409497
vt 0.590775 0.683282
vt 0.584063 0.657919
vt 0.595131 0.369704
vt 0.595279 0.387547
vt 0.592091 0.657196
vt 0.595194 0.380005
vt 0.610261 0.384329
vt 0.583415 0.675783
vt 0.610485 0.394685
vt 0.591247 0.675018
vt 0.610688 0.402266
vt 0.602248 0.376350
vt 0.583775 0.666210
vt 0.602350 0.386680
vt 0.591742 0.665476
vt 0.602464 0.394241
vt 0.890233 0.484092
vt 0.587149 0.967845
vt 0.890254 0.492044
vt 0.601340 0.966036
vt 0.595121 0.967247
vt 0.586081 0.943959
vt 0.866590 0.484004
vt 0.866099 0.497855
vt 0.593845 0.943449
vt 0.866284 0.492001
vt 0.586793 0.959883
vt 0.882343 0.484064
vt 0.594730 0.959313
vt 0.600854 0.958176
vt 0.882259 0.492030
vt 0.586437 0.951921
vt 0.874324 0.484033
vt 0.594289 0.951362
vt 0.874149 0.497859
vt 0.600184 0.950256
vt 0.874200 0.492015
vt 0.736392 0.509967
vt 0.890181 0.013789
vt 0.890254 0.000016
vt 0.744307 0.511550
vt 0.890200 0.005838
vt 0.866539 0.013883
vt 0.735197 0.524814
vt 0.866230 0.005886
vt 0.866044 0.000031
vt 0.742904 0.526357
vt 0.882291 0.013819
vt 0.735994 0.514916
vt 0.882205 0.005853
vt 0.882183 0.000021
vt 0.743874 0.516486
vt 0.874272 0.013852
vt 0.735596 0.519865
vt 0.874146 0.005870
vt 0.874094 0.000026
vt 0.743391 0.521433
vt 0.455043 0.791661
vt 0.200889 0.493710
vt 0.455396 0.817993
vt 0.175653 0.502110
vt 0.454994 0.799784
vt 0.193401 0.497910
vt 0.455123 0.809422
vt 0.184164 0.500984
vt 0.603534 0.606878
vt 0.175653 0.000000
vt 0.602751 0.628947
vt 0.200889 0.008400
vt 0.603177 0.612970
vt 0.184164 0.001125
vt 0.602890 0.621047
vt 0.193401 0.004200
vt 0.727944 0.627289
vt 0.728726 0.605221
vt 0.735292 0.615461
vt 0.728082 0.619390
vt 0.728369 0.611312
vt 0.580296 0.814603
vt 0.579943 0.788272
vt 0.586996 0.800202
vt 0.580023 0.806032
vt 0.579894 0.796394
vt 0.602209 0.945103
vt 0.445645 0.218891
vt 0.602867 0.967023
vt 0.454994 0.239367
vt 0.602291 0.952479
vt 0.450320 0.224600
vt 0.602532 0.960502
vt 0.453742 0.232095
vt 0.604144 0.985525
vt 0.454994 0.262743
vt 0.463245 0.512853
vt 0.445645 0.283219
vt 0.464078 0.502497
vt 0.604602 0.990515
vt 0.453742 0.270015
vt 0.463554 0.507221
vt 0.450320 0.277510
vt 0.588144 0.509464
vt 0.729336 0.983867
vt 0.596308 0.498445
vt 0.737758 0.992920
vt 0.588453 0.503832
vt 0.588978 0.499107
vt 0.729794 0.988857
vt 0.728059 0.965365
vt 0.727401 0.943445
vt 0.735218 0.956106
vt 0.727724 0.958844
vt 0.727483 0.950821
s 1
usemtl Clock_Box
f 56/68/1 55/67/2 192/275/3 189/271/4
f 179/258/5 228/322/6 20/27/7 14/21/8
f 14/21/8 13/20/9 62/74/9 63/75/10
f 13/20/9 12/19/9 61/73/9 62/74/9
f 2/3/11 21/28/9 15/22/12 1/2/13
f 21/28/9 2/3/11 3/5/11 27/35/9
f 27/35/9 3/5/11 4/7/11 33/42/9
f 33/42/9 4/7/11 5/9/11 39/49/9
f 39/49/9 5/9/11 6/11/11 45/56/9
f 6/11/11 7/14/14 51/63/15 45/56/9
f 9/16/9 50/62/9 56/68/1 8/15/16
f 50/62/9 49/61/9 55/67/2 56/68/1
f 49/61/9 48/59/17 54/66/18 55/67/2
f 295/415/19 174/250/20 84/107/21 256/359/22
f 48/59/17 109/142/23 114/149/24 54/66/18
f 47/58/9 46/57/9 52/64/25 53/65/9
f 46/57/9 45/56/9 51/63/15 52/64/25
f 10/17/9 44/55/9 50/62/9 9/16/9
f 44/55/9 43/54/9 49/61/9 50/62/9
f 43/54/9 42/52/26 48/59/17 49/61/9
f 110/144/27 47/58/9 53/65/9 113/148/28
f 42/53/26 105/137/29 109/143/23 48/60/17
f 41/51/9 40/50/9 46/57/9 47/58/9
f 40/50/9 39/49/9 45/56/9 46/57/9
f 11/18/9 38/48/9 44/55/9 10/17/9
f 38/48/9 37/47/9 43/54/9 44/55/9
f 37/47/9 36/45/30 42/52/26 43/54/9
f 106/138/31 41/51/9 47/58/9 110/144/27
f 36/46/30 101/132/32 105/137/29 42/53/26
f 35/44/9 34/43/9 40/50/9 41/51/9
f 34/43/9 33/42/9 39/49/9 40/50/9
f 12/19/9 32/41/9 38/48/9 11/18/9
f 32/41/9 31/40/9 37/47/9 38/48/9
f 31/40/9 30/38/33 36/45/30 37/47/9
f 102/133/34 35/44/9 41/51/9 106/138/31
f 30/39/33 97/127/35 101/132/32 36/46/30
f 29/37/9 28/36/9 34/43/9 35/44/9
f 28/36/9 27/35/9 33/42/9 34/43/9
f 13/20/9 26/34/9 32/41/9 12/19/9
f 26/34/9 25/33/9 31/40/9 32/41/9
f 25/33/9 24/32/36 30/38/33 31/40/9
f 98/128/37 29/37/9 35/44/9 102/133/34
f 24/31/36 93/121/38 97/127/35 30/39/33
f 23/30/9 22/29/9 28/36/9 29/37/9
f 22/29/9 21/28/9 27/35/9 28/36/9
f 14/21/8 20/27/7 26/34/9 13/20/9
f 20/27/7 19/26/39 25/33/9 26/34/9
f 19/26/39 18/25/40 24/32/36 25/33/9
f 94/123/41 23/30/9 29/37/9 98/128/37
f 18/25/40 89/117/42 93/122/38 24/32/36
f 17/24/9 16/23/43 22/29/9 23/30/9
f 16/23/43 15/22/12 21/28/9 22/29/9
f 179/258/5 14/21/8 63/75/10 231/326/44
f 231/326/44 63/75/10 70/82/45 239/336/46
f 284/401/47 216/307/48 17/24/9 90/118/49
f 90/118/49 17/24/9 23/30/9 94/123/41
f 221/313/50 279/395/51 89/117/42 18/25/40
f 228/322/6 224/317/52 19/26/39 20/27/7
f 224/317/52 221/313/50 18/25/40 19/26/39
f 53/65/9 52/64/25 201/286/53
f 216/307/48 16/23/43 17/24/9
f 8/15/16 186/267/54 235/331/55 57/69/56
f 55/67/2 54/66/18 196/280/57 192/275/3
f 54/66/18 114/149/24 264/375/58 196/280/57
f 113/148/28 53/65/9 201/286/53 267/380/59
f 62/74/9 61/73/9 68/80/9 69/81/9
f 61/73/9 60/72/9 67/79/9 68/80/9
f 57/69/56 235/331/55 244/342/60 64/76/61
f 60/72/9 59/71/9 66/78/9 67/79/9
f 9/16/9 8/15/16 57/69/56 58/70/9
f 10/17/9 9/16/9 58/70/9 59/71/9
f 11/18/9 10/17/9 59/71/9 60/72/9
f 8/15/16 56/68/1 189/271/4 186/267/54
f 12/19/9 11/18/9 60/72/9 61/73/9
f 70/82/45 69/81/9 76/93/62 77/94/63
f 69/81/9 68/80/9 75/90/64 76/93/62
f 68/80/9 67/79/9 74/88/65 75/90/64
f 63/75/10 62/74/9 69/81/9 70/82/45
f 239/336/46 70/82/45 77/94/63 247/346/66
f 58/70/9 57/69/56 64/76/61 65/77/9
f 59/71/9 58/70/9 65/77/9 66/78/9
f 174/250/20 169/243/67 83/105/21 84/107/21
f 169/243/67 165/238/68 82/103/21 83/105/21
f 247/346/66 77/94/63 173/249/69 300/421/70
f 65/77/9 64/76/61 71/83/71 72/85/72
f 66/78/9 65/77/9 72/85/72 73/86/73
f 67/79/9 66/78/9 73/86/73 74/88/65
f 64/76/61 244/342/60 252/352/74 71/83/71
f 161/233/75 157/228/76 80/99/21 81/101/21
f 73/87/73 72/84/72 154/224/77 158/229/78
f 72/85/72 71/83/71 150/219/79 154/223/77
f 153/222/80 149/218/81 78/95/21 79/97/21
f 157/228/76 153/222/80 79/97/21 80/99/21
f 165/238/68 161/233/75 81/101/21 82/103/21
f 76/92/62 75/91/64 166/239/82 170/244/83
f 116/151/84 272/386/85 264/375/58 114/149/24
f 149/218/81 312/437/86 259/366/87 78/95/21
f 74/89/65 73/87/73 158/229/78 162/234/88
f 71/83/71 252/352/74 315/441/89 150/219/79
f 75/91/64 74/89/65 162/234/88 166/239/82
f 77/94/63 76/93/62 170/245/83 173/249/69
f 110/144/27 113/148/28 115/150/90 112/147/91
f 112/147/91 115/150/90 116/151/84 111/145/92
f 111/145/92 116/151/84 114/149/24 109/142/23
f 106/138/31 110/144/27 112/147/91 108/141/93
f 108/141/93 112/147/91 111/145/92 107/139/94
f 107/140/94 111/146/92 109/143/23 105/137/29
f 102/133/34 106/138/31 108/141/93 104/136/95
f 104/136/95 108/141/93 107/139/94 103/134/96
f 103/135/96 107/140/94 105/137/29 101/132/32
f 98/128/37 102/133/34 104/136/95 100/131/97
f 100/131/97 104/136/95 103/134/96 99/129/98
f 99/130/98 103/135/96 101/132/32 97/127/35
f 94/123/41 98/128/37 100/131/97 96/126/99
f 96/126/99 100/131/97 99/129/98 95/125/100
f 95/124/100 99/130/98 97/127/35 93/121/38
f 90/118/49 94/123/41 96/126/99 92/120/101
f 92/120/101 96/126/99 95/125/100 91/119/102
f 91/119/102 95/125/100 93/122/38 89/117/42
f 174/250/20 295/415/19 304/426/103 176/252/104
f 1/1/13 177/253/105 178/256/106 355/502/107 354/500/108 358/506/109 360/508/110 183/263/111 184/265/112 7/13/14 6/12/11 5/10/11 4/8/11 3/6/11 2/4/11
f 280/396/113 220/312/114 138/196/115 124/166/116
f 213/303/117 217/308/118 139/198/119 140/200/120
f 320/447/121 324/452/122 85/109/123 86/111/123
f 197/281/124 263/374/125 128/174/126 145/210/127
f 335/472/128 193/276/129 146/212/130 332/466/131
f 292/411/132 288/406/133 122/162/134 121/160/135
f 296/416/136 255/357/137 130/179/138 120/158/139
f 191/274/140 195/279/141 193/276/129 335/472/128 337/474/142
f 316/442/143 251/351/144 131/182/123 87/113/123
f 193/276/129 197/281/124 145/210/127 146/212/130
f 204/290/145 207/294/146 142/204/147 143/206/148
f 340/477/149 180/259/150 148/216/139 328/458/151
f 284/401/47 90/118/49 92/120/101 291/410/152
f 291/410/152 92/120/101 91/119/102 287/405/153
f 287/405/153 91/119/102 89/117/42 279/395/51
f 115/150/90 276/391/154 272/386/85 116/151/84
f 113/148/28 267/380/59 276/391/154 115/150/90
f 312/437/86 149/218/81 151/220/155 319/446/156
f 319/446/156 151/220/155 152/221/157 323/451/158
f 207/294/146 359/507/159 345/482/160 142/204/147
f 275/390/161 268/381/162 127/172/163 125/168/164
f 303/425/165 296/416/136 120/158/139 118/154/139
f 220/312/114 225/318/166 137/194/167 138/196/115
f 299/420/168 307/430/169 117/152/139 119/156/139
f 232/327/170 240/337/171 134/188/139 136/192/139
f 176/252/104 304/426/103 308/431/172 175/251/173
f 255/356/137 260/367/174 129/176/175 130/180/138
f 251/351/144 243/341/176 133/186/123 131/182/123
f 175/251/173 308/431/172 300/421/70 173/249/69
f 200/285/177 204/290/145 143/206/148 144/208/178
f 243/341/176 236/332/179 135/190/123 133/186/123
f 260/368/174 311/436/180 88/115/123 129/177/175
f 185/266/181 336/473/182 331/464/183 147/214/123
f 353/499/184 210/298/185 141/202/186 350/492/187
f 217/308/118 283/400/188 123/164/189 139/198/119
f 288/406/133 280/396/113 124/166/116 122/162/134
f 268/381/162 200/285/177 144/208/178 127/172/163
f 324/452/122 316/442/143 87/113/123 85/109/123
f 311/436/180 320/447/121 86/111/123 88/115/123
f 236/332/179 185/266/181 147/214/123 135/190/123
f 210/298/185 213/303/117 140/200/120 141/202/186
f 225/318/166 341/478/190 327/456/191 137/194/167
f 248/347/192 299/420/168 119/156/139 132/184/139
f 307/430/169 303/425/165 118/154/139 117/152/139
f 283/400/188 292/411/132 121/160/135 123/164/189
f 240/337/171 248/347/192 132/184/139 134/188/139
f 180/259/150 232/327/170 136/192/139 148/216/139
f 271/385/193 275/390/161 125/168/164 126/170/194
f 78/96/21 259/365/87 261/369/195 262/371/196 260/367/174 255/356/137 257/360/197 258/362/198 256/358/22 84/108/21 83/106/21 82/104/21 81/102/21 80/100/21 79/98/21
f 178/257/106 212/302/199 210/298/185 353/499/184 355/501/107
f 323/451/158 152/221/157 150/219/79 315/441/89
f 263/374/125 271/385/193 126/170/194 128/174/126
f 149/218/81 153/222/80 155/225/200 151/220/155
f 151/220/155 155/225/200 156/226/201 152/221/157
f 152/221/157 156/226/201 154/223/77 150/219/79
f 153/222/80 157/228/76 159/230/202 155/225/200
f 155/225/200 159/230/202 160/231/203 156/226/201
f 156/227/201 160/232/203 158/229/78 154/224/77
f 157/228/76 161/233/75 163/235/204 159/230/202
f 159/230/202 163/235/204 164/236/205 160/231/203
f 160/232/203 164/237/205 162/234/88 158/229/78
f 161/233/75 165/238/68 167/240/206 163/235/204
f 163/235/204 167/240/206 168/241/207 164/236/205
f 164/237/205 168/242/207 166/239/82 162/234/88
f 165/238/68 169/243/67 171/246/208 167/240/206
f 167/240/206 171/246/208 172/248/209 168/241/207
f 168/242/207 172/247/209 170/244/83 166/239/82
f 169/243/67 174/250/20 176/252/104 171/246/208
f 171/246/208 176/252/104 175/251/173 172/248/209
f 172/248/209 175/251/173 173/249/69 170/245/83
f 51/63/15 7/14/14 184/264/112 209/296/210
f 209/297/210 184/265/112 183/263/111 208/295/211
f 228/322/6 179/258/5 181/260/212 230/325/213
f 230/325/213 181/260/212 182/261/214 229/323/215
f 186/267/54 189/271/4 190/272/216 188/270/217
f 188/270/217 190/272/216 191/273/140 187/269/218
f 227/320/219 229/324/215 342/479/220 341/478/190 225/318/166
f 189/271/4 192/275/3 194/277/221 190/272/216
f 190/272/216 194/277/221 195/278/141 191/273/140
f 187/268/218 191/274/140 337/474/142 336/473/182 185/266/181
f 192/275/3 196/280/57 198/282/222 194/277/221
f 194/277/221 198/282/222 199/284/223 195/278/141
f 195/279/141 199/283/223 197/281/124 193/276/129
f 201/286/53 52/64/25 205/291/224 203/288/225
f 203/289/225 205/292/224 206/293/226 202/287/227
f 202/287/227 206/293/226 204/290/145 200/285/177
f 52/64/25 51/63/15 209/296/210 205/291/224
f 205/292/224 209/297/210 208/295/211 206/293/226
f 206/293/226 208/295/211 207/294/146 204/290/145
f 1/2/13 15/22/12 211/300/228 177/254/105
f 177/255/105 211/299/228 212/302/199 178/257/106
f 208/295/211 183/263/111 360/508/110 359/507/159 207/294/146
f 15/22/12 16/23/43 214/304/229 211/300/228
f 211/300/228 214/304/229 215/305/230 212/301/199
f 212/302/199 215/306/230 213/303/117 210/298/185
f 16/23/43 216/307/48 218/309/231 214/304/229
f 214/304/229 218/309/231 219/310/232 215/305/230
f 215/306/230 219/311/232 217/308/118 213/303/117
f 221/313/50 224/317/52 226/319/233 223/316/234
f 223/316/234 226/319/233 227/321/219 222/314/235
f 222/315/235 227/320/219 225/318/166 220/312/114
f 224/317/52 228/322/6 230/325/213 226/319/233
f 226/319/233 230/325/213 229/323/215 227/321/219
f 229/324/215 182/262/214 180/259/150 340/477/149 342/479/220
f 244/342/60 235/331/55 237/333/236 246/345/237
f 246/345/237 237/333/236 238/335/238 245/344/239
f 245/343/239 238/334/238 236/332/179 243/341/176
f 179/258/5 231/326/44 233/328/240 181/260/212
f 181/260/212 233/328/240 234/330/241 182/261/214
f 182/262/214 234/329/241 232/327/170 180/259/150
f 185/266/181 236/332/179 238/334/238 187/268/218
f 187/269/218 238/335/238 237/333/236 188/270/217
f 188/270/217 237/333/236 235/331/55 186/267/54
f 240/337/171 232/327/170 234/329/241 242/339/242
f 242/340/242 234/330/241 233/328/240 241/338/243
f 241/338/243 233/328/240 231/326/44 239/336/46
f 248/347/192 240/337/171 242/339/242 250/350/244
f 250/349/244 242/340/242 241/338/243 249/348/245
f 249/348/245 241/338/243 239/336/46 247/346/66
f 243/341/176 251/351/144 253/354/246 245/343/239
f 245/344/239 253/353/246 254/355/247 246/345/237
f 246/345/237 254/355/247 252/352/74 244/342/60
f 292/411/132 283/400/188 285/403/248 294/413/249
f 294/414/249 285/402/248 286/404/250 293/412/251
f 293/412/251 286/404/250 284/401/47 291/410/152
f 288/406/133 292/411/132 294/413/249 290/408/252
f 290/409/252 294/414/249 293/412/251 289/407/253
f 289/407/253 293/412/251 291/410/152 287/405/153
f 280/396/113 288/406/133 290/408/252 282/399/254
f 282/398/254 290/409/252 289/407/253 281/397/255
f 281/397/255 289/407/253 287/405/153 279/395/51
f 276/391/154 267/380/59 269/382/256 278/393/257
f 278/394/257 269/383/256 270/384/258 277/392/259
f 277/392/259 270/384/258 268/381/162 275/390/161
f 272/386/85 276/391/154 278/393/257 274/388/260
f 274/389/260 278/394/257 277/392/259 273/387/261
f 273/387/261 277/392/259 275/390/161 271/385/193
f 264/375/58 272/386/85 274/388/260 266/379/262
f 266/378/262 274/389/260 273/387/261 265/376/263
f 265/376/263 273/387/261 271/385/193 263/374/125
f 312/437/86 319/446/156 321/448/264 314/440/265
f 314/440/265 321/448/264 322/449/266 313/438/267
f 313/439/267 322/450/266 320/447/121 311/436/180
f 319/446/156 323/451/158 325/453/268 321/448/264
f 321/448/264 325/453/268 326/454/269 322/449/266
f 322/450/266 326/455/269 324/452/122 320/447/121
f 323/451/158 315/441/89 317/443/270 325/453/268
f 325/453/268 317/443/270 318/444/271 326/454/269
f 326/455/269 318/445/271 316/442/143 324/452/122
f 296/416/136 303/425/165 305/427/272 298/419/273
f 298/419/273 305/427/272 306/428/274 297/418/275
f 297/417/275 306/429/274 304/426/103 295/415/19
f 303/425/165 307/430/169 309/432/276 305/427/272
f 305/427/272 309/432/276 310/434/277 306/428/274
f 306/429/274 310/435/277 308/431/172 304/426/103
f 307/430/169 299/420/168 301/423/278 309/432/276
f 309/433/276 301/422/278 302/424/279 310/435/277
f 310/435/277 302/424/279 300/421/70 308/431/172
f 216/307/48 284/401/47 286/404/250 218/309/231
f 218/309/231 286/404/250 285/402/248 219/310/232
f 219/311/232 285/403/248 283/400/188 217/308/118
f 279/395/51 221/313/50 223/316/234 281/397/255
f 281/397/255 223/316/234 222/314/235 282/398/254
f 282/399/254 222/315/235 220/312/114 280/396/113
f 263/374/125 197/281/124 199/283/223 265/376/263
f 265/377/263 199/284/223 198/282/222 266/379/262
f 266/379/262 198/282/222 196/280/57 264/375/58
f 267/380/59 201/286/53 203/288/225 269/382/256
f 269/383/256 203/289/225 202/287/227 270/384/258
f 270/384/258 202/287/227 200/285/177 268/381/162
f 295/415/19 256/359/22 258/363/198 297/417/275
f 297/418/275 258/364/198 257/361/197 298/419/273
f 298/419/273 257/361/197 255/357/137 296/416/136
f 247/346/66 300/421/70 302/424/279 249/348/245
f 249/348/245 302/424/279 301/422/278 250/349/244
f 250/350/244 301/423/278 299/420/168 248/347/192
f 259/366/87 312/437/86 314/440/265 261/370/195
f 261/370/195 314/440/265 313/438/267 262/372/196
f 262/373/196 313/439/267 311/436/180 260/368/174
f 315/441/89 252/352/74 254/355/247 317/443/270
f 317/443/270 254/355/247 253/353/246 318/444/271
f 318/445/271 253/354/246 251/351/144 316/442/143
f 335/472/128 338/475/280 337/474/142
f 338/475/280 339/476/281 337/474/142
f 339/476/281 336/473/182 337/474/142
f 340/477/149 343/480/282 342/479/220
f 343/480/282 344/481/283 342/479/220
f 344/481/283 341/478/190 342/479/220
f 331/464/183 336/473/182 339/476/281 333/468/284
f 333/468/284 339/476/281 338/475/280 334/470/285
f 334/470/285 338/475/280 335/472/128 332/466/131
f 327/456/191 341/478/190 344/481/283 329/460/286
f 329/460/286 344/481/283 343/480/282 330/462/287
f 330/462/287 343/480/282 340/477/149 328/458/151
f 358/506/109 354/500/108 349/490/288 346/484/289
f 353/499/184 356/503/290 355/501/107
f 356/503/290 357/504/291 355/501/107
f 357/505/291 354/500/108 355/502/107
f 358/506/109 361/509/292 360/508/110
f 361/509/292 362/510/293 360/508/110
f 362/510/293 359/507/159 360/508/110
f 353/499/184 350/492/187 352/497/294 356/503/290
f 356/503/290 352/497/294 351/494/295 357/504/291
f 357/505/291 351/495/295 349/490/288 354/500/108
f 358/506/109 346/484/289 348/488/296 361/509/292
f 361/509/292 348/488/296 347/486/297 362/510/293
f 362/510/293 347/486/297 345/482/160 359/507/159
f 345/483/160 347/487/297 348/489/296 346/485/289 349/491/288 351/496/295 352/498/294 350/493/187 141/203/186 140/201/120 139/199/119 123/165/189 121/161/135 122/163/134 124/167/116 138/197/115 137/195/167 327/457/191 329/461/286 330/463/287 328/459/151 148/217/139 136/193/139 134/189/139 132/185/139 119/157/139 117/153/139 118/155/139 120/159/139 130/181/138 129/178/175 88/116/123 86/112/123 85/110/123 87/114/123 131/183/123 133/187/123 135/191/123 147/215/123 331/465/183 333/469/284 334/471/285 332/467/131 146/213/130 145/211/127 128/175/126 126/171/194 125/169/164 127/173/163 144/209/178 143/207/148 142/205/147
