# Blender 3.5.0
# www.blender.org
mtllib Books.mtl
g Book_1_Plane
v -4.156330 -0.243485 1.000000
v -4.156330 0.220247 1.000000
v -4.156330 -0.243485 -1.000000
v -4.156330 0.220247 -1.000000
v -5.476597 -0.238445 1.000000
v -5.476597 -0.238445 -1.000000
v -5.476597 0.217889 1.000000
v -5.476597 0.217889 -1.000000
v -5.508383 0.141834 -1.000000
v -5.525498 0.065778 -1.000000
v -5.540169 -0.010278 -1.000000
v -5.525498 -0.086333 -1.000000
v -5.508383 -0.162389 -1.000000
v -5.508383 -0.162389 1.000000
v -5.525498 -0.086333 1.000000
v -5.540169 -0.010278 1.000000
v -5.525498 0.065778 1.000000
v -5.508383 0.141834 1.000000
v -4.156301 -0.218660 -1.000000
v -4.156301 -0.218660 1.000000
v -5.470559 0.195645 1.000000
v -4.156316 0.195422 1.000000
v -4.156316 0.195422 -1.000000
v -5.470552 -0.216207 -1.000000
v -5.470552 -0.216207 1.000000
v -5.496585 -0.150039 -1.000000
v -5.496585 0.129483 1.000000
v -5.470559 0.195645 -1.000000
v -5.496585 0.129483 -1.000000
v -5.512790 0.056937 -1.000000
v -5.526568 -0.010278 -1.000000
v -5.512790 -0.077492 -1.000000
v -5.496585 -0.150039 1.000000
v -5.512790 -0.077492 1.000000
v -5.526568 -0.010278 1.000000
v -5.512790 0.056937 1.000000
v -4.156330 -0.243485 0.939264
v -4.156330 0.220247 0.939264
v -5.476597 -0.238445 0.939265
v -5.476597 0.217889 0.939265
v -5.508383 -0.162389 0.939265
v -5.525498 -0.086333 0.939265
v -5.540169 -0.010278 0.939265
v -5.525498 0.065778 0.939265
v -5.508383 0.141834 0.939265
v -4.156301 -0.218660 0.939264
v -4.156316 0.195422 0.939264
v -5.470552 -0.216207 0.939265
v -5.470559 0.195645 0.939265
v -5.496585 -0.150039 0.939265
v -5.512790 -0.077492 0.939265
v -5.526568 -0.010278 0.939265
v -5.512790 0.056937 0.939265
v -5.496585 0.129483 0.939265
v -4.156330 0.220247 -0.922272
v -5.476597 -0.238445 -0.922272
v -5.476597 0.217889 -0.922272
v -5.508383 -0.162389 -0.922272
v -5.525498 -0.086333 -0.922272
v -5.540169 -0.010278 -0.922272
v -5.525498 0.065778 -0.922272
v -5.508383 0.141834 -0.922272
v -4.156316 0.195422 -0.922272
v -5.470552 -0.216207 -0.922272
v -5.470559 0.195645 -0.922272
v -5.496585 -0.150039 -0.922272
v -5.512790 -0.077492 -0.922272
v -5.526568 -0.010278 -0.922272
v -5.512790 0.056937 -0.922272
v -5.496585 0.129483 -0.922272
v -4.156330 -0.243485 -0.922272
v -4.156301 -0.218660 -0.922272
v -4.242243 -0.243157 -1.000000
v -4.242243 -0.243157 1.000000
v -4.241823 -0.218500 -1.000000
v -4.241823 -0.218500 1.000000
v -4.241823 -0.218500 0.939264
v -4.242243 -0.243157 0.939264
v -4.241823 -0.218500 -0.922272
v -4.242243 -0.243157 -0.922272
v -4.224002 0.220126 1.000000
v -4.224002 0.220126 -1.000000
v -4.223680 0.195433 1.000000
v -4.223680 0.195433 -1.000000
v -4.223680 0.195433 0.939264
v -4.224002 0.220126 0.939264
v -4.223680 0.195433 -0.922272
v -4.224002 0.220126 -0.922272
vn 0.0018 -1.0000 -0.0000
vn 0.0013 -0.7071 0.7071
vn -0.5767 -0.5781 0.5773
vn -0.7063 -0.7079 -0.0000
vn 0.0038 1.0000 -0.0000
vn 0.0027 0.7071 0.7071
vn 0.4441 0.6642 0.6013
vn 0.5558 0.8313 -0.0000
vn 0.9528 -0.3037 -0.0000
vn 0.6914 -0.2204 0.6880
vn 0.4435 -0.6647 0.6012
vn 0.5550 -0.8319 -0.0000
vn 0.6914 0.2204 0.6880
vn 0.9528 0.3037 -0.0000
vn 0.6955 0.1453 0.7037
vn 0.9789 0.2045 -0.0000
vn 0.7452 -0.0000 0.6669
vn 1.0000 -0.0000 -0.0000
vn 0.6955 -0.1453 0.7037
vn 0.9789 -0.2045 -0.0000
vn 0.2383 0.9431 0.2318
vn -0.7072 0.7070 -0.0000
vn -0.5775 0.5773 0.5773
vn 0.0001 0.7071 0.7071
vn 0.2312 -0.9430 0.2394
vn -0.5493 -0.8048 0.2246
vn -0.2898 -0.4245 0.8578
vn -0.0013 -0.7071 0.7071
vn -0.8631 0.2644 -0.4304
vn -0.5486 0.8054 0.2244
vn -0.2891 0.4245 0.8581
vn -0.6586 0.2018 0.7250
vn -0.8631 -0.2644 -0.4303
vn -0.6586 -0.2018 0.7250
vn -0.8756 -0.1875 -0.4452
vn -0.6895 -0.1477 0.7091
vn -0.9137 -0.0000 -0.4063
vn -0.6555 -0.0000 0.7552
vn -0.8756 0.1875 -0.4452
vn -0.6895 0.1477 0.7091
vn 0.0013 -0.7071 -0.7071
vn -0.5767 -0.5781 -0.5773
vn -0.5775 0.5773 -0.5773
vn 0.0001 0.7071 -0.7071
vn 0.6914 0.2204 -0.6880
vn 0.6955 0.1453 -0.7037
vn -0.6895 -0.1477 -0.7091
vn -0.6586 -0.2018 -0.7250
vn 0.7452 -0.0000 -0.6669
vn -0.6555 -0.0000 -0.7552
vn -0.5760 0.5789 0.5772
vn -0.5782 -0.5765 0.5774
vn 0.6955 -0.1453 -0.7037
vn -0.6895 0.1477 -0.7091
vn 0.0027 0.7071 -0.7071
vn 0.4441 0.6642 -0.6013
vn -0.2898 -0.4245 -0.8578
vn -0.0013 -0.7071 -0.7071
vn 0.6914 -0.2204 -0.6880
vn -0.6586 0.2018 -0.7250
vn 0.4435 -0.6647 -0.6012
vn -0.2891 0.4245 -0.8581
vn -0.7054 0.7089 -0.0000
vn -0.5760 0.5789 -0.5772
vn -0.5782 -0.5765 -0.5774
vn -0.7082 -0.7060 -0.0000
vn -0.5279 -0.7734 -0.3510
vn -0.5271 0.7740 -0.3508
vn 0.2312 -0.9430 -0.2394
vn 0.2383 0.9431 -0.2318
vt 0.057380 0.061286
vt 0.866137 0.073903
vt 0.057380 0.872308
vt 0.866339 0.867187
vt 0.868401 0.872308
vt 0.409919 0.061286
vt 0.409919 0.872308
vt 0.511296 0.061286
vt 0.510320 0.068288
vt 0.511296 0.872308
vt 0.511347 0.866911
vt 0.494400 0.872308
vt 0.477504 0.872308
vt 0.460607 0.872308
vt 0.443711 0.872308
vt 0.426815 0.872308
vt 0.426815 0.061286
vt 0.443711 0.061286
vt 0.460607 0.061286
vt 0.477504 0.061286
vt 0.494400 0.061286
vt 0.057380 0.872308
vt 0.057380 0.061286
vt 0.511296 0.061286
vt 0.510320 0.068288
vt 0.866137 0.073903
vt 0.868401 0.061286
vt 0.866339 0.867187
vt 0.868401 0.872308
vt 0.409919 0.872308
vt 0.409919 0.061286
vt 0.426815 0.872308
vt 0.494400 0.061286
vt 0.511296 0.872308
vt 0.494400 0.872308
vt 0.477504 0.872308
vt 0.460607 0.872308
vt 0.443711 0.872308
vt 0.426815 0.061286
vt 0.443711 0.061286
vt 0.460607 0.061286
vt 0.477504 0.061286
vt 0.057380 0.085915
vt 0.866870 0.097768
vt 0.443328 0.084297
vt 0.409919 0.085915
vt 0.511296 0.085915
vt 0.506002 0.084297
vt 0.510407 0.088625
vt 0.426815 0.085915
vt 0.453774 0.084297
vt 0.443711 0.085915
vt 0.464219 0.084297
vt 0.460607 0.085915
vt 0.474665 0.084297
vt 0.477504 0.085915
vt 0.485111 0.084297
vt 0.494400 0.085915
vt 0.495557 0.084297
vt 0.057380 0.085915
vt 0.866870 0.097768
vt 0.868401 0.085915
vt 0.409919 0.085915
vt 0.934869 0.567903
vt 0.511296 0.085915
vt 0.990768 0.567906
vt 0.426815 0.085915
vt 0.943850 0.578608
vt 0.443711 0.085915
vt 0.953696 0.585271
vt 0.460607 0.085915
vt 0.962819 0.590937
vt 0.477504 0.085915
vt 0.971942 0.585271
vt 0.494400 0.085915
vt 0.981788 0.578608
vt 0.866532 0.840187
vt 0.443328 0.839170
vt 0.409919 0.840788
vt 0.511296 0.840788
vt 0.506002 0.839170
vt 0.510947 0.840952
vt 0.426815 0.840788
vt 0.453774 0.839170
vt 0.443711 0.840788
vt 0.464219 0.839170
vt 0.460607 0.840788
vt 0.474665 0.839170
vt 0.477504 0.840788
vt 0.485111 0.839170
vt 0.494400 0.840788
vt 0.495557 0.839170
vt 0.866532 0.840187
vt 0.868401 0.840788
vt 0.409919 0.840788
vt 0.934869 0.567903
vt 0.511296 0.840788
vt 0.990768 0.567906
vt 0.426815 0.840788
vt 0.943850 0.578608
vt 0.443711 0.840788
vt 0.953696 0.585271
vt 0.460607 0.840788
vt 0.962819 0.590937
vt 0.477504 0.840788
vt 0.971942 0.585271
vt 0.494400 0.840788
vt 0.981788 0.578608
vt 0.057380 0.840788
vt 0.057380 0.840788
vt 0.080321 0.872307
vt 0.080321 0.061286
vt 0.080321 0.872308
vt 0.080321 0.061286
vt 0.080321 0.085915
vt 0.934558 0.115801
vt 0.934558 0.062656
vt 0.080321 0.085915
vt 0.080321 0.840788
vt 0.934558 0.062656
vt 0.934558 0.881254
vt 0.080321 0.840788
vt 0.848397 0.073537
vt 0.850097 0.872308
vt 0.848162 0.866911
vt 0.850097 0.061286
vt 0.848397 0.073537
vt 0.850097 0.872308
vt 0.850097 0.085915
vt 0.990739 0.115801
vt 0.990739 0.055196
vt 0.848293 0.097536
vt 0.850097 0.840788
vt 0.990739 0.055196
vt 0.990739 0.881254
vt 0.844668 0.840913
s 1
usemtl Book_1
f 88/136/1 82/125/2 4/4/3 55/77/4
f 80/122/5 73/111/6 6/7/7 56/79/8
f 62/91/9 9/12/10 8/10/11 57/80/12
f 56/79/8 6/7/7 13/16/13 58/83/14
f 58/83/14 13/16/13 12/15/15 59/85/16
f 59/85/16 12/15/15 11/14/17 60/87/18
f 60/87/18 11/14/17 10/13/19 61/89/20
f 61/89/20 10/13/19 9/12/10 62/91/9
f 87/133/21 63/94/22 23/29/23 84/128/24
f 79/119/25 64/95/26 24/30/27 75/113/28
f 70/107/29 65/97/30 28/34/31 29/35/32
f 64/95/26 66/99/33 26/32/34 24/30/27
f 66/99/33 67/101/35 32/38/36 26/32/34
f 67/101/35 68/103/37 31/37/38 32/38/36
f 68/103/37 69/105/39 30/36/40 31/37/38
f 69/105/39 70/107/29 29/35/32 30/36/40
f 81/123/41 2/2/42 22/26/43 83/127/44
f 14/17/45 15/18/46 34/40/47 33/39/48
f 55/77/4 4/4/3 23/28/23 63/93/22
f 15/18/46 16/19/49 35/41/50 34/40/47
f 8/10/11 9/12/10 29/35/32 28/34/31
f 73/111/6 3/3/51 19/22/52 75/113/28
f 16/19/49 17/20/53 36/42/54 35/41/50
f 9/12/10 10/13/19 30/36/40 29/35/32
f 74/112/55 5/6/56 25/31/57 76/114/58
f 17/20/53 18/21/59 27/33/60 36/42/54
f 10/13/19 11/14/17 31/37/38 30/36/40
f 13/16/13 6/7/7 24/30/27 26/32/34
f 11/14/17 12/15/15 32/38/36 31/37/38
f 12/15/15 13/16/13 26/32/34 32/38/36
f 18/21/59 7/8/61 21/24/62 27/33/60
f 37/43/63 1/1/64 20/23/65 46/60/66
f 5/6/56 14/17/45 33/39/48 25/31/57
f 82/124/2 8/10/11 28/34/31 84/128/24
f 71/109/63 37/43/63 46/60/66 72/110/66
f 2/2/42 38/44/4 47/61/22 22/26/43
f 36/42/54 27/33/60 54/75/29 53/73/39
f 35/41/50 36/42/54 53/73/39 52/71/37
f 34/40/47 35/41/50 52/71/37 51/69/35
f 33/39/48 34/40/47 51/69/35 50/67/33
f 25/31/57 33/39/48 50/67/33 48/63/67
f 27/33/60 21/24/62 49/65/68 54/75/29
f 76/114/58 25/31/57 48/63/67 77/115/69
f 83/126/44 22/27/43 47/62/22 85/129/70
f 17/20/53 44/56/20 45/58/9 18/21/59
f 16/19/49 43/54/18 44/56/20 17/20/53
f 15/18/46 42/52/16 43/54/18 16/19/49
f 14/17/45 41/50/14 42/52/16 15/18/46
f 5/6/56 39/46/8 41/50/14 14/17/45
f 18/21/59 45/58/9 40/47/12 7/8/61
f 74/112/55 78/118/5 39/46/8 5/6/56
f 81/123/41 86/132/1 38/44/4 2/2/42
f 3/3/51 71/109/63 72/110/66 19/22/52
f 38/44/4 55/77/4 63/93/22 47/61/22
f 53/73/39 54/75/29 70/107/29 69/105/39
f 52/71/37 53/73/39 69/105/39 68/103/37
f 51/69/35 52/71/37 68/103/37 67/101/35
f 50/67/33 51/69/35 67/101/35 66/99/33
f 48/63/67 50/67/33 66/99/33 64/95/26
f 54/75/29 49/65/68 65/97/30 70/107/29
f 77/115/69 48/63/67 64/95/26 79/119/25
f 85/129/70 47/62/22 63/94/22 87/133/21
f 44/57/20 61/90/20 62/92/9 45/59/9
f 43/55/18 60/88/18 61/90/20 44/57/20
f 42/53/16 59/86/16 60/88/18 43/55/18
f 41/51/14 58/84/14 59/86/16 42/53/16
f 39/45/8 56/78/8 58/84/14 41/51/14
f 45/59/9 62/92/9 57/81/12 40/48/12
f 78/118/5 80/122/5 56/79/8 39/46/8
f 86/132/1 88/136/1 55/77/4 38/44/4
f 37/43/63 71/109/63 80/122/5 78/118/5
f 46/60/66 77/115/69 79/119/25 72/110/66
f 1/1/64 37/43/63 78/118/5 74/112/55
f 20/23/65 76/114/58 77/115/69 46/60/66
f 1/1/64 74/112/55 76/114/58 20/23/65
f 6/7/7 73/111/6 75/113/28 24/30/27
f 72/110/66 79/119/25 75/113/28 19/22/52
f 71/109/63 3/3/51 73/111/6 80/122/5
f 40/49/12 57/82/12 88/136/1 86/132/1
f 49/65/68 85/129/70 87/133/21 65/97/30
f 7/9/61 40/49/12 86/132/1 81/123/41
f 21/24/62 83/126/44 85/129/70 49/65/68
f 4/5/3 82/124/2 84/128/24 23/29/23
f 7/9/61 81/123/41 83/127/44 21/25/62
f 65/97/30 87/133/21 84/128/24 28/34/31
f 57/82/12 8/11/11 82/125/2 88/136/1
f 79/120/25 87/134/21 65/98/30 64/96/26
f 54/76/29 49/66/68 48/64/67
f 50/68/33 54/76/29 48/64/67
f 66/100/33 70/108/29 64/96/26
f 70/108/29 65/98/30 64/96/26
f 54/76/29 50/68/33 51/70/35
f 70/108/29 66/100/33 67/102/35
f 53/74/39 54/76/29 51/70/35
f 69/106/39 70/108/29 67/102/35
f 53/74/39 51/70/35 52/72/37
f 69/106/39 67/102/35 68/104/37
f 77/116/69 79/121/25 87/135/21 85/130/70
f 77/117/69 48/64/67 49/66/68 85/131/70
g Book_2_Plane.001
v -2.560888 -0.169383 0.695661
v -2.560888 0.153217 0.695661
v -2.560888 -0.169383 -0.695661
v -2.560888 0.153217 -0.695661
v -3.479346 -0.165877 0.695661
v -3.479346 -0.165877 -0.695661
v -3.479346 0.151577 0.695661
v -3.479346 0.151577 -0.695661
v -3.501458 0.098668 -0.695661
v -3.513365 0.045759 -0.695661
v -3.523570 -0.007150 -0.695661
v -3.513365 -0.060059 -0.695661
v -3.501458 -0.112968 -0.695661
v -3.501458 -0.112968 0.695661
v -3.513365 -0.060059 0.695661
v -3.523570 -0.007150 0.695661
v -3.513365 0.045759 0.695661
v -3.501458 0.098668 0.695661
v -2.560868 -0.152113 -0.695661
v -2.560868 -0.152113 0.695661
v -3.475146 0.136103 0.695661
v -2.560878 0.135947 0.695661
v -2.560878 0.135947 -0.695661
v -3.475141 -0.150407 -0.695661
v -3.475141 -0.150407 0.695661
v -3.493251 -0.104376 -0.695661
v -3.493251 0.090076 0.695661
v -3.475146 0.136103 -0.695661
v -3.493251 0.090076 -0.695661
v -3.504524 0.039609 -0.695661
v -3.514109 -0.007150 -0.695661
v -3.504524 -0.053908 -0.695661
v -3.493251 -0.104376 0.695661
v -3.504524 -0.053908 0.695661
v -3.514109 -0.007150 0.695661
v -3.504524 0.039609 0.695661
v -2.560888 -0.169383 0.653409
v -2.560888 0.153217 0.653409
v -3.479346 -0.165877 0.653409
v -3.479346 0.151577 0.653409
v -3.501458 -0.112968 0.653409
v -3.513365 -0.060059 0.653409
v -3.523570 -0.007150 0.653409
v -3.513365 0.045759 0.653409
v -3.501458 0.098668 0.653409
v -2.560868 -0.152113 0.653409
v -2.560878 0.135947 0.653409
v -3.475141 -0.150407 0.653409
v -3.475146 0.136103 0.653409
v -3.493251 -0.104376 0.653409
v -3.504524 -0.053908 0.653409
v -3.514109 -0.007150 0.653409
v -3.504524 0.039609 0.653409
v -3.493251 0.090076 0.653409
v -2.560888 0.153217 -0.641589
v -3.479346 -0.165877 -0.641589
v -3.479346 0.151577 -0.641589
v -3.501458 -0.112968 -0.641589
v -3.513365 -0.060059 -0.641589
v -3.523570 -0.007150 -0.641589
v -3.513365 0.045759 -0.641589
v -3.501458 0.098668 -0.641589
v -2.560878 0.135947 -0.641589
v -3.475141 -0.150407 -0.641589
v -3.475146 0.136103 -0.641589
v -3.493251 -0.104376 -0.641589
v -3.504524 -0.053908 -0.641589
v -3.514109 -0.007150 -0.641589
v -3.504524 0.039609 -0.641589
v -3.493251 0.090076 -0.641589
v -2.560888 -0.169383 -0.641589
v -2.560868 -0.152113 -0.641589
v -2.620654 -0.169155 -0.695661
v -2.620654 -0.169155 0.695661
v -2.620362 -0.152002 -0.695661
v -2.620362 -0.152002 0.695661
v -2.620362 -0.152002 0.653409
v -2.620654 -0.169155 0.653409
v -2.620362 -0.152002 -0.641589
v -2.620654 -0.169155 -0.641589
v -2.607965 0.153133 0.695661
v -2.607965 0.153133 -0.695661
v -2.607741 0.135955 0.695661
v -2.607741 0.135955 -0.695661
v -2.607741 0.135955 0.653409
v -2.607965 0.153133 0.653409
v -2.607741 0.135955 -0.641589
v -2.607965 0.153133 -0.641589
vn 0.0018 -1.0000 -0.0000
vn 0.0013 -0.7071 0.7071
vn -0.5767 -0.5781 0.5773
vn -0.7063 -0.7079 -0.0000
vn 0.0038 1.0000 -0.0000
vn 0.0027 0.7071 0.7071
vn 0.4441 0.6642 0.6013
vn 0.5558 0.8313 -0.0000
vn 0.9528 -0.3037 -0.0000
vn 0.6914 -0.2204 0.6880
vn 0.4435 -0.6647 0.6012
vn 0.5550 -0.8319 -0.0000
vn 0.6914 0.2204 0.6880
vn 0.9528 0.3037 -0.0000
vn 0.6955 0.1453 0.7037
vn 0.9789 0.2045 -0.0000
vn 0.7452 -0.0000 0.6669
vn 1.0000 -0.0000 -0.0000
vn 0.6955 -0.1453 0.7037
vn 0.9789 -0.2045 -0.0000
vn 0.2383 0.9431 0.2318
vn -0.7072 0.7070 -0.0000
vn -0.5775 0.5773 0.5773
vn 0.0001 0.7071 0.7071
vn 0.2312 -0.9430 0.2394
vn -0.5493 -0.8048 0.2246
vn -0.2898 -0.4245 0.8578
vn -0.0013 -0.7071 0.7071
vn -0.8631 0.2644 -0.4304
vn -0.5486 0.8054 0.2244
vn -0.2891 0.4245 0.8581
vn -0.6586 0.2018 0.7250
vn -0.8631 -0.2644 -0.4303
vn -0.6586 -0.2018 0.7250
vn -0.8756 -0.1875 -0.4452
vn -0.6895 -0.1477 0.7091
vn -0.9137 -0.0000 -0.4063
vn -0.6555 -0.0000 0.7552
vn -0.8756 0.1875 -0.4452
vn -0.6895 0.1477 0.7091
vn 0.0013 -0.7071 -0.7071
vn -0.5767 -0.5781 -0.5773
vn -0.5775 0.5773 -0.5773
vn 0.0001 0.7071 -0.7071
vn 0.6914 0.2204 -0.6880
vn 0.6955 0.1453 -0.7037
vn -0.6895 -0.1477 -0.7091
vn -0.6586 -0.2018 -0.7250
vn 0.7452 -0.0000 -0.6669
vn -0.6555 -0.0000 -0.7552
vn -0.5760 0.5789 0.5772
vn -0.5782 -0.5765 0.5774
vn 0.6955 -0.1453 -0.7037
vn -0.6895 0.1477 -0.7091
vn 0.0027 0.7071 -0.7071
vn 0.4441 0.6642 -0.6013
vn -0.2898 -0.4245 -0.8578
vn -0.0013 -0.7071 -0.7071
vn 0.6914 -0.2204 -0.6880
vn -0.6586 0.2018 -0.7250
vn 0.4435 -0.6647 -0.6012
vn -0.2891 0.4245 -0.8581
vn -0.7054 0.7089 -0.0000
vn -0.5760 0.5789 -0.5772
vn -0.5782 -0.5765 -0.5774
vn -0.7082 -0.7060 -0.0000
vn -0.5279 -0.7734 -0.3510
vn -0.5271 0.7740 -0.3508
vn 0.2312 -0.9430 -0.2394
vn 0.2383 0.9431 -0.2318
vt 0.066377 0.110671
vt 0.776133 0.110671
vt 0.473590 0.472734
vt 0.340723 0.191304
vt 0.066377 0.820427
vt 0.340723 0.754779
vt 0.120097 0.472734
vt 0.776133 0.820427
vt 0.383121 0.176467
vt 0.374897 0.110671
vt 0.383121 0.754631
vt 0.374897 0.820427
vt 0.455392 0.176467
vt 0.107371 0.191304
vt 0.463617 0.110671
vt 0.455392 0.754631
vt 0.463617 0.820427
vt 0.107371 0.754779
vt 0.443347 0.754631
vt 0.448830 0.820427
vt 0.431302 0.754631
vt 0.434043 0.820427
vt 0.419257 0.754631
vt 0.419257 0.820427
vt 0.407212 0.754631
vt 0.404470 0.820427
vt 0.395167 0.754631
vt 0.389684 0.820427
vt 0.389684 0.110671
vt 0.395167 0.176467
vt 0.404470 0.110671
vt 0.407212 0.176467
vt 0.419257 0.110671
vt 0.419257 0.176467
vt 0.434043 0.110671
vt 0.431302 0.176467
vt 0.448830 0.110671
vt 0.443347 0.176467
vt 0.066377 0.820427
vt 0.066377 0.110671
vt 0.463617 0.110671
vt 0.473590 0.465740
vt 0.776133 0.110671
vt 0.120097 0.465740
vt 0.776133 0.820427
vt 0.374897 0.820427
vt 0.374897 0.110671
vt 0.389684 0.820427
vt 0.448830 0.110671
vt 0.463617 0.820427
vt 0.448830 0.820427
vt 0.434043 0.820427
vt 0.419257 0.820427
vt 0.404470 0.820427
vt 0.389684 0.110671
vt 0.029008 0.104915
vt 0.404470 0.110671
vt 0.419257 0.110671
vt 0.838109 0.104915
vt 0.434043 0.110671
vt 0.066377 0.132224
vt 0.462855 0.472734
vt 0.340723 0.208416
vt 0.383121 0.194024
vt 0.374897 0.132224
vt 0.455392 0.194024
vt 0.438918 0.141974
vt 0.107371 0.208416
vt 0.395167 0.194024
vt 0.407212 0.194024
vt 0.419257 0.194024
vt 0.431302 0.194024
vt 0.443347 0.194024
vt 0.066377 0.132224
vt 0.462855 0.465740
vt 0.776133 0.132224
vt 0.374897 0.132224
vt 0.866249 0.528834
vt 0.463617 0.132224
vt 0.992450 0.528836
vt 0.389684 0.132224
vt 0.886524 0.536811
vt 0.029008 0.836026
vt 0.404470 0.132224
vt 0.908754 0.541777
vt 0.838109 0.836026
vt 0.419257 0.132224
vt 0.929350 0.545999
vt 0.434043 0.132224
vt 0.949947 0.541777
vt 0.448830 0.132224
vt 0.972177 0.536811
vt 0.133835 0.472734
vt 0.340723 0.732880
vt 0.383121 0.732162
vt 0.374897 0.792843
vt 0.455392 0.732162
vt 0.444879 0.790949
vt 0.107371 0.732880
vt 0.395167 0.732162
vt 0.407212 0.732162
vt 0.419257 0.732162
vt 0.431302 0.732162
vt 0.443347 0.732162
vt 0.133835 0.465740
vt 0.776133 0.792843
vt 0.374897 0.792843
vt 0.866249 0.528834
vt 0.463617 0.792843
vt 0.992450 0.528836
vt 0.389684 0.792843
vt 0.886524 0.536811
vt 0.404470 0.792843
vt 0.908754 0.541777
vt 0.419257 0.792843
vt 0.929350 0.545999
vt 0.434043 0.792843
vt 0.949947 0.541777
vt 0.448830 0.792843
vt 0.972177 0.536811
vt 0.066377 0.792843
vt 0.066377 0.792843
vt 0.086453 0.820427
vt 0.086453 0.110671
vt 0.086453 0.820427
vt 0.086453 0.110671
vt 0.086453 0.132224
vt 0.865546 0.191924
vt 0.865546 0.152321
vt 0.086453 0.132224
vt 0.086453 0.792843
vt 0.865546 0.152321
vt 0.865546 0.762345
vt 0.086453 0.792843
vt 0.328762 0.191304
vt 0.760115 0.110671
vt 0.760115 0.820427
vt 0.328763 0.754779
vt 0.760115 0.110671
vt 0.760115 0.820427
vt 0.760115 0.132224
vt 0.992386 0.191924
vt 0.992386 0.146761
vt 0.744798 0.150347
vt 0.328762 0.208416
vt 0.760115 0.792843
vt 0.992386 0.146761
vt 0.992386 0.762345
vt 0.744798 0.785925
vt 0.328763 0.732880
s 1
usemtl Book_2
f 176/286/71 170/274/72 92/142/73 143/230/74
f 168/270/75 161/259/76 94/148/77 144/232/78
f 150/240/79 97/155/80 96/152/81 145/233/82
f 144/231/78 94/147/77 101/163/83 146/236/84
f 146/236/84 101/163/83 100/161/85 147/237/86
f 147/237/86 100/161/85 99/159/87 148/238/88
f 148/238/88 99/159/87 98/157/89 149/239/90
f 149/239/90 98/157/89 97/155/80 150/240/79
f 175/282/91 151/242/92 111/181/93 172/276/94
f 167/267/95 152/243/96 112/182/97 163/261/98
f 158/255/99 153/245/100 116/186/101 117/187/102
f 152/243/96 154/247/103 114/184/104 112/182/97
f 154/247/103 155/249/105 120/190/106 114/184/104
f 155/249/105 156/251/107 119/189/108 120/190/106
f 156/251/107 157/253/109 118/188/110 119/189/108
f 157/253/109 158/255/99 117/187/102 118/188/110
f 169/272/111 90/138/112 110/179/113 171/275/114
f 102/165/115 103/167/116 122/193/117 121/191/118
f 143/229/74 92/143/73 111/180/93 151/241/92
f 103/167/116 104/169/119 123/194/120 122/193/117
f 96/153/81 97/156/80 117/187/102 116/186/101
f 161/259/76 91/141/121 107/175/122 163/261/98
f 104/169/119 105/171/123 124/196/124 123/194/120
f 97/156/80 98/158/89 118/188/110 117/187/102
f 162/260/125 93/146/126 113/183/127 164/262/128
f 105/171/123 106/173/129 115/185/130 124/196/124
f 98/158/89 99/160/87 119/189/108 118/188/110
f 101/164/83 94/148/77 112/182/97 114/184/104
f 99/160/87 100/162/85 120/190/106 119/189/108
f 100/162/85 101/164/83 114/184/104 120/190/106
f 106/173/129 95/151/131 109/177/132 115/185/130
f 125/197/133 89/137/134 108/176/135 134/210/136
f 93/146/126 102/165/115 121/191/118 113/183/127
f 170/273/72 96/153/81 116/186/101 172/276/94
f 159/257/133 125/197/133 134/210/136 160/258/136
f 90/139/112 126/198/74 135/211/92 110/178/113
f 124/196/124 115/185/130 142/227/99 141/225/109
f 123/194/120 124/196/124 141/225/109 140/223/107
f 122/192/117 123/195/120 140/222/107 139/219/105
f 121/191/118 122/193/117 139/220/105 138/217/103
f 113/183/127 121/191/118 138/217/103 136/213/137
f 115/185/130 109/177/132 137/215/138 142/227/99
f 164/262/128 113/183/127 136/213/137 165/263/139
f 171/275/114 110/179/113 135/212/92 173/277/140
f 105/172/123 132/208/90 133/209/79 106/174/129
f 104/170/119 131/207/88 132/208/90 105/172/123
f 103/168/116 130/206/86 131/207/88 104/170/119
f 102/166/115 129/205/84 130/206/86 103/168/116
f 93/145/126 127/200/78 129/205/84 102/166/115
f 106/174/129 133/209/79 128/202/82 95/149/131
f 162/260/125 166/266/75 127/201/78 93/146/126
f 169/271/111 174/281/71 126/199/74 90/140/112
f 91/141/121 159/257/133 160/258/136 107/175/122
f 126/198/74 143/229/74 151/241/92 135/211/92
f 141/225/109 142/227/99 158/255/99 157/253/109
f 140/223/107 141/225/109 157/253/109 156/251/107
f 139/220/105 140/223/107 156/251/107 155/249/105
f 138/217/103 139/220/105 155/249/105 154/247/103
f 136/213/137 138/217/103 154/247/103 152/243/96
f 142/227/99 137/215/138 153/245/100 158/255/99
f 165/263/139 136/213/137 152/243/96 167/267/95
f 173/277/140 135/212/92 151/242/92 175/282/91
f 132/208/90 149/239/90 150/240/79 133/209/79
f 131/207/88 148/238/88 149/239/90 132/208/90
f 130/206/86 147/237/86 148/238/88 131/207/88
f 129/205/84 146/236/84 147/237/86 130/206/86
f 127/200/78 144/231/78 146/236/84 129/205/84
f 133/209/79 150/240/79 145/233/82 128/202/82
f 166/266/75 168/270/75 144/232/78 127/201/78
f 174/281/71 176/286/71 143/230/74 126/199/74
f 125/197/133 159/257/133 168/270/75 166/266/75
f 134/210/136 165/263/139 167/267/95 160/258/136
f 89/137/134 125/197/133 166/266/75 162/260/125
f 108/176/135 164/262/128 165/263/139 134/210/136
f 89/137/134 162/260/125 164/262/128 108/176/135
f 94/148/77 161/259/76 163/261/98 112/182/97
f 160/258/136 167/267/95 163/261/98 107/175/122
f 159/257/133 91/141/121 161/259/76 168/270/75
f 128/203/82 145/234/82 176/285/71 174/280/71
f 137/215/138 173/277/140 175/282/91 153/245/100
f 95/150/131 128/204/82 174/281/71 169/271/111
f 109/177/132 171/275/114 173/277/140 137/215/138
f 92/144/73 170/273/72 172/276/94 111/181/93
f 95/151/131 169/272/111 171/275/114 109/177/132
f 153/245/100 175/282/91 172/276/94 116/186/101
f 145/235/82 96/154/81 170/274/72 176/286/71
f 167/268/95 175/283/91 153/246/100 152/244/96
f 142/228/99 137/216/138 136/214/137
f 138/218/103 142/228/99 136/214/137
f 154/248/103 158/256/99 152/244/96
f 158/256/99 153/246/100 152/244/96
f 142/228/99 138/218/103 139/221/105
f 158/256/99 154/248/103 155/250/105
f 141/226/109 142/228/99 139/221/105
f 157/254/109 158/256/99 155/250/105
f 141/226/109 139/221/105 140/224/107
f 157/254/109 155/250/105 156/252/107
f 165/264/139 167/269/95 175/284/91 173/278/140
f 165/265/139 136/214/137 137/216/138 173/279/140
g Book_3_Plane.002
v -0.466861 -0.208166 0.854946
v -0.466861 0.188299 0.854946
v -0.466861 -0.208166 -0.854946
v -0.466861 0.188299 -0.854946
v -1.595619 -0.203857 0.854946
v -1.595619 -0.203857 -0.854946
v -1.595619 0.186284 0.854946
v -1.595619 0.186284 -0.854946
v -1.622794 0.121260 -0.854946
v -1.637426 0.056237 -0.854946
v -1.649969 -0.008787 -0.854946
v -1.637426 -0.073810 -0.854946
v -1.622794 -0.138834 -0.854946
v -1.622794 -0.138834 0.854946
v -1.637426 -0.073810 0.854946
v -1.649969 -0.008787 0.854946
v -1.637426 0.056237 0.854946
v -1.622794 0.121260 0.854946
v -0.466837 -0.186942 -0.854946
v -0.466837 -0.186942 0.854946
v -1.590456 0.167266 0.854946
v -0.466850 0.167075 0.854946
v -0.466850 0.167075 -0.854946
v -1.590451 -0.184845 -0.854946
v -1.590451 -0.184845 0.854946
v -1.612707 -0.128275 -0.854946
v -1.612707 0.110701 0.854946
v -1.590456 0.167266 -0.854946
v -1.612707 0.110701 -0.854946
v -1.626561 0.048678 -0.854946
v -1.638341 -0.008787 -0.854946
v -1.626561 -0.066252 -0.854946
v -1.612707 -0.128275 0.854946
v -1.626561 -0.066252 0.854946
v -1.638341 -0.008787 0.854946
v -1.626561 0.048678 0.854946
v -0.466861 -0.208166 0.803020
v -0.466861 0.188299 0.803020
v -1.595619 -0.203857 0.803020
v -1.595619 0.186284 0.803020
v -1.622794 -0.138834 0.803020
v -1.637426 -0.073810 0.803020
v -1.649969 -0.008787 0.803020
v -1.637426 0.056237 0.803020
v -1.622794 0.121260 0.803020
v -0.466837 -0.186942 0.803020
v -0.466850 0.167075 0.803020
v -1.590451 -0.184845 0.803020
v -1.590456 0.167266 0.803020
v -1.612707 -0.128275 0.803020
v -1.626561 -0.066252 0.803020
v -1.638341 -0.008787 0.803020
v -1.626561 0.048678 0.803020
v -1.612707 0.110701 0.803020
v -0.466861 0.188299 -0.788493
v -1.595619 -0.203857 -0.788493
v -1.595619 0.186284 -0.788493
v -1.622794 -0.138834 -0.788493
v -1.637426 -0.073810 -0.788493
v -1.649969 -0.008787 -0.788493
v -1.637426 0.056237 -0.788493
v -1.622794 0.121260 -0.788493
v -0.466850 0.167075 -0.788493
v -1.590451 -0.184845 -0.788493
v -1.590456 0.167266 -0.788493
v -1.612707 -0.128275 -0.788493
v -1.626561 -0.066252 -0.788493
v -1.638341 -0.008787 -0.788493
v -1.626561 0.048678 -0.788493
v -1.612707 0.110701 -0.788493
v -0.466861 -0.208166 -0.788493
v -0.466837 -0.186942 -0.788493
v -0.540312 -0.207886 -0.854946
v -0.540312 -0.207886 0.854946
v -0.539953 -0.186806 -0.854946
v -0.539953 -0.186806 0.854946
v -0.539953 -0.186806 0.803020
v -0.540312 -0.207886 0.803020
v -0.539953 -0.186806 -0.788493
v -0.540312 -0.207886 -0.788493
v -0.524718 0.188196 0.854946
v -0.524718 0.188196 -0.854946
v -0.524442 0.167085 0.854946
v -0.524442 0.167085 -0.854946
v -0.524442 0.167085 0.803020
v -0.524718 0.188196 0.803020
v -0.524442 0.167085 -0.788493
v -0.524718 0.188196 -0.788493
vn 0.0018 -1.0000 -0.0000
vn 0.0013 -0.7071 0.7071
vn -0.5767 -0.5781 0.5773
vn -0.7063 -0.7079 -0.0000
vn 0.0038 1.0000 -0.0000
vn 0.0027 0.7071 0.7071
vn 0.4441 0.6642 0.6013
vn 0.5558 0.8313 -0.0000
vn 0.9528 -0.3037 -0.0000
vn 0.6914 -0.2204 0.6880
vn 0.4435 -0.6647 0.6012
vn 0.5550 -0.8319 -0.0000
vn 0.6914 0.2204 0.6880
vn 0.9528 0.3037 -0.0000
vn 0.6955 0.1453 0.7037
vn 0.9789 0.2045 -0.0000
vn 0.7452 -0.0000 0.6669
vn 1.0000 -0.0000 -0.0000
vn 0.6955 -0.1453 0.7037
vn 0.9789 -0.2045 -0.0000
vn 0.2383 0.9431 0.2318
vn -0.7072 0.7070 -0.0000
vn -0.5775 0.5773 0.5773
vn 0.0001 0.7071 0.7071
vn 0.2312 -0.9430 0.2394
vn -0.5493 -0.8048 0.2246
vn -0.2898 -0.4245 0.8578
vn -0.0013 -0.7071 0.7071
vn -0.8631 0.2644 -0.4304
vn -0.5486 0.8054 0.2244
vn -0.2891 0.4245 0.8581
vn -0.6586 0.2018 0.7250
vn -0.8631 -0.2644 -0.4303
vn -0.6586 -0.2018 0.7250
vn -0.8756 -0.1875 -0.4452
vn -0.6895 -0.1477 0.7091
vn -0.9137 -0.0000 -0.4063
vn -0.6555 -0.0000 0.7552
vn -0.8756 0.1875 -0.4452
vn -0.6895 0.1477 0.7091
vn 0.0013 -0.7071 -0.7071
vn -0.5767 -0.5781 -0.5773
vn -0.5775 0.5773 -0.5773
vn 0.0001 0.7071 -0.7071
vn 0.6914 0.2204 -0.6880
vn 0.6955 0.1453 -0.7037
vn -0.6895 -0.1477 -0.7091
vn -0.6586 -0.2018 -0.7250
vn 0.7452 -0.0000 -0.6669
vn -0.6555 -0.0000 -0.7552
vn -0.5760 0.5789 0.5772
vn -0.5782 -0.5765 0.5774
vn 0.6955 -0.1453 -0.7037
vn -0.6895 0.1477 -0.7091
vn 0.0027 0.7071 -0.7071
vn 0.4441 0.6642 -0.6013
vn -0.2898 -0.4245 -0.8578
vn -0.0013 -0.7071 -0.7071
vn 0.6914 -0.2204 -0.6880
vn -0.6586 0.2018 -0.7250
vn 0.4435 -0.6647 -0.6012
vn -0.2891 0.4245 -0.8581
vn -0.7054 0.7089 -0.0000
vn -0.5760 0.5789 -0.5772
vn -0.5782 -0.5765 -0.5774
vn -0.7082 -0.7060 -0.0000
vn -0.5279 -0.7734 -0.3510
vn -0.5271 0.7740 -0.3508
vn 0.2312 -0.9430 -0.2394
vn 0.2383 0.9431 -0.2318
vt 0.035767 0.109591
vt 0.705243 0.186830
vt 0.766759 0.101585
vt 0.035767 0.826429
vt 0.766759 0.823766
vt 0.712358 0.764514
vt 0.381523 0.312202
vt 0.347366 0.109591
vt 0.381523 0.634891
vt 0.347366 0.826429
vt 0.436971 0.109591
vt 0.408966 0.312202
vt 0.442688 0.101585
vt 0.441118 0.183024
vt 0.408966 0.634891
vt 0.436971 0.826429
vt 0.439118 0.772752
vt 0.442688 0.835054
vt 0.404392 0.634891
vt 0.422036 0.826429
vt 0.399818 0.634891
vt 0.407102 0.826429
vt 0.395244 0.634891
vt 0.392168 0.826429
vt 0.390670 0.634891
vt 0.377234 0.826429
vt 0.386097 0.634891
vt 0.362300 0.826429
vt 0.362300 0.109591
vt 0.386097 0.312202
vt 0.377234 0.109591
vt 0.390670 0.312202
vt 0.392168 0.109591
vt 0.395244 0.312202
vt 0.407102 0.109591
vt 0.399818 0.312202
vt 0.422036 0.109591
vt 0.404392 0.312202
vt 0.035767 0.826429
vt 0.035767 0.109591
vt 0.436971 0.109591
vt 0.441118 0.183024
vt 0.705243 0.186830
vt 0.752605 0.109591
vt 0.752605 0.826429
vt 0.712358 0.764514
vt 0.347366 0.826429
vt 0.347366 0.109591
vt 0.362300 0.826429
vt 0.422036 0.109591
vt 0.439118 0.772752
vt 0.436971 0.826429
vt 0.422036 0.826429
vt 0.407102 0.826429
vt 0.392168 0.826429
vt 0.377234 0.826429
vt 0.362300 0.109591
vt 0.377234 0.109591
vt 0.392168 0.109591
vt 0.407102 0.109591
vt 0.035767 0.131360
vt 0.705795 0.201654
vt 0.766759 0.123516
vt 0.381523 0.322001
vt 0.347366 0.131360
vt 0.408966 0.322001
vt 0.443935 0.124619
vt 0.386097 0.322001
vt 0.390670 0.322001
vt 0.395244 0.322001
vt 0.399818 0.322001
vt 0.404392 0.322001
vt 0.035767 0.131360
vt 0.705795 0.201654
vt 0.752605 0.131360
vt 0.347366 0.131360
vt 0.879380 0.542441
vt 0.436971 0.131360
vt 0.922621 0.542443
vt 0.362300 0.131360
vt 0.886327 0.550722
vt 0.377234 0.131360
vt 0.893944 0.555876
vt 0.392168 0.131360
vt 0.901001 0.560259
vt 0.407102 0.131360
vt 0.908058 0.555876
vt 0.422036 0.131360
vt 0.915675 0.550722
vt 0.766759 0.795699
vt 0.712264 0.741121
vt 0.771174 0.795699
vt 0.381523 0.622350
vt 0.347366 0.798570
vt 0.408966 0.622350
vt 0.441624 0.805702
vt 0.386097 0.622350
vt 0.390670 0.622350
vt 0.395244 0.622350
vt 0.399818 0.622350
vt 0.404392 0.622350
vt 0.712264 0.741121
vt 0.752605 0.798570
vt 0.347366 0.798570
vt 0.879380 0.542441
vt 0.436971 0.798570
vt 0.922621 0.542443
vt 0.362300 0.798570
vt 0.886327 0.550722
vt 0.377234 0.798570
vt 0.893944 0.555876
vt 0.392168 0.798570
vt 0.901001 0.560259
vt 0.407102 0.798570
vt 0.908058 0.555876
vt 0.422036 0.798570
vt 0.915675 0.550722
vt 0.035767 0.798570
vt 0.035767 0.798570
vt 0.056044 0.826429
vt 0.056044 0.109591
vt 0.056044 0.826429
vt 0.056044 0.109591
vt 0.056044 0.131360
vt 0.879139 0.192712
vt 0.879139 0.151602
vt 0.056044 0.131360
vt 0.056044 0.798570
vt 0.879139 0.151602
vt 0.879139 0.784838
vt 0.056044 0.798570
vt 0.752807 0.101585
vt 0.705243 0.186830
vt 0.752807 0.823766
vt 0.694077 0.764954
vt 0.762742 0.835054
vt 0.736427 0.109591
vt 0.705243 0.186830
vt 0.694077 0.764954
vt 0.736427 0.826429
vt 0.736427 0.131360
vt 0.922599 0.192712
vt 0.922599 0.145831
vt 0.748975 0.129015
vt 0.736427 0.798570
vt 0.922599 0.145831
vt 0.922599 0.784838
vt 0.757192 0.796188
s 1
usemtl Book_3
f 264/434/141 258/420/142 180/291/143 231/376/144
f 256/417/145 249/406/146 182/296/147 232/380/148
f 238/387/149 185/305/150 184/301/151 233/381/152
f 232/379/148 182/295/147 189/313/153 234/383/154
f 234/383/154 189/313/153 188/311/155 235/384/156
f 235/384/156 188/311/155 187/309/157 236/385/158
f 236/385/158 187/309/157 186/307/159 237/386/160
f 237/386/160 186/307/159 185/305/150 238/387/149
f 263/431/161 239/389/162 199/331/163 260/426/164
f 255/414/165 240/390/166 200/333/167 251/408/168
f 246/402/169 241/392/170 204/338/171 205/339/172
f 240/390/166 242/394/173 202/335/174 200/333/167
f 242/394/173 243/396/175 208/342/176 202/335/174
f 243/396/175 244/398/177 207/341/178 208/342/176
f 244/398/177 245/400/179 206/340/180 207/341/178
f 245/400/179 246/402/169 205/339/172 206/340/180
f 257/419/181 178/288/182 198/329/183 259/424/184
f 190/315/185 191/317/186 210/344/187 209/343/188
f 231/377/144 180/292/143 199/332/163 239/388/162
f 191/317/186 192/319/189 211/345/190 210/344/187
f 184/302/151 185/306/150 205/339/172 204/338/171
f 249/406/146 179/290/191 195/325/192 251/408/168
f 192/319/189 193/321/193 212/346/194 211/345/190
f 185/306/150 186/308/159 206/340/180 205/339/172
f 250/407/195 181/294/196 201/334/197 252/409/198
f 193/321/193 194/323/199 203/336/200 212/346/194
f 186/308/159 187/310/157 207/341/178 206/340/180
f 189/314/153 182/296/147 200/333/167 202/335/174
f 187/310/157 188/312/155 208/342/176 207/341/178
f 188/312/155 189/314/153 202/335/174 208/342/176
f 194/323/199 183/297/201 197/327/202 203/336/200
f 213/347/203 177/287/204 196/326/205 222/359/206
f 181/294/196 190/315/185 209/343/188 201/334/197
f 258/421/142 184/303/151 204/337/171 260/425/164
f 247/404/203 213/347/203 222/359/206 248/405/206
f 178/288/182 214/348/144 223/360/162 198/329/183
f 212/346/194 203/336/200 230/374/169 229/372/179
f 211/345/190 212/346/194 229/372/179 228/370/177
f 210/344/187 211/345/190 228/370/177 227/368/175
f 209/343/188 210/344/187 227/368/175 226/366/173
f 201/334/197 209/343/188 226/366/173 224/362/207
f 203/336/200 197/327/202 225/364/208 230/374/169
f 252/409/198 201/334/197 224/362/207 253/410/209
f 259/423/184 198/330/183 223/361/162 261/427/210
f 193/322/193 220/357/160 221/358/149 194/324/199
f 192/320/189 219/356/158 220/357/160 193/322/193
f 191/318/186 218/355/156 219/356/158 192/320/189
f 190/316/185 217/354/154 218/355/156 191/318/186
f 181/293/196 215/350/148 217/354/154 190/316/185
f 194/324/199 221/358/149 216/352/152 183/298/201
f 250/407/195 254/413/145 215/351/148 181/294/196
f 257/418/181 262/430/141 214/349/144 178/289/182
f 179/290/191 247/404/203 248/405/206 195/325/192
f 214/348/144 231/377/144 239/388/162 223/360/162
f 229/372/179 230/374/169 246/402/169 245/400/179
f 228/370/177 229/372/179 245/400/179 244/398/177
f 227/368/175 228/370/177 244/398/177 243/396/175
f 226/366/173 227/368/175 243/396/175 242/394/173
f 224/362/207 226/366/173 242/394/173 240/390/166
f 230/374/169 225/364/208 241/392/170 246/402/169
f 253/410/209 224/362/207 240/390/166 255/414/165
f 261/427/210 223/361/162 239/389/162 263/431/161
f 220/357/160 237/386/160 238/387/149 221/358/149
f 219/356/158 236/385/158 237/386/160 220/357/160
f 218/355/156 235/384/156 236/385/158 219/356/158
f 217/354/154 234/383/154 235/384/156 218/355/156
f 215/350/148 232/379/148 234/383/154 217/354/154
f 221/358/149 238/387/149 233/381/152 216/352/152
f 254/413/145 256/417/145 232/380/148 215/351/148
f 262/430/141 264/434/141 231/378/144 214/349/144
f 213/347/203 247/404/203 256/417/145 254/413/145
f 222/359/206 253/410/209 255/414/165 248/405/206
f 177/287/204 213/347/203 254/413/145 250/407/195
f 196/326/205 252/409/198 253/410/209 222/359/206
f 177/287/204 250/407/195 252/409/198 196/326/205
f 182/296/147 249/406/146 251/408/168 200/333/167
f 248/405/206 255/414/165 251/408/168 195/325/192
f 247/404/203 179/290/191 249/406/146 256/417/145
f 216/353/152 233/382/152 264/434/141 262/430/141
f 225/364/208 261/427/210 263/431/161 241/392/170
f 183/299/201 216/353/152 262/430/141 257/418/181
f 197/327/202 259/423/184 261/427/210 225/364/208
f 180/292/143 258/421/142 260/425/164 199/332/163
f 183/300/201 257/419/181 259/424/184 197/328/202
f 241/392/170 263/431/161 260/426/164 204/338/171
f 233/382/152 184/304/151 258/422/142 264/434/141
f 255/415/165 263/432/161 241/393/170 240/391/166
f 230/375/169 225/365/208 224/363/207
f 226/367/173 230/375/169 224/363/207
f 242/395/173 246/403/169 240/391/166
f 246/403/169 241/393/170 240/391/166
f 230/375/169 226/367/173 227/369/175
f 246/403/169 242/395/173 243/397/175
f 229/373/179 230/375/169 227/369/175
f 245/401/179 246/403/169 243/397/175
f 229/373/179 227/369/175 228/371/177
f 245/401/179 243/397/175 244/399/177
f 253/411/209 255/416/165 263/433/161 261/428/210
f 253/412/209 224/363/207 225/365/208 261/429/210
g Book_4_Plane.003
v 1.184225 -0.141681 0.581890
v 1.184225 0.128159 0.581890
v 1.184225 -0.141681 -0.581890
v 1.184225 0.128159 -0.581890
v 0.415974 -0.138749 0.581890
v 0.415974 -0.138749 -0.581890
v 0.415974 0.126788 0.581890
v 0.415974 0.126788 -0.581890
v 0.397479 0.082532 -0.581890
v 0.387519 0.038276 -0.581890
v 0.378983 -0.005981 -0.581890
v 0.387519 -0.050237 -0.581890
v 0.397479 -0.094493 -0.581890
v 0.397479 -0.094493 0.581890
v 0.387519 -0.050237 0.581890
v 0.378983 -0.005981 0.581890
v 0.387519 0.038276 0.581890
v 0.397479 0.082532 0.581890
v 1.184242 -0.127236 -0.581890
v 1.184242 -0.127236 0.581890
v 0.419488 0.113844 0.581890
v 1.184233 0.113714 0.581890
v 1.184233 0.113714 -0.581890
v 0.419492 -0.125809 -0.581890
v 0.419492 -0.125809 0.581890
v 0.404344 -0.087306 -0.581890
v 0.404344 0.075345 0.581890
v 0.419488 0.113844 -0.581890
v 0.404344 0.075345 -0.581890
v 0.394914 0.033131 -0.581890
v 0.386897 -0.005981 -0.581890
v 0.394914 -0.045092 -0.581890
v 0.404344 -0.087306 0.581890
v 0.394914 -0.045092 0.581890
v 0.386897 -0.005981 0.581890
v 0.394914 0.033131 0.581890
v 1.184225 -0.141681 0.546549
v 1.184225 0.128159 0.546549
v 0.415974 -0.138749 0.546549
v 0.415974 0.126788 0.546549
v 0.397479 -0.094493 0.546549
v 0.387519 -0.050237 0.546549
v 0.378983 -0.005981 0.546549
v 0.387519 0.038276 0.546549
v 0.397479 0.082532 0.546549
v 1.184242 -0.127236 0.546549
v 1.184233 0.113714 0.546549
v 0.419492 -0.125809 0.546549
v 0.419488 0.113844 0.546549
v 0.404344 -0.087306 0.546549
v 0.394914 -0.045092 0.546549
v 0.386897 -0.005981 0.546549
v 0.394914 0.033131 0.546549
v 0.404344 0.075345 0.546549
v 1.184225 0.128159 -0.536661
v 0.415974 -0.138749 -0.536661
v 0.415974 0.126788 -0.536661
v 0.397479 -0.094493 -0.536661
v 0.387519 -0.050237 -0.536661
v 0.378983 -0.005981 -0.536661
v 0.387519 0.038276 -0.536661
v 0.397479 0.082532 -0.536661
v 1.184233 0.113714 -0.536661
v 0.419492 -0.125809 -0.536661
v 0.419488 0.113844 -0.536661
v 0.404344 -0.087306 -0.536661
v 0.394914 -0.045092 -0.536661
v 0.386897 -0.005981 -0.536661
v 0.394914 0.033131 -0.536661
v 0.404344 0.075345 -0.536661
v 1.184225 -0.141681 -0.536661
v 1.184242 -0.127236 -0.536661
v 1.134233 -0.141490 -0.581890
v 1.134233 -0.141490 0.581890
v 1.134477 -0.127143 -0.581890
v 1.134477 -0.127143 0.581890
v 1.134477 -0.127143 0.546549
v 1.134233 -0.141490 0.546549
v 1.134477 -0.127143 -0.536661
v 1.134233 -0.141490 -0.536661
v 1.144847 0.128089 0.581890
v 1.144847 0.128089 -0.581890
v 1.145035 0.113721 0.581890
v 1.145035 0.113721 -0.581890
v 1.145035 0.113721 0.546549
v 1.144847 0.128089 0.546549
v 1.145035 0.113721 -0.536661
v 1.144847 0.128089 -0.536661
vn 0.0018 -1.0000 -0.0000
vn 0.0013 -0.7071 0.7071
vn -0.5767 -0.5781 0.5773
vn -0.7063 -0.7079 -0.0000
vn 0.0038 1.0000 -0.0000
vn 0.0027 0.7071 0.7071
vn 0.4441 0.6642 0.6013
vn 0.5558 0.8313 -0.0000
vn 0.9528 -0.3037 -0.0000
vn 0.6914 -0.2204 0.6880
vn 0.4435 -0.6647 0.6012
vn 0.5550 -0.8319 -0.0000
vn 0.6914 0.2204 0.6880
vn 0.9528 0.3037 -0.0000
vn 0.6955 0.1453 0.7037
vn 0.9789 0.2045 -0.0000
vn 0.7452 -0.0000 0.6669
vn 1.0000 -0.0000 -0.0000
vn 0.6955 -0.1453 0.7037
vn 0.9789 -0.2045 -0.0000
vn 0.2383 0.9431 0.2318
vn -0.7072 0.7070 -0.0000
vn -0.5775 0.5773 0.5773
vn 0.0001 0.7071 0.7071
vn 0.2312 -0.9430 0.2394
vn -0.5493 -0.8048 0.2246
vn -0.2898 -0.4245 0.8578
vn -0.0013 -0.7071 0.7071
vn -0.8631 0.2644 -0.4304
vn -0.5486 0.8054 0.2244
vn -0.2891 0.4245 0.8581
vn -0.6586 0.2018 0.7250
vn -0.8631 -0.2644 -0.4303
vn -0.6586 -0.2018 0.7250
vn -0.8756 -0.1875 -0.4452
vn -0.6895 -0.1477 0.7091
vn -0.9137 -0.0000 -0.4063
vn -0.6555 -0.0000 0.7552
vn -0.8756 0.1875 -0.4452
vn -0.6895 0.1477 0.7091
vn 0.0013 -0.7071 -0.7071
vn -0.5767 -0.5781 -0.5773
vn -0.5775 0.5773 -0.5773
vn 0.0001 0.7071 -0.7071
vn 0.6914 0.2204 -0.6880
vn 0.6955 0.1453 -0.7037
vn -0.6895 -0.1477 -0.7091
vn -0.6586 -0.2018 -0.7250
vn 0.7452 -0.0000 -0.6669
vn -0.6555 -0.0000 -0.7552
vn -0.5760 0.5789 0.5772
vn -0.5782 -0.5765 0.5774
vn 0.6955 -0.1453 -0.7037
vn -0.6895 0.1477 -0.7091
vn 0.0027 0.7071 -0.7071
vn 0.4441 0.6642 -0.6013
vn -0.2898 -0.4245 -0.8578
vn -0.0013 -0.7071 -0.7071
vn 0.6914 -0.2204 -0.6880
vn -0.6586 0.2018 -0.7250
vn 0.4435 -0.6647 -0.6012
vn -0.2891 0.4245 -0.8581
vn -0.7054 0.7089 -0.0000
vn -0.5760 0.5789 -0.5772
vn -0.5782 -0.5765 -0.5774
vn -0.7082 -0.7060 -0.0000
vn -0.5279 -0.7734 -0.3510
vn -0.5271 0.7740 -0.3508
vn 0.2312 -0.9430 -0.2394
vn 0.2383 0.9431 -0.2318
vt 0.122199 0.156650
vt 0.803978 0.156650
vt 0.406326 0.263081
vt 0.122199 0.838429
vt 0.406326 0.746062
vt 0.803978 0.838429
vt 0.418558 0.156650
vt 0.418558 0.838429
vt 0.182172 0.263081
vt 0.503780 0.156650
vt 0.503780 0.838429
vt 0.182172 0.746062
vt 0.489576 0.838429
vt 0.475373 0.838429
vt 0.461169 0.838429
vt 0.446965 0.838429
vt 0.432761 0.838429
vt 0.432761 0.156650
vt 0.446965 0.156650
vt 0.461169 0.156650
vt 0.475373 0.156650
vt 0.489576 0.156650
vt 0.122199 0.838429
vt 0.122199 0.156650
vt 0.503780 0.156650
vt 0.803978 0.156650
vt 0.803978 0.838429
vt 0.418558 0.838429
vt 0.418558 0.156650
vt 0.432761 0.838429
vt 0.489576 0.156650
vt 0.503780 0.838429
vt 0.489576 0.838429
vt 0.475373 0.838429
vt 0.461169 0.838429
vt 0.446965 0.838429
vt 0.432761 0.156650
vt 0.446965 0.156650
vt 0.461169 0.156650
vt 0.475373 0.156650
vt 0.122199 0.177354
vt 0.803978 0.177354
vt 0.406326 0.277748
vt 0.418558 0.177354
vt 0.503780 0.177354
vt 0.182172 0.277748
vt 0.432761 0.177354
vt 0.446965 0.177354
vt 0.461169 0.177354
vt 0.475373 0.177354
vt 0.489576 0.177354
vt 0.122199 0.177354
vt 0.803978 0.177354
vt 0.418558 0.177354
vt 0.910140 0.577452
vt 0.503780 0.177354
vt 0.959875 0.577454
vt 0.432761 0.177354
vt 0.918131 0.587114
vt 0.446965 0.177354
vt 0.926891 0.593128
vt 0.461169 0.177354
vt 0.935008 0.598242
vt 0.475373 0.177354
vt 0.943125 0.593128
vt 0.489576 0.177354
vt 0.951886 0.587114
vt 0.803978 0.811932
vt 0.406326 0.727291
vt 0.418558 0.811932
vt 0.503780 0.811932
vt 0.182172 0.727291
vt 0.432761 0.811932
vt 0.446965 0.811932
vt 0.461169 0.811932
vt 0.475373 0.811932
vt 0.489576 0.811932
vt 0.803978 0.811932
vt 0.418558 0.811932
vt 0.910140 0.577452
vt 0.503780 0.811932
vt 0.959875 0.577454
vt 0.432761 0.811932
vt 0.918131 0.587114
vt 0.446965 0.811932
vt 0.926891 0.593128
vt 0.461169 0.811932
vt 0.935008 0.598242
vt 0.475373 0.811932
vt 0.943125 0.593128
vt 0.489576 0.811932
vt 0.951886 0.587114
vt 0.122199 0.811932
vt 0.122199 0.811932
vt 0.141484 0.838428
vt 0.141484 0.156650
vt 0.141484 0.838429
vt 0.141484 0.156650
vt 0.141484 0.177354
vt 0.909863 0.169379
vt 0.909863 0.121411
vt 0.141484 0.177354
vt 0.141484 0.811932
vt 0.909863 0.121411
vt 0.909863 0.860286
vt 0.141484 0.811932
vt 0.394837 0.263081
vt 0.788590 0.156650
vt 0.788590 0.838429
vt 0.394837 0.746062
vt 0.788590 0.156650
vt 0.788590 0.838429
vt 0.788590 0.177354
vt 0.959850 0.169379
vt 0.959850 0.114677
vt 0.394837 0.277748
vt 0.788590 0.811932
vt 0.959850 0.114677
vt 0.959850 0.860286
vt 0.394837 0.727291
s 1
usemtl Book_4
f 352/554/211 346/544/212 268/439/213 319/503/214
f 344/540/215 337/529/216 270/442/217 320/504/218
f 326/511/219 273/447/220 272/445/221 321/505/222
f 320/504/218 270/442/217 277/451/223 322/507/224
f 322/507/224 277/451/223 276/450/225 323/508/226
f 323/508/226 276/450/225 275/449/227 324/509/228
f 324/509/228 275/449/227 274/448/229 325/510/230
f 325/510/230 274/448/229 273/447/220 326/511/219
f 351/551/231 327/512/232 287/461/233 348/546/234
f 343/537/235 328/513/236 288/462/237 339/531/238
f 334/525/239 329/515/240 292/466/241 293/467/242
f 328/513/236 330/517/243 290/464/244 288/462/237
f 330/517/243 331/519/245 296/470/246 290/464/244
f 331/519/245 332/521/247 295/469/248 296/470/246
f 332/521/247 333/523/249 294/468/250 295/469/248
f 333/523/249 334/525/239 293/467/242 294/468/250
f 345/542/251 266/436/252 286/460/253 347/545/254
f 278/452/255 279/453/256 298/472/257 297/471/258
f 319/502/214 268/440/213 287/461/233 327/512/232
f 279/453/256 280/454/259 299/473/260 298/472/257
f 272/445/221 273/447/220 293/467/242 292/466/241
f 337/529/216 267/438/261 283/457/262 339/531/238
f 280/454/259 281/455/263 300/474/264 299/473/260
f 273/447/220 274/448/229 294/468/250 293/467/242
f 338/530/265 269/441/266 289/463/267 340/532/268
f 281/455/263 282/456/269 291/465/270 300/474/264
f 274/448/229 275/449/227 295/469/248 294/468/250
f 277/451/223 270/442/217 288/462/237 290/464/244
f 275/449/227 276/450/225 296/470/246 295/469/248
f 276/450/225 277/451/223 290/464/244 296/470/246
f 282/456/269 271/444/271 285/459/272 291/465/270
f 301/475/273 265/435/274 284/458/275 310/486/276
f 269/441/266 278/452/255 297/471/258 289/463/267
f 346/543/212 272/445/221 292/466/241 348/546/234
f 335/527/273 301/475/273 310/486/276 336/528/276
f 266/436/252 302/476/214 311/487/232 286/460/253
f 300/474/264 291/465/270 318/500/239 317/498/249
f 299/473/260 300/474/264 317/498/249 316/496/247
f 298/472/257 299/473/260 316/496/247 315/494/245
f 297/471/258 298/472/257 315/494/245 314/492/243
f 289/463/267 297/471/258 314/492/243 312/488/277
f 291/465/270 285/459/272 313/490/278 318/500/239
f 340/532/268 289/463/267 312/488/277 341/533/279
f 347/545/254 286/460/253 311/487/232 349/547/280
f 281/455/263 308/484/230 309/485/219 282/456/269
f 280/454/259 307/483/228 308/484/230 281/455/263
f 279/453/256 306/482/226 307/483/228 280/454/259
f 278/452/255 305/481/224 306/482/226 279/453/256
f 269/441/266 303/478/218 305/481/224 278/452/255
f 282/456/269 309/485/219 304/479/222 271/444/271
f 338/530/265 342/536/215 303/478/218 269/441/266
f 345/541/251 350/550/211 302/477/214 266/437/252
f 267/438/261 335/527/273 336/528/276 283/457/262
f 302/476/214 319/502/214 327/512/232 311/487/232
f 317/498/249 318/500/239 334/525/239 333/523/249
f 316/496/247 317/498/249 333/523/249 332/521/247
f 315/494/245 316/496/247 332/521/247 331/519/245
f 314/492/243 315/494/245 331/519/245 330/517/243
f 312/488/277 314/492/243 330/517/243 328/513/236
f 318/500/239 313/490/278 329/515/240 334/525/239
f 341/533/279 312/488/277 328/513/236 343/537/235
f 349/547/280 311/487/232 327/512/232 351/551/231
f 308/484/230 325/510/230 326/511/219 309/485/219
f 307/483/228 324/509/228 325/510/230 308/484/230
f 306/482/226 323/508/226 324/509/228 307/483/228
f 305/481/224 322/507/224 323/508/226 306/482/226
f 303/478/218 320/504/218 322/507/224 305/481/224
f 309/485/219 326/511/219 321/505/222 304/479/222
f 342/536/215 344/540/215 320/504/218 303/478/218
f 350/550/211 352/554/211 319/503/214 302/477/214
f 301/475/273 335/527/273 344/540/215 342/536/215
f 310/486/276 341/533/279 343/537/235 336/528/276
f 265/435/274 301/475/273 342/536/215 338/530/265
f 284/458/275 340/532/268 341/533/279 310/486/276
f 265/435/274 338/530/265 340/532/268 284/458/275
f 270/442/217 337/529/216 339/531/238 288/462/237
f 336/528/276 343/537/235 339/531/238 283/457/262
f 335/527/273 267/438/261 337/529/216 344/540/215
f 304/480/222 321/506/222 352/554/211 350/550/211
f 313/490/278 349/547/280 351/551/231 329/515/240
f 271/443/271 304/480/222 350/550/211 345/541/251
f 285/459/272 347/545/254 349/547/280 313/490/278
f 268/440/213 346/543/212 348/546/234 287/461/233
f 271/444/271 345/542/251 347/545/254 285/459/272
f 329/515/240 351/551/231 348/546/234 292/466/241
f 321/506/222 272/446/221 346/544/212 352/554/211
f 343/538/235 351/552/231 329/516/240 328/514/236
f 318/501/239 313/491/278 312/489/277
f 314/493/243 318/501/239 312/489/277
f 330/518/243 334/526/239 328/514/236
f 334/526/239 329/516/240 328/514/236
f 318/501/239 314/493/243 315/495/245
f 334/526/239 330/518/243 331/520/245
f 317/499/249 318/501/239 315/495/245
f 333/524/249 334/526/239 331/520/245
f 317/499/249 315/495/245 316/497/247
f 333/524/249 331/520/245 332/522/247
f 341/534/279 343/539/235 351/553/231 349/548/280
f 341/535/279 312/489/277 313/491/278 349/549/280
g Book_5_Plane.004
v 3.352456 -0.208491 0.856280
v 3.352456 0.188593 0.856280
v 3.352456 -0.208491 -0.856280
v 3.352456 0.188593 -0.856280
v 2.221937 -0.204176 0.856280
v 2.221937 -0.204176 -0.856280
v 2.221937 0.186574 0.856280
v 2.221937 0.186574 -0.856280
v 2.194720 0.121449 -0.856280
v 2.180064 0.056324 -0.856280
v 2.167502 -0.008801 -0.856280
v 2.180064 -0.073926 -0.856280
v 2.194720 -0.139051 -0.856280
v 2.194720 -0.139051 0.856280
v 2.180064 -0.073926 0.856280
v 2.167502 -0.008801 0.856280
v 2.180064 0.056324 0.856280
v 2.194720 0.121449 0.856280
v 3.352481 -0.187234 -0.856280
v 3.352481 -0.187234 0.856280
v 2.227108 0.167527 0.856280
v 3.352468 0.167336 0.856280
v 3.352468 0.167336 -0.856280
v 2.227113 -0.185134 -0.856280
v 2.227113 -0.185134 0.856280
v 2.204822 -0.128475 -0.856280
v 2.204822 0.110874 0.856280
v 2.227108 0.167527 -0.856280
v 2.204822 0.110874 -0.856280
v 2.190946 0.048754 -0.856280
v 2.179148 -0.008801 -0.856280
v 2.190946 -0.066355 -0.856280
v 2.204822 -0.128475 0.856280
v 2.190946 -0.066355 0.856280
v 2.179148 -0.008801 0.856280
v 2.190946 0.048754 0.856280
v 3.352456 -0.208491 0.804274
v 3.352456 0.188593 0.804274
v 2.221937 -0.204176 0.804274
v 2.221937 0.186574 0.804274
v 2.194720 -0.139051 0.804274
v 2.180064 -0.073926 0.804274
v 2.167502 -0.008801 0.804274
v 2.180064 0.056324 0.804274
v 2.194720 0.121449 0.804274
v 3.352481 -0.187234 0.804274
v 3.352468 0.167336 0.804274
v 2.227113 -0.185134 0.804274
v 2.227108 0.167527 0.804274
v 2.204822 -0.128475 0.804274
v 2.190946 -0.066355 0.804274
v 2.179148 -0.008801 0.804274
v 2.190946 0.048754 0.804274
v 2.204822 0.110874 0.804274
v 3.352456 0.188593 -0.789724
v 2.221937 -0.204176 -0.789723
v 2.221937 0.186574 -0.789723
v 2.194720 -0.139051 -0.789723
v 2.180064 -0.073926 -0.789723
v 2.167502 -0.008801 -0.789723
v 2.180064 0.056324 -0.789723
v 2.194720 0.121449 -0.789723
v 3.352468 0.167336 -0.789724
v 2.227113 -0.185134 -0.789723
v 2.227108 0.167527 -0.789723
v 2.204822 -0.128475 -0.789723
v 2.190946 -0.066355 -0.789723
v 2.179148 -0.008801 -0.789723
v 2.190946 0.048754 -0.789723
v 2.204822 0.110874 -0.789723
v 3.352456 -0.208491 -0.789724
v 3.352481 -0.187234 -0.789724
v 3.278891 -0.208210 -0.856280
v 3.278891 -0.208210 0.856280
v 3.279250 -0.187097 -0.856280
v 3.279250 -0.187097 0.856280
v 3.279250 -0.187097 0.804274
v 3.278891 -0.208210 0.804274
v 3.279250 -0.187097 -0.789724
v 3.278891 -0.208210 -0.789724
v 3.294510 0.188490 0.856280
v 3.294510 0.188490 -0.856280
v 3.294785 0.167346 0.856280
v 3.294785 0.167346 -0.856280
v 3.294785 0.167346 0.804274
v 3.294510 0.188490 0.804274
v 3.294785 0.167346 -0.789724
v 3.294510 0.188490 -0.789724
vn 0.0018 -1.0000 -0.0000
vn 0.0013 -0.7071 0.7071
vn -0.5767 -0.5781 0.5773
vn -0.7063 -0.7079 -0.0000
vn 0.0038 1.0000 -0.0000
vn 0.0027 0.7071 0.7071
vn 0.4441 0.6642 0.6013
vn 0.5558 0.8313 -0.0000
vn 0.9528 -0.3037 -0.0000
vn 0.6914 -0.2204 0.6880
vn 0.4435 -0.6647 0.6012
vn 0.5550 -0.8319 -0.0000
vn 0.6914 0.2204 0.6880
vn 0.9528 0.3037 -0.0000
vn 0.6955 0.1453 0.7037
vn 0.9789 0.2045 -0.0000
vn 0.7452 -0.0000 0.6669
vn 1.0000 -0.0000 -0.0000
vn 0.6955 -0.1453 0.7037
vn 0.9789 -0.2045 -0.0000
vn 0.2383 0.9431 0.2318
vn -0.7072 0.7070 -0.0000
vn -0.5775 0.5773 0.5773
vn 0.0001 0.7071 0.7071
vn 0.2312 -0.9430 0.2394
vn -0.5493 -0.8048 0.2246
vn -0.2898 -0.4245 0.8578
vn -0.0013 -0.7071 0.7071
vn -0.8631 0.2644 -0.4304
vn -0.5486 0.8054 0.2244
vn -0.2891 0.4245 0.8581
vn -0.6586 0.2018 0.7250
vn -0.8631 -0.2644 -0.4303
vn -0.6586 -0.2018 0.7250
vn -0.8756 -0.1875 -0.4452
vn -0.6895 -0.1477 0.7091
vn -0.9137 -0.0000 -0.4063
vn -0.6555 -0.0000 0.7552
vn -0.8756 0.1875 -0.4452
vn -0.6895 0.1477 0.7091
vn 0.0013 -0.7071 -0.7071
vn -0.5767 -0.5781 -0.5773
vn -0.5775 0.5773 -0.5773
vn 0.0001 0.7071 -0.7071
vn 0.6914 0.2204 -0.6880
vn 0.6955 0.1453 -0.7037
vn -0.6895 -0.1477 -0.7091
vn -0.6586 -0.2018 -0.7250
vn 0.7452 -0.0000 -0.6669
vn -0.6555 -0.0000 -0.7552
vn -0.5760 0.5789 0.5772
vn -0.5782 -0.5765 0.5774
vn 0.6955 -0.1453 -0.7037
vn -0.6895 0.1477 -0.7091
vn 0.0027 0.7071 -0.7071
vn 0.4441 0.6642 -0.6013
vn -0.2898 -0.4245 -0.8578
vn -0.0013 -0.7071 -0.7071
vn 0.6914 -0.2204 -0.6880
vn -0.6586 0.2018 -0.7250
vn 0.4435 -0.6647 -0.6012
vn -0.2891 0.4245 -0.8581
vn -0.7054 0.7089 -0.0000
vn -0.5760 0.5789 -0.5772
vn -0.5782 -0.5765 -0.5774
vn -0.7082 -0.7060 -0.0000
vn -0.5279 -0.7734 -0.3510
vn -0.5271 0.7740 -0.3508
vn 0.2312 -0.9430 -0.2394
vn 0.2383 0.9431 -0.2318
vt 0.059453 0.155424
vt 0.748605 0.155424
vt 0.346653 0.234003
vt 0.059453 0.844576
vt 0.346653 0.780544
vt 0.748605 0.844576
vt 0.359017 0.155424
vt 0.359017 0.844576
vt 0.120075 0.234003
vt 0.445161 0.155424
vt 0.445161 0.844576
vt 0.120075 0.780544
vt 0.430804 0.844576
vt 0.416447 0.844576
vt 0.402089 0.844576
vt 0.387732 0.844576
vt 0.373375 0.844576
vt 0.373375 0.155424
vt 0.387732 0.155424
vt 0.402089 0.155424
vt 0.416447 0.155424
vt 0.430804 0.155424
vt 0.059453 0.844576
vt 0.059453 0.155424
vt 0.445161 0.155424
vt 0.748605 0.155424
vt 0.748605 0.844576
vt 0.359017 0.844576
vt 0.359017 0.155424
vt 0.373375 0.844576
vt 0.430804 0.155424
vt 0.445161 0.844576
vt 0.430804 0.844576
vt 0.416447 0.844576
vt 0.402089 0.844576
vt 0.387732 0.844576
vt 0.373375 0.155424
vt 0.387732 0.155424
vt 0.402089 0.155424
vt 0.416447 0.155424
vt 0.059453 0.176352
vt 0.748605 0.176352
vt 0.346653 0.250601
vt 0.359017 0.176352
vt 0.445161 0.176352
vt 0.084521 0.191000
vt 0.120075 0.250601
vt 0.373375 0.176352
vt 0.387732 0.176352
vt 0.402089 0.176352
vt 0.416447 0.176352
vt 0.430804 0.176352
vt 0.059453 0.176352
vt 0.748605 0.176352
vt 0.359017 0.176352
vt 0.859871 0.523881
vt 0.445161 0.176352
vt 0.976064 0.523883
vt 0.373375 0.176352
vt 0.878538 0.531225
vt 0.387732 0.176352
vt 0.899006 0.535797
vt 0.402089 0.176352
vt 0.917968 0.539684
vt 0.416447 0.176352
vt 0.936931 0.535797
vt 0.430804 0.176352
vt 0.957398 0.531225
vt 0.748605 0.817793
vt 0.346653 0.759303
vt 0.359017 0.817793
vt 0.445161 0.817793
vt 0.081786 0.811213
vt 0.120075 0.759303
vt 0.373375 0.817793
vt 0.387732 0.817793
vt 0.402089 0.817793
vt 0.416447 0.817793
vt 0.430804 0.817793
vt 0.748605 0.817793
vt 0.359017 0.817793
vt 0.859871 0.523881
vt 0.445161 0.817793
vt 0.976064 0.523883
vt 0.373375 0.817793
vt 0.878538 0.531225
vt 0.387732 0.817793
vt 0.899006 0.535797
vt 0.402089 0.817793
vt 0.917968 0.539684
vt 0.416447 0.817793
vt 0.936931 0.535797
vt 0.430804 0.817793
vt 0.957398 0.531225
vt 0.059453 0.817793
vt 0.059453 0.817793
vt 0.078947 0.844576
vt 0.078947 0.155424
vt 0.078947 0.844576
vt 0.078947 0.155424
vt 0.078947 0.176352
vt 0.859224 0.213691
vt 0.859224 0.177228
vt 0.078947 0.176352
vt 0.078947 0.817793
vt 0.859224 0.177228
vt 0.859224 0.738873
vt 0.078947 0.817793
vt 0.335040 0.234003
vt 0.733052 0.155424
vt 0.733052 0.844576
vt 0.335040 0.780544
vt 0.733052 0.155424
vt 0.733052 0.844576
vt 0.733052 0.176352
vt 0.976004 0.213691
vt 0.976004 0.172110
vt 0.355551 0.185232
vt 0.335040 0.250601
vt 0.733052 0.817793
vt 0.976004 0.172110
vt 0.976004 0.738873
vt 0.348714 0.809291
vt 0.335040 0.759303
s 1
usemtl Book_5
f 440/678/281 434/666/282 356/559/283 407/624/284
f 432/662/285 425/651/286 358/562/287 408/625/288
f 414/633/289 361/567/290 360/565/291 409/626/292
f 408/625/288 358/562/287 365/571/293 410/629/294
f 410/629/294 365/571/293 364/570/295 411/630/296
f 411/630/296 364/570/295 363/569/297 412/631/298
f 412/631/298 363/569/297 362/568/299 413/632/300
f 413/632/300 362/568/299 361/567/290 414/633/289
f 439/674/301 415/634/302 375/581/303 436/668/304
f 431/659/305 416/635/306 376/582/307 427/653/308
f 422/647/309 417/637/310 380/586/311 381/587/312
f 416/635/306 418/639/313 378/584/314 376/582/307
f 418/639/313 419/641/315 384/590/316 378/584/314
f 419/641/315 420/643/317 383/589/318 384/590/316
f 420/643/317 421/645/319 382/588/320 383/589/318
f 421/645/319 422/647/309 381/587/312 382/588/320
f 433/664/321 354/556/322 374/580/323 435/667/324
f 366/572/325 367/573/326 386/592/327 385/591/328
f 407/623/284 356/560/283 375/581/303 415/634/302
f 367/573/326 368/574/329 387/593/330 386/592/327
f 360/565/291 361/567/290 381/587/312 380/586/311
f 425/651/286 355/558/331 371/577/332 427/653/308
f 368/574/329 369/575/333 388/594/334 387/593/330
f 361/567/290 362/568/299 382/588/320 381/587/312
f 426/652/335 357/561/336 377/583/337 428/654/338
f 369/575/333 370/576/339 379/585/340 388/594/334
f 362/568/299 363/569/297 383/589/318 382/588/320
f 365/571/293 358/562/287 376/582/307 378/584/314
f 363/569/297 364/570/295 384/590/316 383/589/318
f 364/570/295 365/571/293 378/584/314 384/590/316
f 370/576/339 359/564/341 373/579/342 379/585/340
f 389/595/343 353/555/344 372/578/345 398/607/346
f 357/561/336 366/572/325 385/591/328 377/583/337
f 434/665/282 360/565/291 380/586/311 436/668/304
f 423/649/343 389/595/343 398/607/346 424/650/346
f 354/556/322 390/596/284 399/608/302 374/580/323
f 388/594/334 379/585/340 406/621/309 405/619/319
f 387/593/330 388/594/334 405/619/319 404/617/317
f 386/592/327 387/593/330 404/617/317 403/615/315
f 385/591/328 386/592/327 403/615/315 402/613/313
f 377/583/337 385/591/328 402/613/313 400/609/347
f 379/585/340 373/579/342 401/611/348 406/621/309
f 428/654/338 377/583/337 400/609/347 429/655/349
f 435/667/324 374/580/323 399/608/302 437/669/350
f 369/575/333 396/605/300 397/606/289 370/576/339
f 368/574/329 395/604/298 396/605/300 369/575/333
f 367/573/326 394/603/296 395/604/298 368/574/329
f 366/572/325 393/602/294 394/603/296 367/573/326
f 357/561/336 391/598/288 393/602/294 366/572/325
f 370/576/339 397/606/289 392/599/292 359/564/341
f 426/652/335 430/658/285 391/598/288 357/561/336
f 433/663/321 438/673/281 390/597/284 354/557/322
f 355/558/331 423/649/343 424/650/346 371/577/332
f 390/596/284 407/623/284 415/634/302 399/608/302
f 405/619/319 406/621/309 422/647/309 421/645/319
f 404/617/317 405/619/319 421/645/319 420/643/317
f 403/615/315 404/617/317 420/643/317 419/641/315
f 402/613/313 403/615/315 419/641/315 418/639/313
f 400/609/347 402/613/313 418/639/313 416/635/306
f 406/621/309 401/611/348 417/637/310 422/647/309
f 429/655/349 400/609/347 416/635/306 431/659/305
f 437/669/350 399/608/302 415/634/302 439/674/301
f 396/605/300 413/632/300 414/633/289 397/606/289
f 395/604/298 412/631/298 413/632/300 396/605/300
f 394/603/296 411/630/296 412/631/298 395/604/298
f 393/602/294 410/629/294 411/630/296 394/603/296
f 391/598/288 408/625/288 410/629/294 393/602/294
f 397/606/289 414/633/289 409/626/292 392/599/292
f 430/658/285 432/662/285 408/625/288 391/598/288
f 438/673/281 440/678/281 407/624/284 390/597/284
f 389/595/343 423/649/343 432/662/285 430/658/285
f 398/607/346 429/655/349 431/659/305 424/650/346
f 353/555/344 389/595/343 430/658/285 426/652/335
f 372/578/345 428/654/338 429/655/349 398/607/346
f 353/555/344 426/652/335 428/654/338 372/578/345
f 358/562/287 425/651/286 427/653/308 376/582/307
f 424/650/346 431/659/305 427/653/308 371/577/332
f 423/649/343 355/558/331 425/651/286 432/662/285
f 392/600/292 409/627/292 440/677/281 438/672/281
f 401/611/348 437/669/350 439/674/301 417/637/310
f 359/563/341 392/601/292 438/673/281 433/663/321
f 373/579/342 435/667/324 437/669/350 401/611/348
f 356/560/283 434/665/282 436/668/304 375/581/303
f 359/564/341 433/664/321 435/667/324 373/579/342
f 417/637/310 439/674/301 436/668/304 380/586/311
f 409/628/292 360/566/291 434/666/282 440/678/281
f 431/660/305 439/675/301 417/638/310 416/636/306
f 406/622/309 401/612/348 400/610/347
f 402/614/313 406/622/309 400/610/347
f 418/640/313 422/648/309 416/636/306
f 422/648/309 417/638/310 416/636/306
f 406/622/309 402/614/313 403/616/315
f 422/648/309 418/640/313 419/642/315
f 405/620/319 406/622/309 403/616/315
f 421/646/319 422/648/309 419/642/315
f 405/620/319 403/616/315 404/618/317
f 421/646/319 419/642/315 420/644/317
f 429/656/349 431/661/305 439/676/301 437/670/350
f 429/657/349 400/610/347 401/612/348 437/671/350
g Book_6_Plane.005
v 5.530309 -0.243485 1.000000
v 5.530309 0.220247 1.000000
v 5.530309 -0.243485 -1.000000
v 5.530309 0.220247 -1.000000
v 4.210042 -0.238445 1.000000
v 4.210042 -0.238445 -1.000000
v 4.210042 0.217889 1.000000
v 4.210042 0.217889 -1.000000
v 4.178256 0.141834 -1.000000
v 4.161140 0.065778 -1.000000
v 4.146470 -0.010278 -1.000000
v 4.161140 -0.086333 -1.000000
v 4.178256 -0.162389 -1.000000
v 4.178256 -0.162389 1.000000
v 4.161140 -0.086333 1.000000
v 4.146470 -0.010278 1.000000
v 4.161140 0.065778 1.000000
v 4.178256 0.141834 1.000000
v 5.530338 -0.218660 -1.000000
v 5.530338 -0.218660 1.000000
v 4.216080 0.195645 1.000000
v 5.530323 0.195422 1.000000
v 5.530323 0.195422 -1.000000
v 4.216086 -0.216207 -1.000000
v 4.216086 -0.216207 1.000000
v 4.190053 -0.150039 -1.000000
v 4.190053 0.129483 1.000000
v 4.216080 0.195645 -1.000000
v 4.190053 0.129483 -1.000000
v 4.173849 0.056937 -1.000000
v 4.160070 -0.010278 -1.000000
v 4.173849 -0.077492 -1.000000
v 4.190053 -0.150039 1.000000
v 4.173849 -0.077492 1.000000
v 4.160070 -0.010278 1.000000
v 4.173849 0.056937 1.000000
v 5.530309 -0.243485 0.939264
v 5.530309 0.220247 0.939264
v 4.210042 -0.238445 0.939265
v 4.210042 0.217889 0.939265
v 4.178256 -0.162389 0.939265
v 4.161140 -0.086333 0.939265
v 4.146470 -0.010278 0.939265
v 4.161140 0.065778 0.939265
v 4.178256 0.141834 0.939265
v 5.530338 -0.218660 0.939264
v 5.530323 0.195422 0.939264
v 4.216086 -0.216207 0.939265
v 4.216080 0.195645 0.939265
v 4.190053 -0.150039 0.939265
v 4.173849 -0.077492 0.939265
v 4.160070 -0.010278 0.939265
v 4.173849 0.056937 0.939265
v 4.190053 0.129483 0.939265
v 5.530309 0.220247 -0.922272
v 4.210042 -0.238445 -0.922272
v 4.210042 0.217889 -0.922272
v 4.178256 -0.162389 -0.922272
v 4.161140 -0.086333 -0.922272
v 4.146470 -0.010278 -0.922272
v 4.161140 0.065778 -0.922272
v 4.178256 0.141834 -0.922272
v 5.530323 0.195422 -0.922272
v 4.216086 -0.216207 -0.922272
v 4.216080 0.195645 -0.922272
v 4.190053 -0.150039 -0.922272
v 4.173849 -0.077492 -0.922272
v 4.160070 -0.010278 -0.922272
v 4.173849 0.056937 -0.922272
v 4.190053 0.129483 -0.922272
v 5.530309 -0.243485 -0.922272
v 5.530338 -0.218660 -0.922272
v 5.444396 -0.243157 -1.000000
v 5.444396 -0.243157 1.000000
v 5.444816 -0.218500 -1.000000
v 5.444816 -0.218500 1.000000
v 5.444816 -0.218500 0.939264
v 5.444396 -0.243157 0.939264
v 5.444816 -0.218500 -0.922272
v 5.444396 -0.243157 -0.922272
v 5.462636 0.220126 1.000000
v 5.462636 0.220126 -1.000000
v 5.462959 0.195433 1.000000
v 5.462959 0.195433 -1.000000
v 5.462959 0.195433 0.939264
v 5.462636 0.220126 0.939264
v 5.462959 0.195433 -0.922272
v 5.462636 0.220126 -0.922272
vn 0.0018 -1.0000 -0.0000
vn 0.0013 -0.7071 0.7071
vn -0.5767 -0.5781 0.5773
vn -0.7063 -0.7079 -0.0000
vn 0.0038 1.0000 -0.0000
vn 0.0027 0.7071 0.7071
vn 0.4441 0.6642 0.6013
vn 0.5558 0.8313 -0.0000
vn 0.9528 -0.3037 -0.0000
vn 0.6914 -0.2204 0.6880
vn 0.4435 -0.6647 0.6012
vn 0.5550 -0.8319 -0.0000
vn 0.6914 0.2204 0.6880
vn 0.9528 0.3037 -0.0000
vn 0.6955 0.1453 0.7037
vn 0.9789 0.2045 -0.0000
vn 0.7452 -0.0000 0.6669
vn 1.0000 -0.0000 -0.0000
vn 0.6955 -0.1453 0.7037
vn 0.9789 -0.2045 -0.0000
vn 0.2383 0.9431 0.2318
vn -0.7072 0.7070 -0.0000
vn -0.5775 0.5773 0.5773
vn 0.0001 0.7071 0.7071
vn 0.2312 -0.9430 0.2394
vn -0.5493 -0.8048 0.2246
vn -0.2898 -0.4245 0.8578
vn -0.0013 -0.7071 0.7071
vn -0.8631 0.2644 -0.4304
vn -0.5486 0.8054 0.2244
vn -0.2891 0.4245 0.8581
vn -0.6586 0.2018 0.7250
vn -0.8631 -0.2644 -0.4303
vn -0.6586 -0.2018 0.7250
vn -0.8756 -0.1875 -0.4452
vn -0.6895 -0.1477 0.7091
vn -0.9137 -0.0000 -0.4063
vn -0.6555 -0.0000 0.7552
vn -0.8756 0.1875 -0.4452
vn -0.6895 0.1477 0.7091
vn 0.0013 -0.7071 -0.7071
vn -0.5767 -0.5781 -0.5773
vn -0.5775 0.5773 -0.5773
vn 0.0001 0.7071 -0.7071
vn 0.6914 0.2204 -0.6880
vn 0.6955 0.1453 -0.7037
vn -0.6895 -0.1477 -0.7091
vn -0.6586 -0.2018 -0.7250
vn 0.7452 -0.0000 -0.6669
vn -0.6555 -0.0000 -0.7552
vn -0.5760 0.5789 0.5772
vn -0.5782 -0.5765 0.5774
vn 0.6955 -0.1453 -0.7037
vn -0.6895 0.1477 -0.7091
vn 0.0027 0.7071 -0.7071
vn 0.4441 0.6642 -0.6013
vn -0.2898 -0.4245 -0.8578
vn -0.0013 -0.7071 -0.7071
vn 0.6914 -0.2204 -0.6880
vn -0.6586 0.2018 -0.7250
vn 0.4435 -0.6647 -0.6012
vn -0.2891 0.4245 -0.8581
vn -0.7054 0.7089 -0.0000
vn -0.5760 0.5789 -0.5772
vn -0.5782 -0.5765 -0.5774
vn -0.7082 -0.7060 -0.0000
vn -0.5279 -0.7734 -0.3510
vn -0.5271 0.7740 -0.3508
vn 0.2312 -0.9430 -0.2394
vn 0.2383 0.9431 -0.2318
vt 0.085810 0.202482
vt 0.043054 0.153789
vt 0.745319 0.153789
vt 0.321038 0.249082
vt 0.043054 0.856054
vt 0.085810 0.800300
vt 0.321038 0.785986
vt 0.745319 0.856054
vt 0.348318 0.153789
vt 0.352978 0.191070
vt 0.322078 0.195422
vt 0.322078 0.793239
vt 0.352978 0.818773
vt 0.348318 0.856054
vt 0.431441 0.191070
vt 0.084161 0.249081
vt 0.436101 0.153789
vt 0.431441 0.818773
vt 0.436101 0.856054
vt 0.084161 0.785986
vt 0.418363 0.818773
vt 0.421470 0.856054
vt 0.405286 0.818773
vt 0.406840 0.856054
vt 0.392209 0.818773
vt 0.392209 0.856054
vt 0.379132 0.818773
vt 0.377579 0.856054
vt 0.366055 0.818773
vt 0.362948 0.856054
vt 0.362948 0.153789
vt 0.366055 0.191070
vt 0.377579 0.153789
vt 0.379132 0.191070
vt 0.392209 0.153789
vt 0.392209 0.191070
vt 0.406840 0.153789
vt 0.405286 0.191070
vt 0.421470 0.153789
vt 0.418363 0.191070
vt 0.043054 0.856054
vt 0.043054 0.153789
vt 0.436101 0.153789
vt 0.745319 0.153789
vt 0.745319 0.856054
vt 0.348318 0.856054
vt 0.348318 0.153789
vt 0.362948 0.856054
vt 0.421470 0.153789
vt 0.436101 0.856054
vt 0.421470 0.856054
vt 0.406840 0.856054
vt 0.392209 0.856054
vt 0.377579 0.856054
vt 0.362948 0.153789
vt 0.377579 0.153789
vt 0.392209 0.153789
vt 0.406840 0.153789
vt 0.043054 0.175115
vt 0.085810 0.220637
vt 0.745319 0.175115
vt 0.321038 0.265386
vt 0.352978 0.210132
vt 0.322078 0.213576
vt 0.431441 0.210132
vt 0.083049 0.262912
vt 0.366055 0.210132
vt 0.379132 0.210132
vt 0.392209 0.210132
vt 0.405286 0.210132
vt 0.418363 0.210132
vt 0.043054 0.175115
vt 0.745319 0.175115
vt 0.348318 0.175115
vt 0.859145 0.553303
vt 0.436101 0.175115
vt 0.910628 0.553305
vt 0.362948 0.175115
vt 0.867416 0.560969
vt 0.377579 0.175115
vt 0.876485 0.565741
vt 0.392209 0.175115
vt 0.884887 0.569798
vt 0.406840 0.175115
vt 0.893289 0.565741
vt 0.421470 0.175115
vt 0.902358 0.560969
vt 0.745319 0.828761
vt 0.321038 0.765120
vt 0.352978 0.794378
vt 0.322078 0.770006
vt 0.431441 0.794378
vt 0.082424 0.765905
vt 0.366055 0.794378
vt 0.379132 0.794378
vt 0.392209 0.794378
vt 0.405286 0.794378
vt 0.418363 0.794378
vt 0.745319 0.828761
vt 0.349383 0.828761
vt 0.860210 0.553303
vt 0.859561 0.229613
vt 0.437167 0.828761
vt 0.911694 0.553305
vt 0.911045 0.229615
vt 0.364014 0.828761
vt 0.867833 0.237279
vt 0.378644 0.828761
vt 0.876901 0.242051
vt 0.393275 0.828761
vt 0.885304 0.246108
vt 0.407905 0.828761
vt 0.893706 0.242051
vt 0.422536 0.828761
vt 0.902774 0.237279
vt 0.043054 0.828761
vt 0.085810 0.777067
vt 0.043054 0.828761
vt 0.062918 0.856054
vt 0.102720 0.800300
vt 0.102720 0.202482
vt 0.062918 0.153789
vt 0.062918 0.856054
vt 0.062918 0.153789
vt 0.062918 0.175115
vt 0.858858 0.229536
vt 0.858858 0.191478
vt 0.113767 0.220637
vt 0.062918 0.828761
vt 0.858858 0.191478
vt 0.858858 0.777705
vt 0.113767 0.777067
vt 0.308897 0.249082
vt 0.729469 0.153789
vt 0.729469 0.856054
vt 0.308897 0.785986
vt 0.729469 0.153789
vt 0.729469 0.856054
vt 0.729469 0.175115
vt 0.910602 0.229536
vt 0.910602 0.186135
vt 0.306958 0.265351
vt 0.729469 0.828761
vt 0.910602 0.186135
vt 0.910602 0.777705
vt 0.307249 0.765622
s 1
usemtl Book_6
f 528/824/351 522/814/352 444/685/353 495/767/354
f 520/810/355 513/798/356 446/690/357 496/769/358
f 502/776/359 449/699/360 448/696/361 497/770/362
f 496/768/358 446/691/357 453/707/363 498/772/364
f 498/772/364 453/707/363 452/705/365 499/773/366
f 499/773/366 452/705/365 451/703/367 500/774/368
f 500/774/368 451/703/367 450/701/369 501/775/370
f 501/775/370 450/701/369 449/699/360 502/776/359
f 527/821/371 503/777/372 463/723/373 524/816/374
f 519/807/375 504/778/376 464/724/377 515/801/378
f 510/792/379 505/781/380 468/728/381 469/729/382
f 504/778/376 506/784/383 466/726/384 464/724/377
f 506/784/383 507/786/385 472/732/386 466/726/384
f 507/786/385 508/788/387 471/731/388 472/732/386
f 508/788/387 509/790/389 470/730/390 471/731/388
f 509/790/389 510/792/379 469/729/382 470/730/390
f 521/812/391 442/681/392 462/722/393 523/815/394
f 454/709/395 455/711/396 474/734/397 473/733/398
f 495/766/354 444/686/353 463/723/373 503/777/372
f 455/711/396 456/713/399 475/735/400 474/734/397
f 448/697/361 449/700/360 469/729/382 468/728/381
f 513/797/356 443/683/401 459/719/402 515/801/378
f 456/713/399 457/715/403 476/736/404 475/735/400
f 449/700/360 450/702/369 470/730/390 469/729/382
f 514/800/405 445/687/406 465/725/407 516/802/408
f 457/715/403 458/717/409 467/727/410 476/736/404
f 450/702/369 451/704/367 471/731/388 470/730/390
f 453/708/363 446/692/357 464/724/377 466/726/384
f 451/704/367 452/706/365 472/732/386 471/731/388
f 452/706/365 453/708/363 466/726/384 472/732/386
f 458/717/409 447/695/411 461/721/412 467/727/410
f 477/737/413 441/680/414 460/720/415 486/750/416
f 445/687/406 454/709/395 473/733/398 465/725/407
f 522/813/352 448/697/361 468/728/381 524/816/374
f 511/794/413 477/737/413 486/750/416 512/796/416
f 442/681/392 478/739/354 487/751/372 462/722/393
f 476/736/404 467/727/410 494/764/379 493/762/389
f 475/735/400 476/736/404 493/762/389 492/760/387
f 474/734/397 475/735/400 492/760/387 491/758/385
f 473/733/398 474/734/397 491/758/385 490/756/383
f 465/725/407 473/733/398 490/756/383 488/752/417
f 467/727/410 461/721/412 489/754/418 494/764/379
f 516/802/408 465/725/407 488/752/417 517/803/419
f 523/815/394 462/722/393 487/751/372 525/817/420
f 457/716/403 484/748/370 485/749/359 458/718/409
f 456/714/399 483/747/368 484/748/370 457/716/403
f 455/712/396 482/746/366 483/747/368 456/714/399
f 454/710/395 481/745/364 482/746/366 455/712/396
f 445/688/406 479/741/358 481/745/364 454/710/395
f 458/718/409 485/749/359 480/743/362 447/693/411
f 514/799/405 518/806/355 479/742/358 445/689/406
f 521/811/391 526/820/351 478/740/354 442/682/392
f 443/683/401 511/794/413 512/796/416 459/719/402
f 478/739/354 495/766/354 503/777/372 487/751/372
f 493/762/389 494/764/379 510/792/379 509/790/389
f 492/760/387 493/762/389 509/790/389 508/788/387
f 491/758/385 492/760/387 508/788/387 507/786/385
f 490/756/383 491/758/385 507/786/385 506/784/383
f 488/752/417 490/756/383 506/784/383 504/778/376
f 494/764/379 489/754/418 505/781/380 510/792/379
f 517/803/419 488/752/417 504/778/376 519/807/375
f 525/817/420 487/751/372 503/777/372 527/821/371
f 484/748/370 501/775/370 502/776/359 485/749/359
f 483/747/368 500/774/368 501/775/370 484/748/370
f 482/746/366 499/773/366 500/774/368 483/747/368
f 481/745/364 498/772/364 499/773/366 482/746/366
f 479/741/358 496/768/358 498/772/364 481/745/364
f 485/749/359 502/776/359 497/770/362 480/743/362
f 518/806/355 520/810/355 496/769/358 479/742/358
f 526/820/351 528/824/351 495/767/354 478/740/354
f 477/738/413 511/795/413 520/810/355 518/806/355
f 486/750/416 517/803/419 519/807/375 512/796/416
f 441/679/414 477/738/413 518/806/355 514/799/405
f 460/720/415 516/802/408 517/803/419 486/750/416
f 441/680/414 514/800/405 516/802/408 460/720/415
f 446/692/357 513/797/356 515/801/378 464/724/377
f 512/796/416 519/807/375 515/801/378 459/719/402
f 511/795/413 443/684/401 513/798/356 520/810/355
f 480/744/362 497/771/362 528/824/351 526/820/351
f 489/754/418 525/817/420 527/821/371 505/781/380
f 447/694/411 480/744/362 526/820/351 521/811/391
f 461/721/412 523/815/394 525/817/420 489/754/418
f 444/686/353 522/813/352 524/816/374 463/723/373
f 447/695/411 521/812/391 523/815/394 461/721/412
f 505/781/380 527/821/371 524/816/374 468/728/381
f 497/771/362 448/698/361 522/814/352 528/824/351
f 519/808/375 527/822/371 505/782/380 504/779/376
f 494/765/379 489/755/418 488/753/417
f 490/757/383 494/765/379 488/753/417
f 506/785/383 510/793/379 504/780/376
f 510/793/379 505/783/380 504/780/376
f 494/765/379 490/757/383 491/759/385
f 510/793/379 506/785/383 507/787/385
f 493/763/389 494/765/379 491/759/385
f 509/791/389 510/793/379 507/787/385
f 493/763/389 491/759/385 492/761/387
f 509/791/389 507/787/385 508/789/387
f 517/804/419 519/809/375 527/823/371 525/818/420
f 517/805/419 488/753/417 489/755/418 525/819/420
