# Blender 3.5.0
# www.blender.org
mtllib Bookcase.mtl
g Bookcase_Cube
v 0.601155 2.012510 -0.237958
v 0.601155 0.012510 -0.237958
v -0.601155 2.012510 -0.237958
v -0.601155 0.012510 -0.237958
v -0.517239 0.142002 -0.219655
v -0.517239 1.974170 -0.219655
v 0.517239 1.974170 -0.219655
v 0.517239 0.142002 -0.219655
v -0.601155 0.012510 0.261781
v -0.601155 2.012510 0.261781
v 0.601155 2.012510 0.261781
v 0.601155 0.012510 0.261781
v -0.517239 0.142002 0.261781
v -0.517239 1.974170 0.261781
v 0.517239 1.974170 0.261781
v 0.517239 0.142002 0.261781
v -0.529794 1.986724 0.233796
v -0.588601 1.999955 0.233796
v 0.588601 1.999955 0.233796
v 0.529794 1.986724 0.233796
v -0.588601 0.054967 0.233796
v 0.588601 0.054967 0.233796
v -0.529794 0.145714 0.233796
v 0.529794 0.145714 0.233796
v 0.529794 1.986724 0.255172
v 0.523185 1.980115 0.261781
v 0.528908 1.985838 0.258477
v 0.526489 1.983419 0.260896
v 0.523185 0.143760 0.261781
v 0.529794 0.145714 0.255172
v 0.526489 0.144737 0.260896
v 0.528908 0.145452 0.258477
v -0.523185 1.980115 0.261781
v -0.529794 1.986724 0.255172
v -0.526489 1.983419 0.260896
v -0.528908 1.985838 0.258477
v -0.529794 0.145714 0.255172
v -0.523185 0.143760 0.261781
v -0.528908 0.145452 0.258477
v -0.526489 0.144737 0.260896
v -0.595210 0.032616 0.261781
v -0.588601 0.054967 0.255172
v -0.591906 0.043791 0.260896
v -0.589487 0.051972 0.258477
v -0.595210 2.006564 0.261781
v -0.588601 1.999955 0.255172
v -0.581992 1.999955 0.261781
v -0.591906 2.003260 0.260896
v -0.589487 2.000841 0.258477
v 0.588601 1.999955 0.255172
v 0.595210 2.006564 0.261781
v 0.581992 1.999955 0.261781
v 0.589487 2.000841 0.258477
v 0.591906 2.003260 0.260896
v 0.588601 0.054967 0.255172
v 0.595210 0.032616 0.261781
v 0.589487 0.051972 0.258477
v 0.591906 0.043791 0.260896
v 0.601155 1.679176 -0.237958
v 0.601155 1.345843 -0.237958
v 0.601155 1.012510 -0.237958
v 0.601155 0.679176 -0.237958
v 0.601155 0.345843 -0.237958
v -0.601155 0.345843 0.261781
v -0.601155 0.679176 0.261781
v -0.601155 1.012510 0.261781
v -0.601155 1.345843 0.261781
v -0.601155 1.679176 0.261781
v 0.601155 1.679176 0.261781
v 0.601155 1.345843 0.261781
v 0.601155 1.012510 0.261781
v 0.601155 0.679176 0.261781
v 0.601155 0.345843 0.261781
v -0.601155 1.679176 -0.237958
v -0.601155 1.345843 -0.237958
v -0.601155 1.012510 -0.237958
v -0.601155 0.679176 -0.237958
v -0.601155 0.345843 -0.237958
v -0.511191 0.453411 0.261781
v -0.511191 0.758773 0.261781
v -0.511191 1.064134 0.261781
v -0.511191 1.369495 0.261781
v -0.511191 1.674857 0.261781
v 0.511191 1.674857 0.261781
v 0.511191 1.369495 0.261781
v 0.511191 1.064134 0.261781
v 0.511191 0.758773 0.261781
v 0.511191 0.453411 0.261781
v -0.517239 0.447363 -0.219655
v -0.517239 0.752724 -0.219655
v -0.517239 1.058086 -0.219655
v -0.517239 1.363447 -0.219655
v -0.517239 1.668808 -0.219655
v 0.517239 1.668808 -0.219655
v 0.517239 1.363447 -0.219655
v 0.517239 1.058086 -0.219655
v 0.517239 0.752724 -0.219655
v 0.517239 0.447363 -0.219655
v -0.588601 0.379131 0.233796
v -0.588601 0.703296 0.233796
v -0.588601 1.027461 0.233796
v -0.588601 1.351626 0.233796
v -0.588601 1.675791 0.233796
v 0.588601 1.675791 0.233796
v 0.588601 1.351626 0.233796
v 0.588601 1.027461 0.233796
v 0.588601 0.703296 0.233796
v 0.588601 0.379131 0.233796
v -0.529794 0.452549 0.233796
v -0.529794 0.759384 0.233796
v -0.529794 1.066219 0.233796
v -0.529794 1.373054 0.233796
v -0.529794 1.679889 0.233796
v 0.529794 1.679889 0.233796
v 0.529794 1.373054 0.233796
v 0.529794 1.066219 0.233796
v 0.529794 0.759384 0.233796
v 0.529794 0.452549 0.233796
v -0.588601 0.379131 0.255172
v -0.588601 0.703296 0.255172
v -0.588601 1.027461 0.255172
v -0.588601 1.351626 0.255172
v -0.588601 1.675791 0.255172
v -0.589487 1.676029 0.258477
v -0.589487 1.351218 0.258477
v -0.589487 1.026407 0.258477
v -0.589487 0.701595 0.258477
v -0.589487 0.376784 0.258477
v -0.591906 1.676682 0.260896
v -0.591906 1.350104 0.260896
v -0.591906 1.023525 0.260896
v -0.591906 0.696947 0.260896
v -0.591906 0.370369 0.260896
v -0.595210 1.677573 0.261781
v -0.595210 1.348582 0.261781
v -0.595210 1.019590 0.261781
v -0.595210 0.690599 0.261781
v -0.595210 0.361607 0.261781
v 0.588601 1.675791 0.255172
v 0.588601 1.351626 0.255172
v 0.588601 1.027461 0.255172
v 0.588601 0.703296 0.255172
v 0.588601 0.379131 0.255172
v 0.589487 0.376784 0.258477
v 0.589487 0.701595 0.258477
v 0.589487 1.026407 0.258477
v 0.589487 1.351218 0.258477
v 0.589487 1.676029 0.258477
v 0.591906 0.370369 0.260896
v 0.591906 0.696947 0.260896
v 0.591906 1.023525 0.260896
v 0.591906 1.350104 0.260896
v 0.591906 1.676682 0.260896
v 0.595210 0.361607 0.261781
v 0.595210 0.690599 0.261781
v 0.595210 1.019590 0.261781
v 0.595210 1.348582 0.261781
v 0.595210 1.677573 0.261781
v -0.523185 0.449819 0.261781
v -0.523185 0.755878 0.261781
v -0.523185 1.061937 0.261781
v -0.523185 1.367997 0.261781
v -0.523185 1.674056 0.261781
v -0.526489 1.676972 0.260896
v -0.526489 1.370525 0.260896
v -0.526489 1.064078 0.260896
v -0.526489 0.757631 0.260896
v -0.526489 0.451184 0.260896
v -0.528908 1.679107 0.258477
v -0.528908 1.372376 0.258477
v -0.528908 1.065645 0.258477
v -0.528908 0.758914 0.258477
v -0.528908 0.452183 0.258477
v -0.529794 1.679889 0.255172
v -0.529794 1.373054 0.255172
v -0.529794 1.066219 0.255172
v -0.529794 0.759384 0.255172
v -0.529794 0.452549 0.255172
v 0.523185 1.674056 0.261781
v 0.523185 1.367997 0.261781
v 0.523185 1.061937 0.261781
v 0.523185 0.755878 0.261781
v 0.523185 0.449819 0.261781
v 0.526489 0.451184 0.260896
v 0.526489 0.757631 0.260896
v 0.526489 1.064078 0.260896
v 0.526489 1.370525 0.260896
v 0.526489 1.676972 0.260896
v 0.528908 0.452183 0.258477
v 0.528908 0.758914 0.258477
v 0.528908 1.065645 0.258477
v 0.528908 1.372376 0.258477
v 0.528908 1.679107 0.258477
v 0.529794 0.452549 0.255172
v 0.529794 0.759384 0.255172
v 0.529794 1.066219 0.255172
v 0.529794 1.373054 0.255172
v 0.529794 1.679889 0.255172
v -0.601155 1.709479 0.261781
v -0.511191 1.690520 0.261781
v -0.517239 1.696569 -0.219655
v -0.588601 1.705260 0.233796
v -0.529794 1.707783 0.233796
v -0.588601 1.705260 0.255172
v 0.589487 1.705558 0.258477
v 0.591906 1.706371 0.260896
v 0.595210 1.707481 0.261781
v -0.523185 1.701879 0.261781
v 0.526489 1.704831 0.260896
v 0.528908 1.706992 0.258477
v 0.529794 1.707783 0.255172
v 0.601155 1.709479 -0.237958
v 0.601155 1.709479 0.261781
v -0.601155 1.709479 -0.237958
v 0.511191 1.690520 0.261781
v 0.517239 1.696569 -0.219655
v 0.588601 1.705260 0.233796
v 0.529794 1.707783 0.233796
v -0.589487 1.705558 0.258477
v -0.591906 1.706371 0.260896
v -0.595210 1.707481 0.261781
v 0.588601 1.705260 0.255172
v -0.526489 1.704831 0.260896
v -0.528908 1.706992 0.258477
v -0.529794 1.707783 0.255172
v 0.523185 1.701879 0.261781
v 0.601155 1.379934 -0.237958
v -0.601155 1.379934 0.261781
v 0.601155 1.379934 0.261781
v -0.601155 1.379934 -0.237958
v -0.511191 1.388629 0.261781
v 0.511191 1.388629 0.261781
v -0.517239 1.394677 -0.219655
v 0.517239 1.394677 -0.219655
v -0.588601 1.384779 0.233796
v 0.588601 1.384779 0.233796
v -0.529794 1.404435 0.233796
v 0.529794 1.404435 0.233796
v -0.588601 1.384779 0.255172
v -0.589487 1.384437 0.258477
v -0.591906 1.383504 0.260896
v -0.595210 1.382228 0.261781
v 0.588601 1.384779 0.255172
v 0.589487 1.384437 0.258477
v 0.591906 1.383504 0.260896
v 0.595210 1.382228 0.261781
v -0.523185 1.399298 0.261781
v -0.526489 1.401866 0.260896
v -0.528908 1.403747 0.258477
v -0.529794 1.404435 0.255172
v 0.523185 1.399298 0.261781
v 0.526489 1.401866 0.260896
v 0.528908 1.403747 0.258477
v 0.529794 1.404435 0.255172
v 0.601155 1.046364 -0.237958
v -0.601155 1.046364 0.261781
v 0.601155 1.046364 0.261781
v -0.601155 1.046364 -0.237958
v -0.511191 1.083051 0.261781
v 0.511191 1.083051 0.261781
v -0.517239 1.089099 -0.219655
v 0.517239 1.089099 -0.219655
v -0.588601 1.060384 0.233796
v 0.588601 1.060384 0.233796
v -0.529794 1.097382 0.233796
v 0.529794 1.097382 0.233796
v -0.588601 1.060384 0.255172
v -0.589487 1.059395 0.258477
v -0.591906 1.056694 0.260896
v -0.595210 1.053003 0.261781
v 0.588601 1.060384 0.255172
v 0.589487 1.059395 0.258477
v 0.591906 1.056694 0.260896
v 0.595210 1.053003 0.261781
v -0.523185 1.093022 0.261781
v -0.526489 1.095202 0.260896
v -0.528908 1.096798 0.258477
v -0.529794 1.097382 0.255172
v 0.523185 1.093022 0.261781
v 0.526489 1.095202 0.260896
v 0.528908 1.096798 0.258477
v 0.529794 1.097382 0.255172
v 0.601155 0.710426 -0.237958
v -0.601155 0.710426 0.261781
v 0.601155 0.710426 0.261781
v -0.601155 0.710426 -0.237958
v -0.511191 0.775304 0.261781
v 0.511191 0.775304 0.261781
v -0.517239 0.781352 -0.219655
v 0.517239 0.781352 -0.219655
v -0.588601 0.733687 0.233796
v 0.588601 0.733687 0.233796
v -0.529794 0.788150 0.233796
v 0.529794 0.788150 0.233796
v -0.588601 0.733687 0.255172
v -0.589487 0.732046 0.258477
v -0.591906 0.727564 0.260896
v -0.595210 0.721442 0.261781
v 0.588601 0.733687 0.255172
v 0.589487 0.732046 0.258477
v 0.591906 0.727564 0.260896
v 0.595210 0.721442 0.261781
v -0.523185 0.784571 0.261781
v -0.526489 0.786360 0.260896
v -0.528908 0.787670 0.258477
v -0.529794 0.788150 0.255172
v 0.523185 0.784571 0.261781
v 0.526489 0.786360 0.260896
v 0.528908 0.787670 0.258477
v 0.529794 0.788150 0.255172
v 0.601155 0.377093 -0.237958
v -0.601155 0.377093 0.261781
v 0.601155 0.377093 0.261781
v -0.601155 0.377093 -0.237958
v -0.511191 0.469943 0.261781
v 0.511191 0.469943 0.261781
v -0.517239 0.475991 -0.219655
v 0.517239 0.475991 -0.219655
v -0.588601 0.409522 0.233796
v 0.588601 0.409522 0.233796
v -0.529794 0.481315 0.233796
v 0.529794 0.481315 0.233796
v -0.588601 0.409522 0.255172
v -0.589487 0.407235 0.258477
v -0.591906 0.400986 0.260896
v -0.595210 0.392450 0.261781
v 0.588601 0.409522 0.255172
v 0.589487 0.407235 0.258477
v 0.591906 0.400986 0.260896
v 0.595210 0.392450 0.261781
v -0.523185 0.478512 0.261781
v -0.526489 0.479913 0.260896
v -0.528908 0.480939 0.258477
v -0.529794 0.481315 0.255172
v 0.523185 0.478512 0.261781
v 0.526489 0.479913 0.260896
v 0.528908 0.480939 0.258477
v 0.529794 0.481315 0.255172
v 0.517239 1.696569 0.261781
v 0.517239 1.668808 0.261781
v 0.517239 1.394677 0.261781
v 0.517239 1.363447 0.261781
v 0.517239 1.089099 0.261781
v 0.517239 1.058086 0.261781
v 0.517239 0.781352 0.261781
v 0.517239 0.752724 0.261781
v 0.517239 0.475991 0.261781
v 0.517239 0.447363 0.261781
v -0.517239 1.668808 0.261781
v -0.517239 1.696569 0.261781
v -0.517239 1.363447 0.261781
v -0.517239 1.394677 0.261781
v -0.517239 1.058086 0.261781
v -0.517239 1.089099 0.261781
v -0.517239 0.752724 0.261781
v -0.517239 0.781352 0.261781
v -0.517239 0.447363 0.261781
v -0.517239 0.475991 0.261781
v 0.511191 1.690520 0.251491
v 0.511191 1.674857 0.251491
v 0.511191 1.388629 0.251491
v 0.511191 1.369495 0.251491
v 0.511191 1.083051 0.272071
v 0.511191 1.064134 0.272071
v 0.511191 0.775304 0.251491
v 0.511191 0.758773 0.251491
v 0.511191 0.469943 0.251491
v 0.511191 0.453411 0.251491
v -0.511191 1.674857 0.251491
v -0.511191 1.690520 0.251491
v -0.511191 1.369495 0.251491
v -0.511191 1.388629 0.251491
v -0.511191 1.064134 0.272071
v -0.511191 1.083051 0.272071
v -0.511191 0.758773 0.251491
v -0.511191 0.775304 0.251491
v -0.511191 0.453411 0.251491
v -0.511191 0.469943 0.251491
vn -0.0000 1.0000 -0.0000
vn -0.0000 -1.0000 -0.0000
vn -1.0000 -0.0000 -0.0000
vn 1.0000 -0.0000 -0.0000
vn -0.0000 -0.0000 -1.0000
vn -0.0000 -0.0000 1.0000
vn -0.8392 0.5438 -0.0000
vn 0.8392 0.5438 -0.0000
vn -0.2298 -0.4597 0.8578
vn -0.3142 -0.8097 0.4956
vn -0.2025 -0.9581 0.2025
vn 0.2025 -0.9581 0.2025
vn 0.3142 -0.8098 0.4956
vn 0.2298 -0.4597 0.8578
vn 0.9659 -0.0000 0.2588
vn 0.7071 -0.0000 0.7071
vn 0.2588 -0.0000 0.9659
vn -0.9659 -0.0000 0.2588
vn -0.7071 -0.0000 0.7071
vn -0.2588 -0.0000 0.9659
vn -0.0000 0.9659 0.2588
vn -0.0000 0.7071 0.7071
vn -0.0000 0.2588 0.9659
vn -0.2172 0.1407 0.9659
vn -0.5934 0.3845 0.7071
vn -0.8106 0.5253 0.2588
vn 0.2172 0.1408 0.9659
vn 0.5934 0.3845 0.7071
vn 0.8106 0.5253 0.2588
vt 0.327048 0.782849
vt 0.285625 0.950696
vt 0.327048 0.950696
vt 0.327048 0.782849
vt 0.327048 0.301043
vt 0.285625 0.301043
vt 0.034141 0.782849
vt 0.285625 0.950696
vt 0.034141 0.950696
vt 0.034141 0.782849
vt 0.034141 0.301043
vt 0.285625 0.301043
vt 0.281166 0.343106
vt 0.054585 0.776904
vt 0.054585 0.343106
vt 0.054585 0.776904
vt 0.054585 0.938243
vt 0.281166 0.938243
vt 0.306604 0.776904
vt 0.306604 0.938243
vt 0.281166 0.938243
vt 0.306604 0.776904
vt 0.281166 0.343106
vt 0.306604 0.343106
vt 0.034141 0.620520
vt 0.034141 0.301043
vt 0.163879 0.301043
vt 0.034141 0.620520
vt 0.163879 0.950696
vt 0.034141 0.950696
vt 0.327048 0.620520
vt 0.163879 0.950696
vt 0.327048 0.950696
vt 0.327048 0.620520
vt 0.327048 0.301043
vt 0.163879 0.301043
vt 0.163879 0.343106
vt 0.054585 0.620520
vt 0.054585 0.343106
vt 0.054585 0.620520
vt 0.163879 0.938243
vt 0.054585 0.938243
vt 0.306604 0.620520
vt 0.163879 0.938243
vt 0.306604 0.938243
vt 0.306604 0.620520
vt 0.306604 0.343106
vt 0.163879 0.343106
vt 0.051526 0.629611
vt 0.170696 0.942321
vt 0.051526 0.942321
vt 0.037200 0.629611
vt 0.037200 0.946618
vt 0.170696 0.946618
vt 0.170696 0.946618
vt 0.323990 0.629611
vt 0.323990 0.946618
vt 0.309663 0.629611
vt 0.309663 0.942321
vt 0.170696 0.942321
vt 0.170696 0.314835
vt 0.037200 0.314835
vt 0.323990 0.314835
vt 0.170696 0.314835
vt 0.051526 0.344312
vt 0.170696 0.344312
vt 0.309663 0.344312
vt 0.170696 0.344312
vt 0.309663 0.622667
vt 0.165489 0.942321
vt 0.308053 0.940174
vt 0.309447 0.621594
vt 0.164684 0.942033
vt 0.308858 0.620808
vt 0.308858 0.941247
vt 0.164094 0.941247
vt 0.308053 0.343677
vt 0.165489 0.344312
vt 0.164094 0.343994
vt 0.308858 0.343994
vt 0.309447 0.344227
vt 0.164684 0.344227
vt 0.053136 0.940174
vt 0.165489 0.942321
vt 0.051526 0.622667
vt 0.164094 0.941247
vt 0.052331 0.620808
vt 0.052331 0.941247
vt 0.164684 0.942033
vt 0.051742 0.621594
vt 0.165489 0.344312
vt 0.053136 0.343677
vt 0.051742 0.344227
vt 0.164684 0.344227
vt 0.164094 0.343994
vt 0.052331 0.343994
vt 0.035590 0.307575
vt 0.165489 0.314835
vt 0.036395 0.311205
vt 0.164094 0.311205
vt 0.036984 0.313862
vt 0.164684 0.313862
vt 0.035590 0.948765
vt 0.037200 0.622667
vt 0.165489 0.946618
vt 0.038810 0.946618
vt 0.038810 0.620520
vt 0.036395 0.620808
vt 0.036395 0.947692
vt 0.036984 0.621594
vt 0.164684 0.946906
vt 0.036984 0.946906
vt 0.323990 0.622667
vt 0.165489 0.946618
vt 0.325600 0.948765
vt 0.322379 0.620520
vt 0.322379 0.946618
vt 0.324205 0.621594
vt 0.164684 0.946906
vt 0.324205 0.946906
vt 0.324795 0.620808
vt 0.324795 0.947692
vt 0.165489 0.314835
vt 0.325600 0.307575
vt 0.324205 0.313862
vt 0.164684 0.313862
vt 0.324795 0.311205
vt 0.327048 0.842421
vt 0.285625 0.842421
vt 0.285625 0.734145
vt 0.327048 0.734145
vt 0.285625 0.625870
vt 0.327048 0.625870
vt 0.285625 0.517594
vt 0.327048 0.517594
vt 0.285625 0.409319
vt 0.327048 0.409319
vt 0.163879 0.409319
vt 0.034141 0.409319
vt 0.163879 0.517594
vt 0.034141 0.517594
vt 0.163879 0.625870
vt 0.034141 0.625870
vt 0.163879 0.734145
vt 0.034141 0.734145
vt 0.034141 0.842421
vt 0.163879 0.842421
vt 0.163879 0.842421
vt 0.327048 0.842421
vt 0.163879 0.734145
vt 0.327048 0.734145
vt 0.163879 0.625870
vt 0.327048 0.625870
vt 0.163879 0.517594
vt 0.327048 0.517594
vt 0.327048 0.409319
vt 0.163879 0.409319
vt 0.034141 0.842421
vt 0.285625 0.842421
vt 0.285625 0.734145
vt 0.034141 0.734145
vt 0.285625 0.625870
vt 0.034141 0.625870
vt 0.285625 0.517594
vt 0.034141 0.517594
vt 0.285625 0.409319
vt 0.034141 0.409319
vt 0.163879 0.444260
vt 0.056058 0.444260
vt 0.056058 0.620520
vt 0.056058 0.620520
vt 0.056058 0.543449
vt 0.163879 0.543449
vt 0.056058 0.642639
vt 0.163879 0.642639
vt 0.056058 0.620520
vt 0.056058 0.741828
vt 0.056058 0.620520
vt 0.163879 0.741828
vt 0.056058 0.841018
vt 0.056058 0.620520
vt 0.163879 0.841018
vt 0.305131 0.841018
vt 0.305131 0.620520
vt 0.163879 0.841018
vt 0.163879 0.741828
vt 0.305131 0.741828
vt 0.305131 0.620520
vt 0.163879 0.642639
vt 0.305131 0.642639
vt 0.305131 0.620520
vt 0.305131 0.620520
vt 0.305131 0.543449
vt 0.163879 0.543449
vt 0.305131 0.444260
vt 0.305131 0.620520
vt 0.163879 0.444260
vt 0.281166 0.442295
vt 0.054585 0.442295
vt 0.512160 0.387949
vt 0.054585 0.541485
vt 0.281166 0.541485
vt 0.353878 0.387421
vt 0.054585 0.640674
vt 0.281166 0.640674
vt 0.354851 0.486913
vt 0.054585 0.739864
vt 0.281166 0.739864
vt 0.513512 0.491840
vt 0.054585 0.839053
vt 0.281166 0.839053
vt 0.439608 0.592992
vt 0.281166 0.839053
vt 0.306604 0.839053
vt 0.589001 0.592992
vt 0.306604 0.739864
vt 0.281166 0.739864
vt 0.662905 0.491840
vt 0.306604 0.640674
vt 0.281166 0.640674
vt 0.504244 0.486913
vt 0.306604 0.541485
vt 0.281166 0.541485
vt 0.503271 0.387421
vt 0.306604 0.442295
vt 0.281166 0.442295
vt 0.661553 0.387949
vt 0.170696 0.420132
vt 0.037200 0.420132
vt 0.037200 0.525429
vt 0.170696 0.525429
vt 0.037200 0.630727
vt 0.170696 0.630727
vt 0.037200 0.736024
vt 0.170696 0.736024
vt 0.037200 0.841321
vt 0.170696 0.841321
vt 0.170696 0.841321
vt 0.323990 0.841321
vt 0.170696 0.736024
vt 0.323990 0.736024
vt 0.170696 0.630727
vt 0.323990 0.630727
vt 0.170696 0.525429
vt 0.323990 0.525429
vt 0.323990 0.420132
vt 0.170696 0.420132
vt 0.170696 0.443980
vt 0.051526 0.443980
vt 0.170696 0.543648
vt 0.051526 0.543648
vt 0.170696 0.643316
vt 0.051526 0.643316
vt 0.170696 0.742984
vt 0.051526 0.742984
vt 0.051526 0.842652
vt 0.170696 0.842652
vt 0.309663 0.842652
vt 0.170696 0.842652
vt 0.309663 0.742984
vt 0.170696 0.742984
vt 0.309663 0.643316
vt 0.170696 0.643316
vt 0.309663 0.543648
vt 0.170696 0.543648
vt 0.170696 0.443980
vt 0.309663 0.443980
vt 0.165489 0.420132
vt 0.165489 0.525429
vt 0.165489 0.630727
vt 0.165489 0.736024
vt 0.165489 0.841321
vt 0.036984 0.841399
vt 0.164684 0.841399
vt 0.164684 0.735891
vt 0.036984 0.735891
vt 0.164684 0.630384
vt 0.036984 0.630384
vt 0.164684 0.524877
vt 0.036984 0.524877
vt 0.164684 0.419369
vt 0.036395 0.841611
vt 0.036395 0.735529
vt 0.036395 0.629448
vt 0.164094 0.523367
vt 0.036395 0.523367
vt 0.164094 0.417286
vt 0.036395 0.417286
vt 0.035590 0.841900
vt 0.035590 0.735035
vt 0.035590 0.628170
vt 0.035590 0.521305
vt 0.035590 0.414440
vt 0.165489 0.841321
vt 0.165489 0.736024
vt 0.165489 0.630727
vt 0.165489 0.525429
vt 0.165489 0.420132
vt 0.324205 0.419369
vt 0.164684 0.419369
vt 0.164684 0.524877
vt 0.324205 0.524877
vt 0.164684 0.630384
vt 0.324205 0.630384
vt 0.164684 0.735891
vt 0.324205 0.735891
vt 0.164684 0.841399
vt 0.324205 0.841399
vt 0.324795 0.417286
vt 0.324795 0.523367
vt 0.324795 0.629448
vt 0.324795 0.735529
vt 0.164094 0.841611
vt 0.324795 0.841611
vt 0.325600 0.414440
vt 0.325600 0.521305
vt 0.325600 0.628170
vt 0.325600 0.735035
vt 0.325600 0.841900
vt 0.053136 0.443093
vt 0.053136 0.542509
vt 0.053136 0.641925
vt 0.053136 0.741342
vt 0.053136 0.840758
vt 0.164094 0.841705
vt 0.052331 0.841705
vt 0.052331 0.742163
vt 0.164094 0.742163
vt 0.052331 0.642621
vt 0.164094 0.642621
vt 0.052331 0.543079
vt 0.164094 0.543079
vt 0.052331 0.443537
vt 0.164094 0.443537
vt 0.164684 0.842399
vt 0.164684 0.742764
vt 0.164684 0.643130
vt 0.164684 0.543495
vt 0.164684 0.443861
vt 0.165489 0.842652
vt 0.165489 0.742984
vt 0.165489 0.643316
vt 0.165489 0.543648
vt 0.165489 0.443980
vt 0.308053 0.840758
vt 0.308053 0.741342
vt 0.308053 0.641925
vt 0.308053 0.542509
vt 0.308053 0.443093
vt 0.164094 0.443537
vt 0.308858 0.443537
vt 0.308858 0.543079
vt 0.164094 0.543079
vt 0.308858 0.642621
vt 0.164094 0.642621
vt 0.308858 0.742163
vt 0.164094 0.742163
vt 0.308858 0.841705
vt 0.164094 0.841705
vt 0.164684 0.443861
vt 0.164684 0.543495
vt 0.164684 0.643130
vt 0.164684 0.742764
vt 0.164684 0.842399
vt 0.165489 0.443980
vt 0.165489 0.543648
vt 0.165489 0.643316
vt 0.165489 0.742984
vt 0.165489 0.842652
vt 0.034141 0.852264
vt 0.163879 0.852264
vt 0.056058 0.846106
vt 0.056058 0.620520
vt 0.163879 0.846106
vt 0.281166 0.848070
vt 0.054585 0.848070
vt 0.443243 0.942442
vt 0.170696 0.850894
vt 0.037200 0.850894
vt 0.051526 0.851713
vt 0.170696 0.851713
vt 0.165489 0.850894
vt 0.164684 0.850990
vt 0.324205 0.850990
vt 0.164094 0.851254
vt 0.324795 0.851254
vt 0.325600 0.851615
vt 0.053136 0.849795
vt 0.308858 0.850754
vt 0.164094 0.850754
vt 0.164684 0.851456
vt 0.165489 0.851713
vt 0.327048 0.852264
vt 0.285625 0.852264
vt 0.327048 0.852264
vt 0.163879 0.852264
vt 0.034141 0.852264
vt 0.285625 0.852264
vt 0.305131 0.846106
vt 0.305131 0.620520
vt 0.163879 0.846106
vt 0.281166 0.848070
vt 0.306604 0.848070
vt 0.596890 0.942442
vt 0.323990 0.850894
vt 0.170696 0.850894
vt 0.309663 0.851713
vt 0.170696 0.851713
vt 0.036984 0.850990
vt 0.164684 0.850990
vt 0.036395 0.851254
vt 0.035590 0.851615
vt 0.165489 0.850894
vt 0.164094 0.850754
vt 0.052331 0.850754
vt 0.164684 0.851456
vt 0.165489 0.851713
vt 0.308053 0.849795
vt 0.285625 0.745219
vt 0.327048 0.745219
vt 0.163879 0.745219
vt 0.034141 0.745219
vt 0.163879 0.745219
vt 0.327048 0.745219
vt 0.285625 0.745219
vt 0.034141 0.745219
vt 0.056058 0.748043
vt 0.056058 0.620520
vt 0.163879 0.748043
vt 0.163879 0.748043
vt 0.305131 0.748043
vt 0.305131 0.620520
vt 0.054585 0.750008
vt 0.281166 0.750008
vt 0.360211 0.722281
vt 0.306604 0.750008
vt 0.281166 0.750008
vt 0.513859 0.722281
vt 0.170696 0.746793
vt 0.037200 0.746793
vt 0.170696 0.746793
vt 0.323990 0.746793
vt 0.170696 0.753178
vt 0.051526 0.753178
vt 0.309663 0.753178
vt 0.170696 0.753178
vt 0.165489 0.746793
vt 0.164684 0.746682
vt 0.036984 0.746682
vt 0.036395 0.746379
vt 0.035590 0.745964
vt 0.165489 0.746793
vt 0.164684 0.746682
vt 0.324205 0.746682
vt 0.324795 0.746379
vt 0.325600 0.745964
vt 0.053136 0.751509
vt 0.052331 0.752343
vt 0.164094 0.752343
vt 0.164684 0.752954
vt 0.165489 0.753178
vt 0.308053 0.751509
vt 0.308858 0.752343
vt 0.164094 0.752343
vt 0.164684 0.752954
vt 0.165489 0.753178
vt 0.285625 0.636867
vt 0.327048 0.636867
vt 0.163879 0.636867
vt 0.034141 0.636867
vt 0.163879 0.636867
vt 0.327048 0.636867
vt 0.285625 0.636867
vt 0.034141 0.636867
vt 0.056058 0.648784
vt 0.056058 0.620520
vt 0.163879 0.648784
vt 0.163879 0.648784
vt 0.305131 0.648784
vt 0.305131 0.620520
vt 0.054585 0.650748
vt 0.281166 0.650748
vt 0.527884 0.832117
vt 0.306604 0.650748
vt 0.281166 0.650748
vt 0.681531 0.832117
vt 0.170696 0.641421
vt 0.037200 0.641421
vt 0.170696 0.641421
vt 0.323990 0.641421
vt 0.170696 0.653439
vt 0.051526 0.653439
vt 0.309663 0.653439
vt 0.170696 0.653439
vt 0.165489 0.641421
vt 0.164684 0.641100
vt 0.036984 0.641100
vt 0.036395 0.640222
vt 0.035590 0.639023
vt 0.165489 0.641421
vt 0.164684 0.641100
vt 0.324205 0.641100
vt 0.324795 0.640222
vt 0.325600 0.639023
vt 0.053136 0.652022
vt 0.052331 0.652731
vt 0.164094 0.652731
vt 0.164684 0.653249
vt 0.165489 0.653439
vt 0.308053 0.652022
vt 0.308858 0.652731
vt 0.164094 0.652731
vt 0.164684 0.653249
vt 0.165489 0.653439
vt 0.285625 0.527745
vt 0.327048 0.527745
vt 0.163879 0.527745
vt 0.034141 0.527745
vt 0.163879 0.527745
vt 0.327048 0.527745
vt 0.285625 0.527745
vt 0.034141 0.527745
vt 0.056058 0.620520
vt 0.056058 0.548819
vt 0.163879 0.548819
vt 0.305131 0.620520
vt 0.305131 0.548819
vt 0.163879 0.548819
vt 0.054585 0.550784
vt 0.281166 0.550784
vt 0.526467 0.723208
vt 0.306604 0.550784
vt 0.281166 0.550784
vt 0.680114 0.723208
vt 0.170696 0.535301
vt 0.037200 0.535301
vt 0.170696 0.535301
vt 0.323990 0.535301
vt 0.170696 0.552992
vt 0.051526 0.552992
vt 0.309663 0.552992
vt 0.170696 0.552992
vt 0.165489 0.535301
vt 0.164684 0.534768
vt 0.036984 0.534768
vt 0.036395 0.533312
vt 0.035590 0.531323
vt 0.165489 0.535301
vt 0.164684 0.534768
vt 0.324205 0.534768
vt 0.324795 0.533312
vt 0.325600 0.531323
vt 0.053136 0.551830
vt 0.052331 0.552411
vt 0.164094 0.552411
vt 0.164684 0.552836
vt 0.165489 0.552992
vt 0.308053 0.551829
vt 0.308858 0.552411
vt 0.164094 0.552411
vt 0.164684 0.552836
vt 0.165489 0.552992
vt 0.285625 0.419470
vt 0.327048 0.419470
vt 0.163879 0.419470
vt 0.034141 0.419470
vt 0.163879 0.419470
vt 0.327048 0.419470
vt 0.285625 0.419470
vt 0.034141 0.419470
vt 0.163879 0.449630
vt 0.056058 0.449630
vt 0.056058 0.620520
vt 0.305131 0.449630
vt 0.163879 0.449630
vt 0.305131 0.620520
vt 0.054585 0.451594
vt 0.281166 0.451594
vt 0.360805 0.833275
vt 0.306604 0.451594
vt 0.281166 0.451594
vt 0.514452 0.833275
vt 0.170696 0.430004
vt 0.037200 0.430004
vt 0.170696 0.430004
vt 0.323990 0.430004
vt 0.170696 0.453324
vt 0.051526 0.453324
vt 0.309663 0.453324
vt 0.170696 0.453324
vt 0.165489 0.430004
vt 0.164684 0.429261
vt 0.164094 0.427231
vt 0.036395 0.427231
vt 0.035590 0.424458
vt 0.165489 0.430004
vt 0.164684 0.429261
vt 0.324205 0.429261
vt 0.324795 0.427231
vt 0.325600 0.424458
vt 0.053136 0.452413
vt 0.052331 0.452869
vt 0.164094 0.452869
vt 0.164684 0.453202
vt 0.165489 0.453324
vt 0.308053 0.452413
vt 0.308858 0.452869
vt 0.164094 0.452869
vt 0.164684 0.453202
vt 0.165489 0.453324
vt 0.163879 0.848070
vt 0.596890 0.847101
vt 0.306604 0.848070
vt 0.163879 0.839053
vt 0.589001 0.500291
vt 0.306604 0.839053
vt 0.163879 0.750008
vt 0.513859 0.626940
vt 0.306604 0.750008
vt 0.163879 0.739864
vt 0.662905 0.399139
vt 0.306604 0.739864
vt 0.163879 0.650748
vt 0.681531 0.736776
vt 0.306604 0.650748
vt 0.163879 0.640674
vt 0.504244 0.394212
vt 0.306604 0.640674
vt 0.163879 0.550784
vt 0.680114 0.627867
vt 0.306604 0.550784
vt 0.163879 0.541485
vt 0.503271 0.294720
vt 0.306604 0.541485
vt 0.163879 0.451594
vt 0.514452 0.737934
vt 0.306604 0.451594
vt 0.163879 0.442295
vt 0.661553 0.295247
vt 0.306604 0.442295
vt 0.163879 0.839053
vt 0.439608 0.500291
vt 0.054585 0.839053
vt 0.163879 0.848070
vt 0.443243 0.847101
vt 0.054585 0.848070
vt 0.163879 0.739864
vt 0.513512 0.399139
vt 0.054585 0.739864
vt 0.163879 0.750008
vt 0.360211 0.626940
vt 0.054585 0.750008
vt 0.163879 0.640674
vt 0.354851 0.394212
vt 0.054585 0.640674
vt 0.163879 0.650748
vt 0.527884 0.736776
vt 0.054585 0.650748
vt 0.163879 0.541485
vt 0.353878 0.294720
vt 0.054585 0.541485
vt 0.163879 0.550784
vt 0.526467 0.627867
vt 0.054585 0.550784
vt 0.163879 0.442295
vt 0.512160 0.295247
vt 0.054585 0.442295
vt 0.163879 0.451594
vt 0.360805 0.737934
vt 0.054585 0.451594
vt 0.305131 0.846106
vt 0.305131 0.623863
vt 0.166386 0.846106
vt 0.305131 0.841018
vt 0.305131 0.623863
vt 0.166386 0.841018
vt 0.166386 0.748043
vt 0.305131 0.748043
vt 0.305131 0.623863
vt 0.166386 0.741828
vt 0.305131 0.741828
vt 0.305131 0.623863
vt 0.161372 0.648784
vt 0.305131 0.648784
vt 0.305131 0.617178
vt 0.161372 0.642639
vt 0.305131 0.642639
vt 0.305131 0.617178
vt 0.305131 0.623863
vt 0.305131 0.548819
vt 0.166386 0.548819
vt 0.305131 0.623863
vt 0.305131 0.543449
vt 0.166386 0.543449
vt 0.305131 0.449630
vt 0.166386 0.449630
vt 0.305131 0.623863
vt 0.305131 0.444260
vt 0.305131 0.623863
vt 0.166386 0.444260
vt 0.056058 0.841018
vt 0.056058 0.623863
vt 0.166386 0.841018
vt 0.056058 0.846106
vt 0.056058 0.623863
vt 0.166386 0.846106
vt 0.056058 0.741828
vt 0.056058 0.623863
vt 0.166386 0.741828
vt 0.056058 0.748043
vt 0.056058 0.623863
vt 0.166386 0.748043
vt 0.056058 0.642639
vt 0.161372 0.642639
vt 0.056058 0.617178
vt 0.056058 0.648784
vt 0.056058 0.617178
vt 0.161372 0.648784
vt 0.056058 0.623863
vt 0.056058 0.543449
vt 0.166386 0.543449
vt 0.056058 0.623863
vt 0.056058 0.548819
vt 0.166386 0.548819
vt 0.166386 0.444260
vt 0.056058 0.444260
vt 0.056058 0.623863
vt 0.166386 0.449630
vt 0.056058 0.449630
vt 0.056058 0.623863
s 0
usemtl Bookcase
f 1/1/1 3/7/1 10/28/1 11/31/1
f 15/43/2 14/40/2 6/16/2 7/19/2
f 199/371/3 10/29/3 3/8/3 214/398/3
f 4/10/2 2/4/2 12/34/2 9/25/2
f 212/394/4 1/2/4 11/32/4 213/396/4
f 214/397/5 3/9/5 1/3/5 212/393/5
f 222/413/3 50/114/3 19/55/3 217/406/3
f 26/71/6 33/83/6 14/42/6 15/45/6
f 38/92/6 41/97/6 9/26/6 13/39/6
f 16/47/6 13/39/6 9/26/6 12/35/6
f 216/403/6 7/20/6 6/17/6 201/376/6
f 357/665/4 13/37/4 5/13/4 89/198/4
f 13/38/1 16/46/1 8/22/1 5/14/1
f 339/611/3 15/44/3 7/21/3 216/402/3
f 45/103/6 47/106/6 52/117/6 51/115/6 11/33/6 10/30/6
f 50/113/2 52/116/2 47/107/2 46/104/2 18/52/2 19/56/2
f 42/98/7 37/91/7 23/66/7 21/61/7
f 34/85/1 25/69/1 20/58/1 17/49/1
f 30/78/8 55/123/8 22/64/8 24/68/8
f 119/268/4 42/98/4 21/61/4 99/228/4
f 225/417/3 34/84/3 17/50/3 203/381/3
f 203/380/6 17/51/6 18/53/6 202/379/6
f 118/267/6 24/67/6 22/63/6 108/246/6
f 17/51/6 20/59/6 19/57/6 18/53/6
f 221/412/6 45/103/6 10/30/6 199/370/6
f 56/124/6 29/77/6 16/47/6 12/35/6
f 194/365/4 30/78/4 24/68/4 118/266/4
f 159/320/6 38/92/6 13/39/6 357/667/6
f 154/315/6 56/124/6 12/35/6 73/156/6
f 45/103/9 48/109/9 47/106/9
f 48/108/10 49/110/10 47/107/10
f 49/110/11 46/104/11 47/107/11
f 50/113/12 53/118/12 52/116/12
f 53/118/13 54/121/13 52/116/13
f 54/122/14 51/115/14 52/117/14
f 204/382/15 46/105/15 49/111/15 219/410/15
f 219/409/16 49/112/16 48/109/16 220/411/16
f 220/411/17 48/109/17 45/103/17 221/412/17
f 143/298/18 55/123/18 57/126/18 144/300/18
f 144/299/19 57/125/19 58/127/19 149/309/19
f 149/309/20 58/127/20 56/124/20 154/315/20
f 208/388/20 33/83/20 35/88/20 223/415/20
f 223/414/19 35/86/19 36/89/19 224/416/19
f 224/416/18 36/89/18 34/84/18 225/417/18
f 183/349/17 29/77/17 31/80/17 184/351/17
f 184/350/16 31/79/16 32/82/16 189/360/16
f 189/360/15 32/82/15 30/78/15 194/365/15
f 25/69/21 34/85/21 36/90/21 27/72/21
f 27/72/22 36/90/22 35/87/22 28/74/22
f 28/75/23 35/88/23 33/83/23 26/71/23
f 41/97/24 38/92/24 40/96/24 43/99/24
f 43/99/25 40/96/25 39/93/25 44/101/25
f 44/102/26 39/94/26 37/91/26 42/98/26
f 29/77/27 56/124/27 58/127/27 31/80/27
f 31/80/28 58/127/28 57/125/28 32/81/28
f 32/82/29 57/126/29 55/123/29 30/78/29
f 226/418/6 26/71/6 15/45/6 339/613/6
f 29/77/6 183/349/6 348/640/6 16/47/6
f 335/606/6 182/348/6 346/634/6 347/637/6
f 307/558/6 181/347/6 344/628/6 345/631/6
f 279/510/6 180/346/6 342/622/6 343/625/6
f 251/462/6 179/345/6 340/616/6 341/619/6
f 210/391/15 193/364/15 198/369/15 211/392/15
f 253/465/15 192/363/15 197/368/15 254/466/15
f 281/513/15 191/362/15 196/367/15 282/514/15
f 309/561/15 190/361/15 195/366/15 310/562/15
f 337/609/15 189/360/15 194/365/15 338/610/15
f 209/390/16 188/359/16 193/364/16 210/391/16
f 252/464/16 187/357/16 192/363/16 253/465/16
f 280/512/16 186/355/16 191/362/16 281/513/16
f 308/560/16 185/353/16 190/361/16 309/561/16
f 336/608/16 184/350/16 189/360/16 337/609/16
f 226/418/17 179/345/17 188/358/17 209/389/17
f 251/462/17 180/346/17 187/356/17 252/463/17
f 279/510/17 181/347/17 186/354/17 280/511/17
f 307/558/17 182/348/17 185/352/17 308/559/17
f 335/606/17 183/349/17 184/351/17 336/607/17
f 39/94/18 173/339/18 178/344/18 37/91/18
f 333/604/18 172/338/18 177/343/18 334/605/18
f 305/556/18 171/337/18 176/342/18 306/557/18
f 277/508/18 170/336/18 175/341/18 278/509/18
f 249/460/18 169/335/18 174/340/18 250/461/18
f 40/95/19 168/334/19 173/339/19 39/94/19
f 332/603/19 167/332/19 172/338/19 333/604/19
f 304/555/19 166/330/19 171/337/19 305/556/19
f 276/507/19 165/328/19 170/336/19 277/508/19
f 248/459/19 164/325/19 169/335/19 249/460/19
f 38/92/20 159/320/20 168/333/20 40/96/20
f 331/601/20 160/321/20 167/331/20 332/602/20
f 303/553/20 161/322/20 166/329/20 304/554/20
f 275/505/20 162/323/20 165/327/20 276/506/20
f 247/457/20 163/324/20 164/326/20 248/458/20
f 206/386/20 153/314/20 158/319/20 207/387/20
f 245/455/20 152/312/20 157/318/20 246/456/20
f 273/503/20 151/311/20 156/317/20 274/504/20
f 301/551/20 150/310/20 155/316/20 302/552/20
f 329/599/20 149/309/20 154/315/20 330/600/20
f 205/383/19 148/307/19 153/313/19 206/385/19
f 244/454/19 147/306/19 152/312/19 245/455/19
f 272/502/19 146/304/19 151/311/19 273/503/19
f 300/550/19 145/302/19 150/310/19 301/551/19
f 328/598/19 144/299/19 149/309/19 329/599/19
f 222/413/18 139/294/18 148/307/18 205/383/18
f 243/452/18 140/295/18 147/305/18 244/453/18
f 271/500/18 141/296/18 146/303/18 272/501/18
f 299/548/18 142/297/18 145/301/18 300/549/18
f 327/596/18 143/298/18 144/300/18 328/597/18
f 43/99/17 133/288/17 138/293/17 41/97/17
f 325/594/17 132/286/17 137/292/17 326/595/17
f 297/546/17 131/284/17 136/291/17 298/547/17
f 269/498/17 130/283/17 135/290/17 270/499/17
f 241/450/17 129/282/17 134/289/17 242/451/17
f 44/102/16 128/281/16 133/287/16 43/100/16
f 324/592/16 127/279/16 132/285/16 325/593/16
f 296/545/16 126/278/16 131/284/16 297/546/16
f 268/497/16 125/276/16 130/283/16 269/498/16
f 240/449/16 124/273/16 129/282/16 241/450/16
f 42/98/15 119/268/15 128/281/15 44/102/15
f 323/591/15 120/269/15 127/279/15 324/592/15
f 295/543/15 121/270/15 126/277/15 296/544/15
f 267/495/15 122/271/15 125/275/15 268/496/15
f 239/447/15 123/272/15 124/274/15 240/448/15
f 207/387/6 158/319/6 69/149/6 213/395/6
f 246/456/6 157/318/6 70/151/6 229/424/6
f 274/504/6 156/317/6 71/153/6 257/472/6
f 302/552/6 155/316/6 72/155/6 285/520/6
f 330/600/6 154/315/6 73/156/6 313/568/6
f 208/388/6 163/324/6 349/643/6 350/646/6
f 247/457/6 162/323/6 351/649/6 352/652/6
f 275/505/6 161/322/6 353/655/6 354/658/6
f 303/553/6 160/321/6 355/661/6 356/664/6
f 331/601/6 159/320/6 357/667/6 358/670/6
f 211/392/4 198/369/4 114/259/4 218/408/4
f 254/466/4 197/368/4 115/261/4 238/446/4
f 282/514/4 196/367/4 116/263/4 266/494/4
f 310/562/4 195/366/4 117/265/4 294/542/4
f 338/610/4 194/365/4 118/266/4 322/590/4
f 41/97/6 138/293/6 64/139/6 9/26/6
f 326/595/6 137/292/6 65/141/6 312/566/6
f 298/547/6 136/291/6 66/143/6 284/518/6
f 270/499/6 135/290/6 67/145/6 256/470/6
f 242/451/6 134/289/6 68/146/6 228/422/6
f 218/407/6 114/258/6 104/239/6 217/405/6
f 238/445/6 115/260/6 105/241/6 236/442/6
f 266/493/6 116/262/6 106/243/6 264/490/6
f 294/541/6 117/264/6 107/245/6 292/538/6
f 322/589/6 118/267/6 108/246/6 320/586/6
f 23/65/6 109/249/6 99/229/6 21/62/6
f 321/588/6 110/251/6 100/230/6 319/584/6
f 293/540/6 111/253/6 101/232/6 291/536/6
f 265/492/6 112/255/6 102/234/6 263/488/6
f 237/444/6 113/256/6 103/236/6 235/440/6
f 37/91/3 178/344/3 109/248/3 23/66/3
f 334/605/3 177/343/3 110/250/3 321/587/3
f 306/557/3 176/342/3 111/252/3 293/539/3
f 278/509/3 175/341/3 112/254/3 265/491/3
f 250/461/3 174/340/3 113/257/3 237/443/3
f 204/382/4 123/272/4 103/237/4 202/378/4
f 239/447/4 122/271/4 102/235/4 235/439/4
f 267/495/4 121/270/4 101/233/4 263/487/4
f 295/543/4 120/269/4 100/231/4 291/535/4
f 323/591/4 119/268/4 99/228/4 319/583/4
f 16/48/3 348/638/3 98/226/3 8/23/3
f 347/635/3 346/632/3 97/223/3 318/581/3
f 345/629/3 344/626/3 96/220/3 290/533/3
f 343/623/3 342/620/3 95/217/3 262/485/3
f 341/617/3 340/614/3 94/213/3 234/437/3
f 350/644/4 349/641/4 93/211/4 201/375/4
f 352/650/4 351/647/4 92/208/4 233/434/4
f 354/656/4 353/653/4 91/205/4 261/482/4
f 356/662/4 355/659/4 90/202/4 289/530/4
f 358/668/4 357/665/4 89/198/4 317/578/4
f 8/24/6 98/225/6 89/199/6 5/15/6
f 318/580/6 97/222/6 90/201/6 317/577/6
f 290/532/6 96/219/6 91/204/6 289/529/6
f 262/484/6 95/216/6 92/207/6 261/481/6
f 234/436/6 94/214/6 93/210/6 233/433/6
f 55/123/3 143/298/3 108/247/3 22/64/3
f 327/596/3 142/297/3 107/244/3 320/585/3
f 299/548/3 141/296/3 106/242/3 292/537/3
f 271/500/3 140/295/3 105/240/3 264/489/3
f 243/452/3 139/294/3 104/238/3 236/441/3
f 4/11/5 78/167/5 63/137/5 2/5/5
f 314/570/5 77/165/5 62/135/5 311/564/5
f 286/522/5 76/163/5 61/133/5 283/516/5
f 258/474/5 75/161/5 60/131/5 255/468/5
f 230/426/5 74/158/5 59/128/5 227/420/5
f 2/6/4 63/136/4 73/157/4 12/36/4
f 311/563/4 62/134/4 72/154/4 313/567/4
f 283/515/4 61/132/4 71/152/4 285/519/4
f 255/467/4 60/130/4 70/150/4 257/471/4
f 227/419/4 59/129/4 69/148/4 229/423/4
f 9/27/3 64/138/3 78/166/3 4/12/3
f 312/565/3 65/140/3 77/164/3 314/569/3
f 284/517/3 66/142/3 76/162/3 286/521/3
f 256/469/3 67/144/3 75/160/3 258/473/3
f 228/421/3 68/147/3 74/159/3 230/425/3
f 14/41/4 350/644/4 201/375/4 6/18/4
f 46/105/4 204/382/4 202/378/4 18/54/4
f 20/59/6 218/407/6 217/405/6 19/57/6
f 25/70/4 211/392/4 218/408/4 20/60/4
f 33/83/6 208/388/6 350/646/6 14/42/6
f 51/115/6 207/387/6 213/395/6 11/33/6
f 50/114/18 222/413/18 205/383/18 53/119/18
f 53/120/19 205/384/19 206/386/19 54/122/19
f 54/122/20 206/386/20 207/387/20 51/115/20
f 26/71/17 226/418/17 209/389/17 28/75/17
f 28/76/16 209/390/16 210/391/16 27/73/16
f 27/73/15 210/391/15 211/392/15 25/70/15
f 179/345/6 226/418/6 339/613/6 340/616/6
f 169/335/18 224/416/18 225/417/18 174/340/18
f 164/325/19 223/414/19 224/416/19 169/335/19
f 163/324/20 208/388/20 223/415/20 164/326/20
f 129/282/17 220/411/17 221/412/17 134/289/17
f 124/273/16 219/409/16 220/411/16 129/282/16
f 123/272/15 204/382/15 219/410/15 124/274/15
f 134/289/6 221/412/6 199/370/6 68/146/6
f 113/256/6 203/380/6 202/379/6 103/236/6
f 174/340/3 225/417/3 203/381/3 113/257/3
f 340/614/3 339/611/3 216/402/3 94/213/3
f 94/214/6 216/403/6 201/376/6 93/210/6
f 139/294/3 222/413/3 217/406/3 104/238/3
f 74/158/5 214/397/5 212/393/5 59/128/5
f 59/129/4 212/394/4 213/396/4 69/148/4
f 68/147/3 199/371/3 214/398/3 74/159/3
f 67/144/3 228/421/3 230/425/3 75/160/3
f 60/130/4 227/419/4 229/423/4 70/150/4
f 75/161/5 230/426/5 227/420/5 60/131/5
f 140/295/3 243/452/3 236/441/3 105/240/3
f 95/216/6 234/436/6 233/433/6 92/207/6
f 349/641/4 352/650/4 233/434/4 93/211/4
f 342/620/3 341/617/3 234/437/3 95/217/3
f 123/272/4 239/447/4 235/439/4 103/237/4
f 175/341/3 250/461/3 237/443/3 112/254/3
f 112/255/6 237/444/6 235/440/6 102/234/6
f 114/258/6 238/445/6 236/442/6 104/239/6
f 135/290/6 242/451/6 228/422/6 67/145/6
f 198/369/4 254/466/4 238/446/4 114/259/4
f 163/324/6 247/457/6 352/652/6 349/643/6
f 158/319/6 246/456/6 229/424/6 69/149/6
f 122/271/15 239/447/15 240/448/15 125/275/15
f 125/276/16 240/449/16 241/450/16 130/283/16
f 130/283/17 241/450/17 242/451/17 135/290/17
f 139/294/18 243/452/18 244/453/18 148/307/18
f 148/308/19 244/454/19 245/455/19 153/314/19
f 153/314/20 245/455/20 246/456/20 158/319/20
f 162/323/20 247/457/20 248/458/20 165/327/20
f 165/328/19 248/459/19 249/460/19 170/336/19
f 170/336/18 249/460/18 250/461/18 175/341/18
f 179/345/17 251/462/17 252/463/17 188/358/17
f 188/359/16 252/464/16 253/465/16 193/364/16
f 193/364/15 253/465/15 254/466/15 198/369/15
f 180/346/6 251/462/6 341/619/6 342/622/6
f 66/142/3 256/469/3 258/473/3 76/162/3
f 61/132/4 255/467/4 257/471/4 71/152/4
f 76/163/5 258/474/5 255/468/5 61/133/5
f 141/296/3 271/500/3 264/489/3 106/242/3
f 96/219/6 262/484/6 261/481/6 91/204/6
f 351/647/4 354/656/4 261/482/4 92/208/4
f 344/626/3 343/623/3 262/485/3 96/220/3
f 122/271/4 267/495/4 263/487/4 102/235/4
f 176/342/3 278/509/3 265/491/3 111/252/3
f 111/253/6 265/492/6 263/488/6 101/232/6
f 115/260/6 266/493/6 264/490/6 105/241/6
f 136/291/6 270/499/6 256/470/6 66/143/6
f 197/368/4 282/514/4 266/494/4 115/261/4
f 162/323/6 275/505/6 354/658/6 351/649/6
f 157/318/6 274/504/6 257/472/6 70/151/6
f 121/270/15 267/495/15 268/496/15 126/277/15
f 126/278/16 268/497/16 269/498/16 131/284/16
f 131/284/17 269/498/17 270/499/17 136/291/17
f 140/295/18 271/500/18 272/501/18 147/305/18
f 147/306/19 272/502/19 273/503/19 152/312/19
f 152/312/20 273/503/20 274/504/20 157/318/20
f 161/322/20 275/505/20 276/506/20 166/329/20
f 166/330/19 276/507/19 277/508/19 171/337/19
f 171/337/18 277/508/18 278/509/18 176/342/18
f 180/346/17 279/510/17 280/511/17 187/356/17
f 187/357/16 280/512/16 281/513/16 192/363/16
f 192/363/15 281/513/15 282/514/15 197/368/15
f 181/347/6 279/510/6 343/625/6 344/628/6
f 65/140/3 284/517/3 286/521/3 77/164/3
f 62/134/4 283/515/4 285/519/4 72/154/4
f 77/165/5 286/522/5 283/516/5 62/135/5
f 142/297/3 299/548/3 292/537/3 107/244/3
f 97/222/6 290/532/6 289/529/6 90/201/6
f 353/653/4 356/662/4 289/530/4 91/205/4
f 346/632/3 345/629/3 290/533/3 97/223/3
f 121/270/4 295/543/4 291/535/4 101/233/4
f 177/343/3 306/557/3 293/539/3 110/250/3
f 110/251/6 293/540/6 291/536/6 100/230/6
f 116/262/6 294/541/6 292/538/6 106/243/6
f 137/292/6 298/547/6 284/518/6 65/141/6
f 196/367/4 310/562/4 294/542/4 116/263/4
f 161/322/6 303/553/6 356/664/6 353/655/6
f 156/317/6 302/552/6 285/520/6 71/153/6
f 120/269/15 295/543/15 296/544/15 127/279/15
f 127/280/16 296/545/16 297/546/16 132/286/16
f 132/286/17 297/546/17 298/547/17 137/292/17
f 141/296/18 299/548/18 300/549/18 146/303/18
f 146/304/19 300/550/19 301/551/19 151/311/19
f 151/311/20 301/551/20 302/552/20 156/317/20
f 160/321/20 303/553/20 304/554/20 167/331/20
f 167/332/19 304/555/19 305/556/19 172/338/19
f 172/338/18 305/556/18 306/557/18 177/343/18
f 181/347/17 307/558/17 308/559/17 186/354/17
f 186/355/16 308/560/16 309/561/16 191/362/16
f 191/362/15 309/561/15 310/562/15 196/367/15
f 182/348/6 307/558/6 345/631/6 346/634/6
f 64/138/3 312/565/3 314/569/3 78/166/3
f 63/136/4 311/563/4 313/567/4 73/157/4
f 78/167/5 314/570/5 311/564/5 63/137/5
f 143/298/3 327/596/3 320/585/3 108/247/3
f 98/225/6 318/580/6 317/577/6 89/199/6
f 355/659/4 358/668/4 317/578/4 90/202/4
f 348/638/3 347/635/3 318/581/3 98/226/3
f 120/269/4 323/591/4 319/583/4 100/231/4
f 178/344/3 334/605/3 321/587/3 109/248/3
f 109/249/6 321/588/6 319/584/6 99/229/6
f 117/264/6 322/589/6 320/586/6 107/245/6
f 138/293/6 326/595/6 312/566/6 64/139/6
f 195/366/4 338/610/4 322/590/4 117/265/4
f 160/321/6 331/601/6 358/670/6 355/661/6
f 155/316/6 330/600/6 313/568/6 72/155/6
f 119/268/15 323/591/15 324/592/15 128/281/15
f 128/281/16 324/592/16 325/593/16 133/287/16
f 133/288/17 325/594/17 326/595/17 138/293/17
f 142/297/18 327/596/18 328/597/18 145/301/18
f 145/302/19 328/598/19 329/599/19 150/310/19
f 150/310/20 329/599/20 330/600/20 155/316/20
f 159/320/20 331/601/20 332/602/20 168/333/20
f 168/334/19 332/603/19 333/604/19 173/339/19
f 173/339/18 333/604/18 334/605/18 178/344/18
f 182/348/17 335/606/17 336/607/17 185/352/17
f 185/353/16 336/608/16 337/609/16 190/361/16
f 190/361/15 337/609/15 338/610/15 195/366/15
f 183/349/6 335/606/6 347/637/6 348/640/6
f 87/192/2 80/171/2 375/719/2 366/692/2
f 339/612/2 350/645/2 201/377/2 216/404/2
f 349/642/1 340/615/1 94/215/1 93/212/1
f 86/189/4 260/478/4 363/683/4 364/686/4
f 351/648/1 342/621/1 95/218/1 92/209/1
f 341/618/2 352/651/2 233/435/2 234/438/2
f 79/168/3 315/571/3 378/728/3 377/725/3
f 344/627/2 353/654/2 91/206/2 96/221/2
f 343/624/2 354/657/2 261/483/2 262/486/2
f 287/523/1 288/526/1 365/689/1 376/722/1
f 355/660/1 346/633/1 97/224/1 90/203/1
f 345/630/2 356/663/2 289/531/2 290/534/2
f 232/430/4 85/186/4 362/680/4 361/677/4
f 357/666/1 348/639/1 98/227/1 89/200/1
f 347/636/2 358/669/2 317/579/2 318/582/2
f 84/183/5 215/399/5 339/613/5 340/616/5
f 85/187/5 232/431/5 341/619/5 342/622/5
f 260/479/6 86/190/6 344/628/6 343/625/6
f 87/193/5 288/527/5 345/631/5 346/634/5
f 88/195/5 316/574/5 347/637/5 348/640/5
f 200/372/5 83/180/5 349/643/5 350/646/5
f 231/427/5 82/177/5 351/649/5 352/652/5
f 81/174/6 259/475/6 354/658/6 353/655/6
f 287/524/5 80/172/5 355/661/5 356/664/5
f 315/572/5 79/169/5 357/667/5 358/670/5
f 215/399/5 200/372/5 350/646/5 339/613/5
f 83/180/5 84/183/5 340/616/5 349/643/5
f 232/431/5 231/427/5 352/652/5 341/619/5
f 82/177/5 85/187/5 342/622/5 351/649/5
f 259/475/6 260/479/6 343/625/6 354/658/6
f 86/190/6 81/174/6 353/655/6 344/628/6
f 288/527/5 287/524/5 356/664/5 345/631/5
f 80/172/5 87/193/5 346/634/5 355/661/5
f 79/169/5 88/195/5 348/640/5 357/667/5
f 316/574/5 315/572/5 358/670/5 347/637/5
f 360/674/5 369/701/5 370/704/5 359/671/5
f 362/681/5 371/707/5 372/710/5 361/678/5
f 374/716/6 373/713/6 364/687/6 363/684/6
f 366/693/5 375/720/5 376/723/5 365/690/5
f 368/698/5 377/726/5 378/729/5 367/695/5
f 200/373/1 215/400/1 359/672/1 370/705/1
f 288/528/4 87/194/4 366/694/4 365/691/4
f 88/196/2 79/170/2 377/727/2 368/699/2
f 84/184/2 83/181/2 369/702/2 360/675/2
f 316/575/4 88/197/4 368/700/4 367/696/4
f 315/573/1 316/576/1 367/697/1 378/730/1
f 231/428/1 232/432/1 361/679/1 372/711/1
f 83/182/3 200/374/3 370/706/3 369/703/3
f 85/188/2 82/178/2 371/708/2 362/682/2
f 82/179/3 231/429/3 372/712/3 371/709/3
f 260/480/1 259/476/1 374/717/1 363/685/1
f 259/477/3 81/175/3 373/714/3 374/718/3
f 215/401/4 84/185/4 360/676/4 359/673/4
f 81/176/2 86/191/2 364/688/2 373/715/2
f 80/173/3 287/525/3 376/724/3 375/721/3
g Books1_Plane.001
v -0.503287 1.708859 0.261187
v 0.503287 1.708859 0.261187
v -0.503287 1.954183 0.261187
v 0.503287 1.954183 0.261187
vn -0.0000 -0.0000 1.0000
vt 0.035490 0.035071
vt 0.262366 0.035071
vt 0.035490 0.261947
vt 0.262366 0.261947
s 0
usemtl Bookcase
f 379/731/30 380/732/30 382/734/30 381/733/30
g Books2_Plane.002
v -0.503287 1.394384 0.261187
v 0.503287 1.394384 0.261187
v -0.503287 1.639708 0.261187
v 0.503287 1.639708 0.261187
vn -0.0000 -0.0000 1.0000
vt 0.297108 0.025738
vt 0.535559 0.025738
vt 0.297108 0.264188
vt 0.535559 0.264188
s 0
usemtl Bookcase
f 383/735/31 384/736/31 386/738/31 385/737/31
g Books3_Plane.003
v -0.503287 1.112911 0.261187
v 0.503287 1.112911 0.261187
v -0.503287 1.358236 0.261187
v 0.503287 1.358236 0.261187
vn -0.0000 -0.0000 1.0000
vt 0.576318 0.021156
vt 0.817407 0.021156
vt 0.576318 0.262245
vt 0.817407 0.262245
s 0
usemtl Bookcase
f 387/739/32 388/740/32 390/742/32 389/741/32
g Books4_Plane.004
v -0.503287 0.811625 0.261187
v 0.503287 0.811625 0.261187
v -0.503287 1.056949 0.261187
v 0.503287 1.056949 0.261187
vn -0.0000 -0.0000 1.0000
vt 0.717456 0.705129
vt 0.983233 0.705129
vt 0.717456 0.970907
vt 0.983233 0.970907
s 0
usemtl Bookcase
f 391/743/33 392/744/33 394/746/33 393/745/33
g Books5_Plane.005
v -0.503287 0.471619 0.261187
v 0.503287 0.471619 0.261187
v -0.503287 0.716943 0.261187
v 0.503287 0.716943 0.261187
vn -0.0000 -0.0000 1.0000
vt 0.707677 0.315610
vt 0.988877 0.315610
vt 0.707677 0.596810
vt 0.988877 0.596810
s 0
usemtl Bookcase
f 395/747/34 396/748/34 398/750/34 397/749/34
